<?xml version="1.0" encoding="utf-8"?>
<!-- Generator: Adobe Illustrator 27.5.0, SVG Export Plug-In . SVG Version: 6.00 Build 0)  -->
<svg version="1.1" xmlns="http://www.w3.org/2000/svg" xmlns:xlink="http://www.w3.org/1999/xlink" x="0px" y="0px"
	 viewBox="0 0 500 500" style="enable-background:new 0 0 500 500;" xml:space="preserve">
<g id="Background_Complete">
	<g>
		<g>
			<g>
				<g>
					<g>
						<g>
							<path style="fill:#EBEBEB;" d="M310.86,250.209c-46.124-0.444-87.864-0.845-118.118-1.136
								c-15.093-0.073-27.311-0.132-35.796-0.173c-4.203,0.01-7.474,0.017-9.733,0.023c-1.09,0.015-1.929,0.026-2.531,0.034
								c-0.57,0.014-0.863,0.03-0.863,0.047s0.292,0.036,0.862,0.056c0.602,0.014,1.441,0.034,2.531,0.061
								c2.258,0.028,5.529,0.07,9.732,0.123c8.484,0.046,20.703,0.112,35.796,0.194c30.256,0.019,71.998,0.046,118.124,0.076
								c46.103-0.005,87.852,0.056,118.075,0.279c15.112,0.109,27.341,0.252,35.793,0.415c4.226,0.081,7.507,0.167,9.732,0.253
								c2.225,0.086,3.393,0.174,3.393,0.257c-0.001,0.083-1.17,0.158-3.395,0.222c-2.225,0.064-5.508,0.116-9.734,0.153
								c-8.453,0.076-20.684,0.094-35.796,0.048C398.708,251.054,356.96,250.687,310.86,250.209z"/>
						</g>
					</g>
				</g>
			</g>
		</g>
		<g>
			<g>
				<g>
					<g>
						<g>
							<path style="fill:#EBEBEB;" d="M309.941,260.617c-45.494-7.61-86.663-14.496-116.505-19.487
								c-14.899-2.416-26.96-4.372-35.335-5.731c-4.154-0.642-7.386-1.142-9.618-1.487c-1.079-0.154-1.91-0.272-2.506-0.357
								c-0.566-0.074-0.857-0.104-0.86-0.085c-0.003,0.018,0.282,0.083,0.842,0.191c0.592,0.108,1.418,0.259,2.49,0.455
								c2.227,0.38,5.451,0.93,9.594,1.637c8.374,1.365,20.434,3.329,35.33,5.757c29.886,4.718,71.117,11.228,116.679,18.42
								c45.544,7.154,86.777,13.697,116.598,18.614c14.911,2.455,26.97,4.499,35.293,5.975c4.162,0.738,7.39,1.333,9.574,1.766
								c2.184,0.432,3.324,0.701,3.311,0.785c-0.013,0.084-1.18-0.023-3.389-0.304c-2.209-0.282-5.459-0.739-9.641-1.358
								c-8.362-1.236-20.448-3.118-35.368-5.512C396.589,275.113,355.406,268.259,309.941,260.617z"/>
						</g>
					</g>
				</g>
			</g>
		</g>
		<g>
			<g>
				<g>
					<g>
						<g>
							<path style="fill:#EBEBEB;" d="M307.402,270.753c-43.727-14.681-83.298-27.967-111.981-37.597
								c-14.332-4.732-25.934-8.563-33.991-11.223c-4.001-1.288-7.115-2.29-9.265-2.982c-1.041-0.322-1.843-0.569-2.419-0.747
								c-0.547-0.162-0.83-0.237-0.836-0.219c-0.006,0.018,0.266,0.127,0.802,0.322c0.568,0.2,1.359,0.479,2.387,0.842
								c2.139,0.726,5.236,1.777,9.216,3.128c8.055,2.666,19.654,6.507,33.982,11.25c28.771,9.365,68.463,22.284,112.324,36.56
								c43.85,14.234,83.539,27.188,112.213,36.74c14.338,4.773,25.925,8.691,33.912,11.461c3.993,1.384,7.087,2.482,9.176,3.253
								s3.172,1.217,3.145,1.299c-0.027,0.081-1.163-0.207-3.3-0.832c-2.137-0.625-5.275-1.589-9.307-2.857
								c-8.064-2.537-19.702-6.297-34.06-11.011C390.684,298.718,351.096,285.462,307.402,270.753z"/>
						</g>
					</g>
				</g>
			</g>
		</g>
		<g>
			<g>
				<g>
					<g>
						<g>
							<path style="fill:#EBEBEB;" d="M303.303,280.352c-40.874-21.376-77.863-40.72-104.674-54.741
								c-13.409-6.929-24.264-12.538-31.802-16.433c-3.748-1.902-6.666-3.382-8.679-4.404c-0.978-0.482-1.731-0.853-2.271-1.119
								c-0.514-0.247-0.782-0.365-0.79-0.349c-0.008,0.016,0.243,0.166,0.742,0.443c0.529,0.287,1.267,0.687,2.226,1.206
								c1.997,1.053,4.891,2.578,8.61,4.538c7.535,3.9,18.385,9.517,31.79,16.456c26.937,13.777,64.101,32.784,105.167,53.788
								c41.062,20.961,78.217,40.001,105.032,53.945c13.409,6.97,24.235,12.661,31.687,16.651c3.726,1.995,6.61,3.564,8.551,4.654
								c1.942,1.089,2.942,1.699,2.904,1.774c-0.039,0.075-1.114-0.39-3.125-1.345c-2.011-0.955-4.958-2.401-8.74-4.289
								c-7.563-3.776-18.464-9.322-31.901-16.237C381.151,321.067,344.14,301.749,303.303,280.352z"/>
						</g>
					</g>
				</g>
			</g>
		</g>
		<g>
			<g>
				<g>
					<g>
						<g>
							<path style="fill:#EBEBEB;" d="M297.747,289.193c-37.03-27.502-70.54-52.39-94.83-70.431
								c-12.161-8.94-22.005-16.177-28.842-21.202c-3.405-2.465-6.055-4.382-7.884-5.707c-0.89-0.629-1.576-1.113-2.067-1.46
								c-0.469-0.324-0.715-0.483-0.726-0.468c-0.011,0.014,0.214,0.202,0.663,0.554c0.478,0.366,1.144,0.876,2.01,1.539
								c1.809,1.352,4.428,3.311,7.795,5.828c6.833,5.03,16.672,12.274,28.827,21.222c24.453,17.818,58.189,42.4,95.468,69.564
								c37.281,27.122,71.003,51.735,95.308,69.7c12.154,8.98,21.958,16.294,28.694,21.4c3.369,2.553,5.971,4.554,7.718,5.934
								c1.748,1.38,2.641,2.138,2.591,2.206c-0.05,0.068-1.04-0.559-2.878-1.816c-1.837-1.257-4.522-3.146-7.962-5.602
								c-6.88-4.911-16.78-12.093-28.972-21.023C368.274,341.575,334.737,316.71,297.747,289.193z"/>
						</g>
					</g>
				</g>
			</g>
		</g>
		<g>
			<g>
				<g>
					<g>
						<g>
							<path style="fill:#EBEBEB;" d="M290.883,297.057c-32.302-32.927-61.534-62.724-82.723-84.322
								c-10.622-10.722-19.222-19.403-25.193-25.43c-2.98-2.964-5.299-5.271-6.9-6.864c-0.782-0.76-1.384-1.345-1.815-1.764
								c-0.413-0.393-0.631-0.588-0.644-0.576c-0.013,0.013,0.18,0.233,0.569,0.65c0.415,0.436,0.994,1.044,1.746,1.833
								c1.576,1.617,3.86,3.959,6.794,6.969c5.967,6.032,14.56,14.718,25.175,25.447c21.384,21.405,50.885,50.935,83.486,83.567
								c32.609,32.591,62.091,62.15,83.306,83.677c10.61,10.761,19.157,19.51,25.018,25.602c2.93,3.046,5.19,5.427,6.702,7.061
								c1.512,1.635,2.276,2.523,2.216,2.582c-0.06,0.059-0.94-0.714-2.559-2.242c-1.619-1.528-3.978-3.811-6.994-6.773
								c-6.032-5.922-14.695-14.556-25.349-25.273C352.405,359.771,323.143,329.992,290.883,297.057z"/>
						</g>
					</g>
				</g>
			</g>
		</g>
		<g>
			<g>
				<g>
					<g>
						<g>
							<path style="fill:#EBEBEB;" d="M282.88,303.758c-26.788-37.551-51.029-71.532-68.6-96.163
								c-8.826-12.244-15.97-22.156-20.931-29.039c-2.483-3.392-4.415-6.031-5.749-7.853c-0.654-0.872-1.158-1.544-1.519-2.025
								c-0.347-0.453-0.532-0.679-0.547-0.669c-0.015,0.011,0.142,0.258,0.461,0.731c0.342,0.495,0.819,1.185,1.439,2.082
								c1.306,1.843,3.197,4.511,5.627,7.941c4.956,6.886,12.094,16.803,20.911,29.054c17.794,24.47,42.344,58.23,69.472,95.535
								c27.143,37.265,51.67,71.051,69.279,95.615c8.807,12.281,15.888,22.252,20.73,29.182c2.421,3.465,4.283,6.168,5.522,8.018
								c1.239,1.85,1.855,2.846,1.787,2.896c-0.068,0.049-0.818-0.851-2.18-2.612c-1.362-1.761-3.337-4.384-5.855-7.778
								c-5.038-6.788-12.253-16.665-21.11-28.909C333.898,375.278,309.625,341.31,282.88,303.758z"/>
						</g>
					</g>
				</g>
			</g>
		</g>
		<g>
			<g>
				<g>
					<g>
						<g>
							<path style="fill:#EBEBEB;" d="M273.931,309.129c-20.586-41.277-39.215-78.632-52.718-105.707
								c-6.803-13.473-12.31-24.38-16.134-31.954c-1.922-3.738-3.418-6.647-4.451-8.655c-0.51-0.964-0.903-1.706-1.184-2.238
								c-0.272-0.501-0.42-0.754-0.436-0.746c-0.016,0.008,0.099,0.277,0.34,0.794c0.26,0.542,0.624,1.299,1.096,2.282
								c1.002,2.024,2.452,4.956,4.315,8.723c3.819,7.577,9.318,18.488,16.11,31.966c13.751,26.951,32.721,64.133,53.683,105.221
								c20.984,41.05,39.928,78.254,53.479,105.27c6.778,13.506,12.214,24.463,15.912,32.065c1.85,3.801,3.265,6.762,4.199,8.783
								c0.934,2.021,1.387,3.102,1.311,3.14c-0.076,0.038-0.675-0.968-1.746-2.921c-1.07-1.952-2.611-4.851-4.568-8.597
								c-3.915-7.492-9.497-18.375-16.331-31.853C313.137,387.748,294.475,350.402,273.931,309.129z"/>
						</g>
					</g>
				</g>
			</g>
		</g>
		<g>
			<g>
				<g>
					<g>
						<g>
							<path style="fill:#EBEBEB;" d="M264.249,313.03c-13.834-44.003-26.354-83.822-35.428-112.686
								c-4.599-14.376-8.321-26.013-10.906-34.095c-1.311-3.994-2.331-7.102-3.035-9.247c-0.352-1.032-0.623-1.826-0.818-2.396
								c-0.19-0.538-0.296-0.811-0.314-0.805c-0.017,0.006,0.054,0.289,0.211,0.838c0.172,0.577,0.412,1.381,0.723,2.426
								c0.67,2.157,1.641,5.28,2.889,9.294c2.579,8.083,6.292,19.724,10.88,34.103c9.34,28.779,22.224,68.482,36.462,112.356
								c14.265,43.84,27.121,83.561,36.253,112.372c4.569,14.405,8.212,26.08,10.668,34.169c1.228,4.044,2.16,7.192,2.764,9.335
								c0.604,2.143,0.881,3.281,0.8,3.307c-0.081,0.026-0.515-1.062-1.265-3.159c-0.75-2.096-1.816-5.201-3.16-9.209
								c-2.688-8.015-6.488-19.64-11.117-34.026C290.595,396.838,278.042,357.021,264.249,313.03z"/>
						</g>
					</g>
				</g>
			</g>
		</g>
		<g>
			<g>
				<g>
					<g>
						<g>
							<path style="fill:#EBEBEB;" d="M254.071,315.358c-6.74-45.631-12.838-86.925-17.259-116.856
								c-2.279-14.92-4.124-26.999-5.405-35.386c-0.666-4.15-1.184-7.38-1.541-9.61c-0.185-1.074-0.328-1.902-0.43-2.495
								c-0.103-0.561-0.165-0.847-0.183-0.844c-0.018,0.003,0.009,0.294,0.077,0.861c0.079,0.596,0.189,1.429,0.333,2.509
								c0.323,2.235,0.79,5.473,1.391,9.633c1.275,8.388,3.111,20.468,5.379,35.39c4.694,29.89,11.171,71.126,18.327,116.694
								c7.188,45.539,13.633,86.788,18.118,116.677c2.245,14.944,4.007,27.047,5.16,35.422c0.577,4.187,1.002,7.442,1.262,9.653
								c0.26,2.211,0.354,3.379,0.271,3.392c-0.083,0.013-0.341-1.13-0.751-3.319c-0.41-2.188-0.974-5.422-1.67-9.591
								c-1.393-8.338-3.316-20.417-5.624-35.351C266.905,402.267,260.771,360.971,254.071,315.358z"/>
						</g>
					</g>
				</g>
			</g>
		</g>
		<g>
			<g>
				<g>
					<g>
						<g>
							<path style="fill:#EBEBEB;" d="M243.652,316.066c0.415-46.124,0.791-87.864,1.064-118.119
								c0.064-15.093,0.115-27.311,0.151-35.796c-0.012-4.203-0.022-7.474-0.029-9.732c-0.016-1.09-0.028-1.93-0.036-2.531
								c-0.014-0.57-0.03-0.863-0.048-0.863c-0.018,0-0.036,0.292-0.056,0.862c-0.014,0.602-0.033,1.441-0.059,2.531
								c-0.027,2.258-0.066,5.529-0.117,9.732c-0.041,8.485-0.099,20.703-0.172,35.796c-0.001,30.256-0.002,71.998-0.003,118.124
								c0.033,46.103-0.002,87.852-0.207,118.075c-0.099,15.112-0.236,27.341-0.393,35.793c-0.079,4.226-0.162,7.507-0.247,9.732
								c-0.085,2.225-0.171,3.393-0.255,3.393c-0.083,0-0.159-1.169-0.224-3.395c-0.065-2.226-0.119-5.508-0.159-9.734
								c-0.081-8.453-0.107-20.684-0.07-35.796C242.861,403.914,243.202,362.167,243.652,316.066z"/>
						</g>
					</g>
				</g>
			</g>
		</g>
		<g>
			<g>
				<g>
					<g>
						<g>
							<path style="fill:#EBEBEB;" d="M233.244,315.154c7.581-45.499,14.441-86.673,19.414-116.518
								c2.407-14.9,4.356-26.962,5.708-35.338c0.64-4.154,1.137-7.387,1.481-9.619c0.153-1.079,0.271-1.911,0.356-2.506
								c0.074-0.566,0.103-0.857,0.085-0.86c-0.018-0.003-0.083,0.283-0.191,0.843c-0.108,0.592-0.258,1.418-0.453,2.491
								c-0.378,2.227-0.926,5.451-1.631,9.595c-1.359,8.375-3.316,20.436-5.734,35.334c-4.699,29.889-11.183,71.124-18.347,116.691
								c-7.125,45.549-13.642,86.786-18.541,116.61c-2.446,14.913-4.482,26.973-5.953,35.297c-0.735,4.162-1.329,7.391-1.76,9.575
								c-0.431,2.184-0.699,3.325-0.783,3.311c-0.084-0.013,0.022-1.18,0.302-3.389c0.281-2.209,0.736-5.46,1.352-9.641
								c1.231-8.363,3.105-20.45,5.49-35.372C218.802,401.81,225.631,360.624,233.244,315.154z"/>
						</g>
					</g>
				</g>
			</g>
		</g>
		<g>
			<g>
				<g>
					<g>
						<g>
							<path style="fill:#EBEBEB;" d="M223.106,312.621c14.654-43.736,27.915-83.315,37.526-112.005
								c4.723-14.335,8.547-25.94,11.202-33.999c1.285-4.002,2.285-7.116,2.976-9.266c0.321-1.042,0.568-1.844,0.746-2.419
								c0.162-0.547,0.236-0.83,0.219-0.836c-0.018-0.006-0.127,0.266-0.322,0.802c-0.2,0.568-0.479,1.36-0.841,2.388
								c-0.725,2.14-1.774,5.237-3.122,9.218c-2.662,8.057-6.494,19.659-11.228,33.99c-9.347,28.777-22.241,68.477-36.489,112.347
								c-14.207,43.859-27.135,83.556-36.669,112.237c-4.764,14.341-8.675,25.93-11.44,33.919c-1.382,3.994-2.477,7.089-3.247,9.178
								c-0.77,2.089-1.216,3.173-1.297,3.146c-0.081-0.027,0.206-1.163,0.83-3.3c0.624-2.137,1.585-5.276,2.851-9.309
								c2.532-8.065,6.285-19.706,10.99-34.067C195.194,395.921,208.425,356.324,223.106,312.621z"/>
						</g>
					</g>
				</g>
			</g>
		</g>
		<g>
			<g>
				<g>
					<g>
						<g>
							<path style="fill:#EBEBEB;" d="M213.504,308.528c21.35-40.888,40.671-77.889,54.675-104.709
								c6.92-13.413,12.523-24.272,16.413-31.812c1.9-3.75,3.378-6.668,4.398-8.682c0.482-0.979,0.853-1.732,1.118-2.271
								c0.246-0.515,0.364-0.782,0.348-0.791c-0.016-0.008-0.166,0.243-0.443,0.742c-0.286,0.529-0.686,1.267-1.205,2.227
								c-1.052,1.998-2.575,4.893-4.533,8.613c-3.896,7.537-9.506,18.392-16.436,31.8c-13.76,26.946-32.744,64.121-53.721,105.201
								c-20.935,41.076-39.952,78.242-53.879,105.065c-6.962,13.413-12.645,24.243-16.631,31.698
								c-1.992,3.728-3.56,6.612-4.648,8.554c-1.088,1.942-1.697,2.943-1.772,2.905c-0.075-0.039,0.389-1.115,1.342-3.126
								c0.954-2.012,2.398-4.96,4.284-8.742c3.771-7.565,9.31-18.47,16.217-31.911C172.839,386.401,192.133,349.378,213.504,308.528
								z"/>
						</g>
					</g>
				</g>
			</g>
		</g>
		<g>
			<g>
				<g>
					<g>
						<g>
							<path style="fill:#EBEBEB;" d="M204.661,302.977c27.479-37.047,52.346-70.573,70.371-94.874
								c8.932-12.166,16.163-22.016,21.184-28.855c2.463-3.406,4.379-6.057,5.702-7.887c0.628-0.891,1.112-1.577,1.459-2.068
								c0.324-0.47,0.482-0.716,0.468-0.726c-0.014-0.011-0.202,0.214-0.553,0.663c-0.366,0.478-0.876,1.145-1.538,2.011
								c-1.351,1.81-3.308,4.43-5.823,7.799c-5.026,6.836-12.264,16.68-21.205,28.84c-17.803,24.464-42.364,58.215-69.505,95.511
								c-27.098,37.298-51.691,71.035-69.641,95.351c-8.972,12.16-16.28,21.968-21.382,28.708c-2.551,3.37-4.55,5.974-5.929,7.722
								c-1.379,1.748-2.137,2.642-2.205,2.592c-0.068-0.05,0.558-1.04,1.815-2.879c1.256-1.838,3.143-4.524,5.597-7.965
								c4.908-6.883,12.083-16.788,21.005-28.985C152.322,373.537,177.167,339.985,204.661,302.977z"/>
						</g>
					</g>
				</g>
			</g>
		</g>
		<g>
			<g>
				<g>
					<g>
						<g>
							<path style="fill:#EBEBEB;" d="M196.792,296.118c32.907-32.323,62.685-61.573,84.271-82.776
								c10.716-10.629,19.391-19.233,25.414-25.208c2.963-2.982,5.268-5.302,6.86-6.904c0.76-0.782,1.344-1.385,1.763-1.816
								c0.393-0.414,0.588-0.632,0.575-0.645c-0.013-0.013-0.233,0.18-0.65,0.57c-0.435,0.415-1.043,0.995-1.831,1.747
								c-1.616,1.578-3.957,3.862-6.965,6.798c-6.028,5.971-14.709,14.57-25.432,25.191c-21.392,21.397-50.904,50.917-83.515,83.537
								c-32.57,32.629-62.111,62.13-83.625,83.359c-10.755,10.616-19.498,19.168-25.587,25.033
								c-3.044,2.933-5.423,5.193-7.057,6.706c-1.634,1.513-2.521,2.277-2.58,2.218c-0.059-0.06,0.713-0.941,2.24-2.561
								c1.527-1.62,3.809-3.98,6.768-6.998c5.918-6.036,14.547-14.704,25.258-25.365
								C134.117,357.679,163.877,328.399,196.792,296.118z"/>
						</g>
					</g>
				</g>
			</g>
		</g>
		<g>
			<g>
				<g>
					<g>
						<g>
							<path style="fill:#EBEBEB;" d="M190.086,288.12c37.534-26.811,71.5-51.073,96.12-68.66
								c12.239-8.833,22.146-15.984,29.026-20.949c3.39-2.485,6.028-4.419,7.85-5.754c0.872-0.655,1.543-1.159,2.024-1.52
								c0.452-0.347,0.679-0.533,0.668-0.547c-0.01-0.015-0.258,0.142-0.73,0.461c-0.495,0.342-1.185,0.82-2.081,1.441
								c-1.842,1.307-4.509,3.2-7.938,5.632c-6.883,4.961-16.796,12.104-29.04,20.929c-24.459,17.81-58.203,42.381-95.491,69.532
								c-37.249,27.167-71.018,51.714-95.572,69.338c-12.275,8.814-22.243,15.902-29.169,20.749
								c-3.463,2.423-6.166,4.286-8.015,5.526c-1.849,1.24-2.845,1.857-2.894,1.789c-0.049-0.068,0.851-0.818,2.611-2.181
								c1.76-1.363,4.381-3.34,7.774-5.861c6.785-5.042,16.657-12.263,28.895-21.128C118.597,339.182,152.55,314.888,190.086,288.12
								z"/>
						</g>
					</g>
				</g>
			</g>
		</g>
		<g>
			<g>
				<g>
					<g>
						<g>
							<path style="fill:#EBEBEB;" d="M184.709,279.174c41.265-20.612,78.607-39.264,105.674-52.785
								c13.469-6.811,24.373-12.325,31.944-16.154c3.737-1.925,6.645-3.423,8.652-4.457c0.964-0.511,1.705-0.904,2.237-1.185
								c0.501-0.273,0.754-0.421,0.746-0.437c-0.008-0.016-0.277,0.099-0.794,0.341c-0.542,0.261-1.299,0.625-2.281,1.097
								c-2.023,1.003-4.954,2.455-8.721,4.321c-7.574,3.823-18.482,9.329-31.956,16.13c-26.943,13.767-64.113,32.761-105.187,53.749
								c-41.037,21.01-78.229,39.977-105.236,53.545c-13.502,6.787-24.455,12.229-32.055,15.932c-3.8,1.852-6.76,3.269-8.781,4.205
								c-2.021,0.935-3.101,1.389-3.139,1.313c-0.038-0.076,0.968-0.676,2.919-1.747c1.952-1.072,4.849-2.614,8.594-4.574
								c7.489-3.92,18.369-9.509,31.843-16.351C106.115,318.429,143.449,299.743,184.709,279.174z"/>
						</g>
					</g>
				</g>
			</g>
		</g>
		<g>
			<g>
				<g>
					<g>
						<g>
							<path style="fill:#EBEBEB;" d="M180.802,269.495c43.994-13.862,83.806-26.407,112.663-35.5
								c14.373-4.608,26.008-8.337,34.088-10.928c3.993-1.313,7.1-2.335,9.246-3.041c1.031-0.353,1.826-0.624,2.395-0.819
								c0.538-0.191,0.81-0.297,0.805-0.314c-0.006-0.018-0.289,0.054-0.838,0.212c-0.576,0.172-1.381,0.412-2.426,0.724
								c-2.156,0.672-5.279,1.644-9.292,2.895c-8.082,2.584-19.72,6.305-34.096,10.901c-28.773,9.358-68.468,22.267-112.333,36.533
								c-43.831,14.293-83.543,27.174-112.349,36.324c-14.402,4.578-26.075,8.229-34.162,10.69c-4.044,1.231-7.19,2.165-9.333,2.77
								c-2.143,0.606-3.281,0.883-3.307,0.802c-0.026-0.081,1.062-0.516,3.158-1.267c2.096-0.751,5.2-1.819,9.206-3.165
								c8.013-2.693,19.636-6.501,34.019-11.138C97.011,295.893,136.82,283.315,180.802,269.495z"/>
						</g>
					</g>
				</g>
			</g>
		</g>
		<g>
			<g>
				<g>
					<g>
						<g>
							<path style="fill:#EBEBEB;" d="M178.468,259.318c45.627-6.768,86.917-12.893,116.846-17.332
								c14.919-2.288,26.996-4.141,35.382-5.427c4.15-0.668,7.379-1.188,9.609-1.547c1.074-0.186,1.901-0.329,2.494-0.432
								c0.561-0.103,0.847-0.165,0.844-0.183c-0.003-0.018-0.294,0.009-0.861,0.078c-0.596,0.079-1.428,0.19-2.509,0.334
								c-2.235,0.324-5.472,0.794-9.632,1.397c-8.388,1.28-20.466,3.124-35.387,5.401c-29.887,4.713-71.119,11.215-116.682,18.4
								c-45.535,7.217-86.779,13.687-116.665,18.191c-14.943,2.255-27.045,4.024-35.418,5.182c-4.187,0.579-7.441,1.007-9.653,1.268
								c-2.211,0.261-3.379,0.357-3.392,0.273c-0.012-0.083,1.13-0.342,3.318-0.753c2.188-0.412,5.421-0.977,9.59-1.676
								c8.337-1.398,20.414-3.329,35.347-5.646C91.566,272.206,132.859,266.047,178.468,259.318z"/>
						</g>
					</g>
				</g>
			</g>
		</g>
		<g>
			<g>
				<g>
					<g>
						<g>
							<path style="fill:#EBEBEB;" d="M177.753,248.9c46.125,0.387,87.865,0.736,118.12,0.99
								c15.093,0.054,27.312,0.098,35.796,0.129c4.203-0.015,7.474-0.027,9.732-0.035c1.09-0.016,1.93-0.029,2.531-0.038
								c0.57-0.014,0.862-0.031,0.862-0.048c0-0.017-0.292-0.036-0.862-0.055c-0.601-0.014-1.441-0.033-2.531-0.057
								c-2.258-0.026-5.529-0.063-9.732-0.111c-8.485-0.035-20.703-0.086-35.796-0.149c-30.256,0.018-71.998,0.043-118.123,0.071
								c-46.103,0.062-87.852,0.053-118.076-0.133c-15.112-0.09-27.342-0.219-35.794-0.371c-4.226-0.076-7.507-0.158-9.732-0.241
								c-2.225-0.084-3.393-0.169-3.393-0.253c0-0.083,1.169-0.16,3.394-0.226c2.226-0.066,5.508-0.122,9.734-0.166
								c8.453-0.087,20.684-0.12,35.796-0.093C89.905,248.164,131.652,248.479,177.753,248.9z"/>
						</g>
					</g>
				</g>
			</g>
		</g>
		<g>
			<g>
				<g>
					<g>
						<g>
							<path style="fill:#EBEBEB;" d="M178.659,238.491c45.503,7.552,86.682,14.386,116.53,19.339
								c14.901,2.398,26.965,4.338,35.342,5.686c4.155,0.637,7.388,1.132,9.62,1.475c1.079,0.152,1.911,0.27,2.507,0.354
								c0.566,0.074,0.857,0.103,0.86,0.085c0.003-0.018-0.283-0.082-0.843-0.19c-0.592-0.108-1.418-0.257-2.491-0.452
								c-2.227-0.377-5.452-0.923-9.596-1.624c-8.376-1.354-20.438-3.304-35.338-5.712c-29.892-4.68-71.131-11.137-116.702-18.272
								c-45.553-7.096-86.795-13.587-116.622-18.467c-14.914-2.437-26.976-4.465-35.301-5.93c-4.163-0.733-7.392-1.324-9.576-1.754
								c-2.185-0.429-3.325-0.697-3.312-0.781c0.014-0.083,1.181,0.021,3.389,0.3c2.209,0.279,5.46,0.732,9.642,1.346
								c8.364,1.226,20.451,3.092,35.376,5.467C91.993,224.105,133.184,230.907,178.659,238.491z"/>
						</g>
					</g>
				</g>
			</g>
		</g>
		<g>
			<g>
				<g>
					<g>
						<g>
							<path style="fill:#EBEBEB;" d="M181.185,228.352c43.746,14.626,83.333,27.861,112.028,37.455
								c14.338,4.714,25.945,8.53,34.006,11.18c4.002,1.283,7.117,2.281,9.268,2.97c1.042,0.32,1.844,0.567,2.42,0.744
								c0.547,0.162,0.83,0.236,0.836,0.218c0.006-0.018-0.266-0.126-0.802-0.321c-0.568-0.199-1.36-0.478-2.388-0.839
								c-2.14-0.723-5.238-1.771-9.22-3.117c-8.059-2.656-19.663-6.481-33.997-11.206c-28.783-9.328-68.491-22.197-112.37-36.417
								c-43.869-14.178-83.574-27.081-112.26-36.597c-14.344-4.755-25.935-8.658-33.926-11.418c-3.995-1.379-7.091-2.473-9.18-3.242
								c-2.089-0.769-3.174-1.214-3.147-1.295c0.027-0.081,1.163,0.205,3.301,0.828c2.138,0.623,5.277,1.582,9.31,2.845
								c8.067,2.527,19.71,6.272,34.074,10.968C97.867,200.493,137.473,213.699,181.185,228.352z"/>
						</g>
					</g>
				</g>
			</g>
		</g>
		<g>
			<g>
				<g>
					<g>
						<g>
							<path style="fill:#EBEBEB;" d="M185.272,218.747c40.901,21.324,77.915,40.621,104.743,54.608
								c13.418,6.912,24.28,12.507,31.822,16.392c3.751,1.897,6.67,3.374,8.685,4.393c0.979,0.481,1.732,0.851,2.272,1.116
								c0.515,0.246,0.783,0.364,0.791,0.348c0.008-0.016-0.243-0.166-0.742-0.442c-0.529-0.286-1.268-0.685-2.227-1.203
								c-1.999-1.05-4.894-2.572-8.616-4.527c-7.54-3.891-18.398-9.494-31.811-16.416c-26.954-13.743-64.142-32.703-105.235-53.654
								c-41.089-20.909-78.267-39.902-105.1-53.813c-13.418-6.953-24.251-12.63-31.708-16.61c-3.729-1.99-6.614-3.556-8.557-4.643
								c-1.943-1.087-2.944-1.695-2.906-1.77c0.039-0.075,1.115,0.388,3.127,1.341c2.012,0.952,4.961,2.395,8.745,4.278
								c7.568,3.766,18.476,9.299,31.922,16.197C107.373,178.132,144.408,197.402,185.272,218.747z"/>
						</g>
					</g>
				</g>
			</g>
		</g>
		<g>
			<g>
				<g>
					<g>
						<g>
							<path style="fill:#EBEBEB;" d="M190.817,209.9c37.065,27.456,70.606,52.302,94.919,70.311
								c12.172,8.924,22.026,16.149,28.868,21.166c3.408,2.46,6.06,4.375,7.891,5.697c0.892,0.628,1.578,1.111,2.07,1.458
								c0.47,0.324,0.716,0.482,0.727,0.467c0.011-0.015-0.214-0.202-0.664-0.553c-0.478-0.365-1.145-0.875-2.012-1.537
								c-1.81-1.35-4.432-3.305-7.802-5.818c-6.839-5.022-16.688-12.253-28.854-21.186c-24.475-17.788-58.242-42.327-95.555-69.444
								c-37.315-27.075-71.068-51.646-95.396-69.58c-12.166-8.965-21.978-16.266-28.721-21.364
								c-3.372-2.549-5.977-4.546-7.726-5.924c-1.749-1.378-2.643-2.135-2.593-2.203c0.05-0.068,1.041,0.557,2.88,1.812
								c1.839,1.255,4.526,3.141,7.969,5.592c6.886,4.903,16.796,12.072,28.998,20.987
								C120.225,157.606,153.792,182.43,190.817,209.9z"/>
						</g>
					</g>
				</g>
			</g>
		</g>
		<g>
			<g>
				<g>
					<g>
						<g>
							<path style="fill:#EBEBEB;" d="M197.672,202.027c32.344,32.886,61.613,62.646,82.828,84.218
								c10.636,10.709,19.246,19.379,25.225,25.399c2.984,2.961,5.306,5.264,6.909,6.855c0.783,0.759,1.385,1.343,1.817,1.762
								c0.414,0.393,0.632,0.587,0.645,0.575c0.013-0.013-0.18-0.232-0.57-0.649c-0.416-0.435-0.995-1.042-1.748-1.831
								c-1.579-1.615-3.865-3.954-6.803-6.96c-5.975-6.024-14.579-14.699-25.207-25.416c-21.411-21.378-50.949-50.872-83.59-83.463
								c-32.65-32.55-62.169-62.072-83.411-83.572c-10.623-10.748-19.181-19.486-25.049-25.571c-2.934-3.042-5.197-5.42-6.711-7.053
								c-1.513-1.633-2.279-2.52-2.219-2.579c0.06-0.059,0.941,0.713,2.562,2.239c1.621,1.526,3.982,3.806,7.002,6.764
								c6.04,5.914,14.714,14.538,25.381,25.242C136.071,139.391,165.37,169.132,197.672,202.027z"/>
						</g>
					</g>
				</g>
			</g>
		</g>
		<g>
			<g>
				<g>
					<g>
						<g>
							<path style="fill:#EBEBEB;" d="M205.665,195.316c26.835,37.517,51.119,71.468,68.721,96.077
								c8.841,12.233,15.998,22.136,20.967,29.013c2.487,3.389,4.423,6.026,5.759,7.846c0.655,0.871,1.16,1.542,1.521,2.023
								c0.348,0.452,0.533,0.679,0.548,0.668c0.015-0.011-0.142-0.258-0.461-0.73c-0.343-0.494-0.821-1.185-1.443-2.08
								c-1.308-1.841-3.202-4.507-5.637-7.934c-4.965-6.88-12.115-16.788-20.948-29.027c-17.825-24.448-42.417-58.176-69.592-95.447
								c-27.19-37.231-51.759-70.986-69.398-95.528c-8.822-12.269-15.917-22.232-20.767-29.156c-2.426-3.462-4.29-6.163-5.532-8.011
								c-1.241-1.848-1.859-2.844-1.791-2.893c0.068-0.049,0.819,0.85,2.183,2.61c1.364,1.76,3.342,4.379,5.865,7.77
								c5.047,6.782,12.273,16.649,21.146,28.882C154.558,123.86,178.873,157.797,205.665,195.316z"/>
						</g>
					</g>
				</g>
			</g>
		</g>
		<g>
			<g>
				<g>
					<g>
						<g>
							<path style="fill:#EBEBEB;" d="M214.607,189.934c20.638,41.252,39.315,78.582,52.852,105.641
								c6.82,13.465,12.341,24.365,16.174,31.934c1.927,3.736,3.427,6.643,4.462,8.65c0.511,0.963,0.905,1.705,1.187,2.236
								c0.273,0.501,0.421,0.754,0.437,0.745c0.016-0.008-0.1-0.277-0.341-0.794c-0.261-0.542-0.626-1.298-1.099-2.281
								c-1.004-2.023-2.458-4.953-4.326-8.718c-3.828-7.572-9.341-18.476-16.151-31.946
								c-13.784-26.934-32.802-64.092-53.816-105.153c-21.036-41.024-40.027-78.203-53.613-105.202
								c-6.795-13.498-12.244-24.448-15.952-32.044c-1.854-3.798-3.274-6.758-4.21-8.778c-0.937-2.02-1.391-3.1-1.315-3.138
								c0.075-0.038,0.677,0.967,1.749,2.918c1.073,1.951,2.617,4.848,4.579,8.591c3.925,7.487,9.52,18.363,16.371,31.833
								C175.303,111.365,194.012,148.687,214.607,189.934z"/>
						</g>
					</g>
				</g>
			</g>
		</g>
		<g>
			<g>
				<g>
					<g>
						<g>
							<path style="fill:#EBEBEB;" d="M224.285,186.02c13.891,43.985,26.461,83.789,35.572,112.641
								c4.617,14.37,8.354,26.003,10.949,34.081c1.316,3.992,2.34,7.099,3.046,9.243c0.354,1.031,0.626,1.826,0.821,2.395
								c0.191,0.538,0.297,0.81,0.315,0.805c0.017-0.006-0.054-0.289-0.212-0.838c-0.173-0.577-0.413-1.381-0.726-2.425
								c-0.673-2.156-1.648-5.278-2.901-9.29c-2.589-8.08-6.317-19.716-10.923-34.089c-9.376-28.767-22.311-68.454-36.605-112.309
								c-14.321-43.822-27.227-83.526-36.396-112.326c-4.587-14.399-8.246-26.07-10.712-34.155
								c-1.233-4.043-2.169-7.189-2.776-9.331c-0.607-2.142-0.885-3.28-0.804-3.306c0.081-0.026,0.516,1.062,1.269,3.157
								c0.753,2.096,1.822,5.199,3.171,9.205c2.698,8.011,6.513,19.632,11.16,34.012
								C197.832,102.246,210.436,142.047,224.285,186.02z"/>
						</g>
					</g>
				</g>
			</g>
		</g>
		<g>
			<g>
				<g>
					<g>
						<g>
							<path style="fill:#EBEBEB;" d="M234.46,183.68c6.797,45.622,12.948,86.909,17.407,116.834
								c2.298,14.917,4.158,26.993,5.45,35.379c0.671,4.15,1.193,7.378,1.553,9.608c0.186,1.074,0.33,1.901,0.433,2.494
								c0.103,0.561,0.166,0.847,0.184,0.844c0.018-0.003-0.009-0.294-0.078-0.861c-0.08-0.596-0.191-1.428-0.336-2.509
								c-0.325-2.235-0.797-5.471-1.403-9.631c-1.285-8.387-3.137-20.464-5.424-35.383c-4.732-29.884-11.26-71.112-18.474-116.671
								c-7.246-45.53-13.742-86.77-18.265-116.654c-2.264-14.941-4.041-27.042-5.205-35.415c-0.582-4.186-1.012-7.441-1.274-9.652
								c-0.263-2.211-0.359-3.379-0.275-3.391c0.084-0.013,0.342,1.13,0.756,3.318s0.981,5.421,1.682,9.589
								c1.404,8.336,3.342,20.412,5.669,35.344C221.517,96.786,227.702,138.075,234.46,183.68z"/>
						</g>
					</g>
				</g>
			</g>
		</g>
		<g>
			<g>
				<g>
					<g>
						<g>
							<path style="fill:#EBEBEB;" d="M244.877,182.959c-0.357,46.124-0.681,87.865-0.915,118.12
								c-0.045,15.093-0.081,27.311-0.106,35.796c0.018,4.203,0.031,7.474,0.041,9.732c0.017,1.09,0.03,1.929,0.039,2.531
								c0.015,0.57,0.031,0.862,0.049,0.862c0.018,0,0.036-0.292,0.055-0.862c0.013-0.602,0.032-1.441,0.055-2.531
								c0.024-2.258,0.059-5.529,0.105-9.732c0.03-8.484,0.073-20.703,0.127-35.796c-0.037-30.256-0.089-71.998-0.146-118.123
								c-0.091-46.103-0.108-87.852,0.059-118.076c0.08-15.112,0.201-27.342,0.348-35.794c0.074-4.226,0.153-7.508,0.235-9.733
								c0.082-2.225,0.167-3.393,0.251-3.393c0.083,0,0.16,1.169,0.228,3.395c0.068,2.225,0.126,5.508,0.172,9.734
								c0.092,8.453,0.133,20.684,0.115,35.795C245.557,95.109,245.268,136.857,244.877,182.959z"/>
						</g>
					</g>
				</g>
			</g>
		</g>
		<g>
			<g>
				<g>
					<g>
						<g>
							<path style="fill:#EBEBEB;" d="M255.287,183.857c-7.522,45.508-14.33,86.691-19.264,116.542
								c-2.388,14.903-4.321,26.968-5.663,35.346c-0.634,4.155-1.128,7.389-1.468,9.621c-0.152,1.08-0.269,1.911-0.353,2.507
								c-0.073,0.566-0.102,0.857-0.084,0.86c0.018,0.003,0.082-0.283,0.19-0.843c0.107-0.592,0.256-1.418,0.45-2.491
								c0.376-2.227,0.919-5.452,1.618-9.597c1.348-8.377,3.291-20.44,5.689-35.342c4.661-29.895,11.091-71.138,18.197-116.714
								c7.066-45.558,13.531-86.803,18.391-116.634c2.427-14.916,4.447-26.978,5.907-35.305c0.73-4.163,1.319-7.392,1.748-9.577
								c0.428-2.185,0.695-3.326,0.778-3.312c0.084,0.013-0.02,1.18-0.298,3.389c-0.277,2.209-0.729,5.46-1.339,9.643
								c-1.22,8.365-3.079,20.454-5.444,35.379C269.616,97.182,262.841,138.378,255.287,183.857z"/>
						</g>
					</g>
				</g>
			</g>
		</g>
		<g>
			<g>
				<g>
					<g>
						<g>
							<path style="fill:#EBEBEB;" d="M265.427,186.377c-14.597,43.755-27.807,83.351-37.382,112.053
								c-4.704,14.341-8.513,25.951-11.158,34.013c-1.28,4.004-2.276,7.119-2.964,9.271c-0.32,1.042-0.566,1.844-0.743,2.42
								c-0.161,0.547-0.235,0.831-0.217,0.836c0.018,0.006,0.126-0.266,0.321-0.802c0.199-0.568,0.477-1.36,0.837-2.389
								c0.722-2.141,1.767-5.24,3.11-9.222c2.651-8.06,6.469-19.667,11.184-34.004c9.309-28.789,22.152-68.506,36.344-112.394
								c14.15-43.878,27.027-83.591,36.524-112.284c4.746-14.347,8.641-25.941,11.395-33.933c1.377-3.996,2.469-7.092,3.236-9.182
								c0.768-2.09,1.212-3.174,1.293-3.148c0.081,0.027-0.204,1.163-0.826,3.301c-0.621,2.138-1.578,5.278-2.839,9.312
								c-2.521,8.069-6.259,19.714-10.946,34.081C293.232,103.041,280.052,142.655,265.427,186.377z"/>
						</g>
					</g>
				</g>
			</g>
		</g>
		<g>
			<g>
				<g>
					<g>
						<g>
							<path style="fill:#EBEBEB;" d="M275.034,190.458c-21.298,40.915-40.571,77.941-54.54,104.779
								c-6.903,13.422-12.492,24.288-16.372,31.833c-1.895,3.752-3.369,6.672-4.387,8.688c-0.48,0.979-0.85,1.733-1.115,2.273
								c-0.246,0.515-0.364,0.783-0.347,0.791c0.016,0.008,0.165-0.243,0.442-0.742c0.286-0.529,0.684-1.268,1.202-2.228
								c1.049-2,2.569-4.896,4.521-8.618c3.886-7.542,9.482-18.404,16.396-31.821c13.725-26.964,32.661-64.163,53.586-105.27
								c20.883-41.102,39.851-78.293,53.745-105.134c6.944-13.422,12.614-24.259,16.59-31.719c1.987-3.73,3.551-6.616,4.637-8.56
								c1.086-1.944,1.694-2.945,1.768-2.907c0.075,0.038-0.387,1.115-1.339,3.128c-0.951,2.013-2.392,4.963-4.272,8.748
								c-3.762,7.57-9.287,18.482-16.176,31.932C315.6,112.533,296.353,149.58,275.034,190.458z"/>
						</g>
					</g>
				</g>
			</g>
		</g>
		<g>
			<g>
				<g>
					<g>
						<g>
							<path style="fill:#EBEBEB;" d="M283.885,195.997c-27.432,37.082-52.257,70.64-70.251,94.964
								c-8.917,12.178-16.135,22.036-21.147,28.882c-2.458,3.41-4.371,6.063-5.692,7.895c-0.627,0.892-1.11,1.578-1.457,2.07
								c-0.323,0.47-0.481,0.716-0.467,0.727c0.014,0.011,0.202-0.214,0.552-0.664c0.365-0.478,0.874-1.146,1.535-2.013
								c1.349-1.811,3.303-4.435,5.813-7.806c5.017-6.842,12.243-16.696,21.168-28.867c17.772-24.487,42.29-58.269,69.383-95.6
								c27.051-37.333,51.6-71.101,69.519-95.44c8.957-12.171,16.252-21.989,21.345-28.735c2.547-3.373,4.543-5.979,5.919-7.73
								c1.376-1.75,2.133-2.644,2.201-2.594c0.068,0.05-0.557,1.041-1.811,2.881c-1.254,1.84-3.137,4.528-5.587,7.973
								c-4.898,6.89-12.061,16.803-20.968,29.011C336.134,125.371,311.332,158.955,283.885,195.997z"/>
						</g>
					</g>
				</g>
			</g>
		</g>
		<g>
			<g>
				<g>
					<g>
						<g>
							<path style="fill:#EBEBEB;" d="M291.763,202.847c-32.865,32.365-62.607,61.653-84.165,82.882
								c-10.703,10.643-19.366,19.258-25.383,25.241c-2.959,2.986-5.261,5.309-6.85,6.913c-0.759,0.783-1.343,1.386-1.761,1.819
								c-0.393,0.414-0.587,0.632-0.575,0.645c0.013,0.013,0.232-0.18,0.649-0.57c0.435-0.416,1.042-0.996,1.829-1.75
								c1.614-1.58,3.952-3.867,6.956-6.807c6.02-5.979,14.69-14.589,25.4-25.224c21.364-21.424,50.839-50.982,83.409-83.643
								c32.529-32.67,62.032-62.209,83.519-83.464c10.741-10.63,19.474-19.193,25.555-25.066c3.04-2.936,5.417-5.2,7.049-6.715
								c1.632-1.515,2.518-2.281,2.577-2.221c0.059,0.06-0.712,0.941-2.237,2.564c-1.525,1.622-3.804,3.985-6.759,7.006
								c-5.911,6.044-14.528,14.723-25.226,25.397C354.36,141.206,324.637,170.523,291.763,202.847z"/>
						</g>
					</g>
				</g>
			</g>
		</g>
		<g>
			<g>
				<g>
					<g>
						<g>
							<path style="fill:#EBEBEB;" d="M298.479,210.836c-37.5,26.859-71.435,51.164-96.033,68.782
								c-12.227,8.849-22.126,16.012-28.999,20.986c-3.387,2.489-6.023,4.426-7.842,5.764c-0.871,0.656-1.542,1.161-2.023,1.523
								c-0.452,0.348-0.678,0.534-0.668,0.548c0.011,0.015,0.258-0.142,0.73-0.462c0.494-0.343,1.184-0.822,2.079-1.444
								c1.84-1.309,4.505-3.205,7.93-5.642c6.877-4.97,16.781-12.126,29.014-20.966c24.436-17.841,58.149-42.454,95.403-69.653
								c37.214-27.214,70.952-51.805,95.483-69.46c12.264-8.83,22.222-15.931,29.142-20.786c3.46-2.428,6.16-4.294,8.008-5.537
								c1.848-1.242,2.843-1.861,2.892-1.792c0.049,0.068-0.85,0.819-2.608,2.185c-1.759,1.365-4.377,3.345-7.767,5.87
								c-6.778,5.051-16.641,12.284-28.868,21.164C369.902,159.683,335.981,184.02,298.479,210.836z"/>
						</g>
					</g>
				</g>
			</g>
		</g>
		<g>
			<g>
				<g>
					<g>
						<g>
							<path style="fill:#EBEBEB;" d="M303.867,219.775c-41.238,20.665-78.556,39.365-105.607,52.92
								c-13.46,6.828-24.357,12.356-31.924,16.195c-3.734,1.93-6.64,3.431-8.646,4.468c-0.963,0.512-1.704,0.906-2.235,1.188
								c-0.501,0.273-0.753,0.421-0.745,0.438c0.008,0.016,0.277-0.1,0.793-0.342c0.542-0.262,1.298-0.626,2.28-1.1
								c2.022-1.005,4.951-2.461,8.715-4.332c7.569-3.833,18.47-9.353,31.935-16.171c26.925-13.802,64.071-32.843,105.118-53.884
								c41.01-21.063,78.177-40.077,105.167-53.68c13.493-6.804,24.44-12.26,32.034-15.973c3.797-1.857,6.756-3.278,8.775-4.216
								c2.019-0.938,3.099-1.393,3.137-1.317c0.038,0.075-0.967,0.677-2.917,1.751c-1.951,1.074-4.846,2.62-8.589,4.585
								c-7.484,3.93-18.357,9.532-31.822,16.391C382.411,180.419,345.1,199.153,303.867,219.775z"/>
						</g>
					</g>
				</g>
			</g>
		</g>
		<g>
			<g>
				<g>
					<g>
						<g>
							<path style="fill:#EBEBEB;" d="M307.786,229.449c-43.976,13.919-83.772,26.515-112.618,35.645
								c-14.367,4.626-25.997,8.371-34.073,10.972c-3.991,1.318-7.097,2.344-9.242,3.052c-1.031,0.354-1.825,0.627-2.394,0.822
								c-0.537,0.191-0.81,0.298-0.804,0.315c0.005,0.017,0.289-0.055,0.837-0.213c0.576-0.173,1.38-0.414,2.425-0.727
								c2.155-0.674,5.277-1.651,9.288-2.906c8.079-2.594,19.712-6.33,34.082-10.945c28.761-9.395,68.439-22.355,112.285-36.678
								c43.813-14.35,83.509-27.281,112.302-36.468c14.396-4.597,26.064-8.262,34.148-10.734c4.042-1.236,7.188-2.174,9.33-2.782
								c2.142-0.609,3.279-0.887,3.306-0.807c0.026,0.081-1.062,0.517-3.156,1.271c-2.095,0.754-5.198,1.825-9.203,3.177
								c-8.009,2.704-19.628,6.526-34.004,11.182C391.544,202.943,351.751,215.572,307.786,229.449z"/>
						</g>
					</g>
				</g>
			</g>
		</g>
		<g>
			<g>
				<g>
					<g>
						<g>
							<path style="fill:#EBEBEB;" d="M310.134,239.623c-45.618,6.827-86.9,13.004-116.823,17.482
								c-14.916,2.307-26.991,4.175-35.376,5.472c-4.149,0.674-7.378,1.198-9.607,1.559c-1.074,0.187-1.901,0.331-2.494,0.435
								c-0.561,0.104-0.847,0.166-0.844,0.184c0.003,0.018,0.294-0.009,0.86-0.079c0.596-0.08,1.428-0.192,2.509-0.337
								c2.235-0.327,5.471-0.801,9.63-1.409c8.386-1.291,20.462-3.15,35.38-5.447c29.881-4.751,71.105-11.306,116.658-18.55
								c45.525-7.275,86.761-13.798,116.642-18.34c14.94-2.274,27.04-4.058,35.412-5.228c4.186-0.585,7.44-1.016,9.651-1.28
								c2.211-0.264,3.378-0.361,3.391-0.277c0.013,0.083-1.129,0.343-3.317,0.758c-2.187,0.415-5.42,0.984-9.588,1.689
								c-8.335,1.409-20.41,3.355-35.34,5.691C397.019,226.624,355.734,232.836,310.134,239.623z"/>
						</g>
					</g>
				</g>
			</g>
		</g>
	</g>
	<g>
		<g>
			<g>
				<g>
					<g>
						<g>
							<path style="fill:#E0E0E0;" d="M357.455,72.361l1.049,1.743c1.177,1.957,2.891,3.535,4.939,4.548l1.824,0.902l-1.743,1.049
								c-1.957,1.177-3.536,2.892-4.548,4.939l-0.902,1.824l-1.049-1.743c-1.178-1.957-2.891-3.535-4.939-4.548l-1.824-0.902
								l1.744-1.049c1.957-1.177,3.535-2.891,4.548-4.939L357.455,72.361z"/>
						</g>
					</g>
				</g>
			</g>
		</g>
	</g>
	<g>
		<g>
			<g>
				<g>
					<g>
						<g>
							<path style="fill:#E0E0E0;" d="M355.277,276.893l0.642,1.067c0.72,1.197,1.769,2.163,3.021,2.782l1.116,0.552l-1.066,0.642
								c-1.197,0.72-2.163,1.769-2.782,3.021l-0.552,1.116l-0.642-1.067c-0.72-1.197-1.769-2.163-3.021-2.782l-1.116-0.552
								l1.067-0.642c1.197-0.72,2.163-1.769,2.782-3.021L355.277,276.893z"/>
						</g>
					</g>
				</g>
			</g>
		</g>
	</g>
	<g>
		<g>
			<g>
				<g>
					<g>
						<g>
							<path style="fill:#E0E0E0;" d="M459.416,389.616l0.642,1.067c0.72,1.197,1.769,2.163,3.021,2.782l1.116,0.552l-1.066,0.642
								c-1.197,0.72-2.163,1.769-2.782,3.021l-0.552,1.116l-0.642-1.067c-0.72-1.197-1.769-2.163-3.021-2.782l-1.116-0.552
								l1.067-0.642c1.197-0.72,2.163-1.769,2.782-3.021L459.416,389.616z"/>
						</g>
					</g>
				</g>
			</g>
		</g>
	</g>
	<g>
		<g>
			<g>
				<g>
					<g>
						<g>
							<path style="fill:#E0E0E0;" d="M56.045,335.035l0.642,1.067c0.72,1.197,1.769,2.163,3.021,2.782l1.116,0.552l-1.066,0.642
								c-1.198,0.72-2.163,1.769-2.782,3.021l-0.552,1.116l-0.642-1.067c-0.72-1.197-1.769-2.163-3.021-2.782l-1.116-0.552
								l1.067-0.642c1.197-0.72,2.163-1.769,2.782-3.021L56.045,335.035z"/>
						</g>
					</g>
				</g>
			</g>
		</g>
	</g>
	<g>
		<g>
			<g>
				<g>
					<g>
						<g>
							<path style="fill:#E0E0E0;" d="M181.636,36.911l0.642,1.067c0.72,1.197,1.769,2.163,3.021,2.782l1.116,0.552l-1.066,0.642
								c-1.197,0.72-2.163,1.769-2.782,3.021l-0.552,1.116l-0.642-1.067c-0.72-1.197-1.769-2.163-3.021-2.782l-1.116-0.552
								l1.067-0.642c1.197-0.72,2.163-1.769,2.782-3.021L181.636,36.911z"/>
						</g>
					</g>
				</g>
			</g>
		</g>
	</g>
	<g>
		<g>
			<g>
				<g>
					<g>
						<g>
							<path style="fill:#E0E0E0;" d="M78.982,47.395l0.642,1.067c0.72,1.197,1.769,2.163,3.021,2.782l1.116,0.552l-1.066,0.642
								c-1.197,0.72-2.163,1.769-2.782,3.021l-0.552,1.116l-0.642-1.067c-0.72-1.197-1.769-2.163-3.021-2.782l-1.116-0.552
								l1.067-0.642c1.197-0.72,2.163-1.769,2.782-3.021L78.982,47.395z"/>
						</g>
					</g>
				</g>
			</g>
		</g>
	</g>
	<g>
		<g>
			<g>
				<g>
					<g>
						<g>
							<path style="fill:#E0E0E0;" d="M126.876,151.557l0.642,1.067c0.72,1.197,1.769,2.163,3.021,2.782l1.116,0.552l-1.066,0.642
								c-1.197,0.72-2.163,1.769-2.782,3.021l-0.552,1.116l-0.642-1.067c-0.72-1.197-1.769-2.163-3.021-2.782l-1.116-0.552
								l1.067-0.642c1.197-0.72,2.163-1.769,2.782-3.021L126.876,151.557z"/>
						</g>
					</g>
				</g>
			</g>
		</g>
	</g>
	<g>
		<g>
			<g>
				<g>
					<g>
						<g>
							<path style="fill:#E0E0E0;" d="M364.584,180.677l0.642,1.067c0.72,1.197,1.769,2.163,3.021,2.782l1.116,0.552l-1.066,0.642
								c-1.197,0.72-2.163,1.769-2.782,3.021l-0.552,1.116l-0.642-1.067c-0.72-1.197-1.769-2.163-3.021-2.782l-1.116-0.552
								l1.067-0.642c1.197-0.72,2.163-1.769,2.782-3.021L364.584,180.677z"/>
						</g>
					</g>
				</g>
			</g>
		</g>
	</g>
	<g>
		<g>
			<g>
				<g>
					<g>
						<g>
							<path style="fill:#E0E0E0;" d="M355.277,392.193l0.642,1.067c0.72,1.197,1.769,2.163,3.021,2.782l1.116,0.552l-1.066,0.642
								c-1.197,0.72-2.163,1.769-2.782,3.021l-0.552,1.116l-0.642-1.067c-0.72-1.197-1.769-2.163-3.021-2.782l-1.116-0.552
								l1.067-0.642c1.197-0.72,2.163-1.769,2.782-3.021L355.277,392.193z"/>
						</g>
					</g>
				</g>
			</g>
		</g>
	</g>
	<g>
		<g>
			<g>
				<g>
					<g>
						<g>
							<path style="fill:#E0E0E0;" d="M170.389,80.4l1.295,2.151c1.453,2.415,3.568,4.363,6.094,5.612l2.251,1.113l-2.151,1.295
								c-2.415,1.453-4.363,3.568-5.612,6.095l-1.113,2.25l-1.295-2.151c-1.453-2.415-3.568-4.363-6.094-5.612l-2.251-1.113
								l2.152-1.295c2.415-1.453,4.362-3.568,5.612-6.094L170.389,80.4z"/>
						</g>
					</g>
				</g>
			</g>
		</g>
	</g>
	<g>
		<g>
			<g>
				<g>
					<g>
						<g>
							<path style="fill:#E0E0E0;" d="M449.966,69.693l1.295,2.152c1.453,2.415,3.568,4.363,6.094,5.612l2.251,1.113l-2.151,1.295
								c-2.415,1.453-4.363,3.568-5.612,6.094l-1.113,2.251l-1.294-2.152c-1.453-2.415-3.568-4.362-6.095-5.612l-2.251-1.113
								l2.152-1.295c2.415-1.453,4.362-3.568,5.612-6.094L449.966,69.693z"/>
						</g>
					</g>
				</g>
			</g>
		</g>
	</g>
	<g>
		<g>
			<g>
				<g>
					<g>
						<g>
							<path style="fill:#E0E0E0;" d="M331.279,36.126l0.751,1.249c0.844,1.402,2.072,2.533,3.538,3.258l1.307,0.646l-1.249,0.752
								c-1.402,0.844-2.533,2.072-3.258,3.538l-0.646,1.307l-0.752-1.249c-0.844-1.402-2.071-2.533-3.538-3.258l-1.307-0.646
								l1.249-0.752c1.402-0.843,2.533-2.071,3.258-3.538L331.279,36.126z"/>
						</g>
					</g>
				</g>
			</g>
		</g>
	</g>
	<g>
		<g>
			<g>
				<g>
					<g>
						<g>
							<path style="fill:#E0E0E0;" d="M74.996,290.275l1.133,1.884c1.272,2.115,3.124,3.82,5.336,4.914l1.971,0.974l-1.884,1.134
								c-2.115,1.272-3.82,3.124-4.914,5.336l-0.975,1.971l-1.133-1.884c-1.272-2.115-3.124-3.82-5.336-4.914l-1.971-0.975
								l1.884-1.134c2.115-1.272,3.82-3.124,4.914-5.336L74.996,290.275z"/>
						</g>
					</g>
				</g>
			</g>
		</g>
	</g>
	<g>
		<g>
			<g>
				<g>
					<g>
						<g>
							<path style="fill:#E0E0E0;" d="M404.167,399.543l1.133,1.884c1.272,2.115,3.124,3.82,5.336,4.914l1.971,0.975l-1.884,1.134
								c-2.115,1.272-3.82,3.124-4.914,5.336l-0.975,1.971l-1.133-1.884c-1.272-2.115-3.124-3.82-5.336-4.914l-1.971-0.975
								l1.884-1.134c2.115-1.272,3.82-3.124,4.914-5.336L404.167,399.543z"/>
						</g>
					</g>
				</g>
			</g>
		</g>
	</g>
</g>
<g id="Background_Simple" style="display:none;">
	<path style="display:inline;fill:#F5F5F5;" d="M414.439,114.164l-2.31-3.807c-19.475-32.093-54.687-51.439-91.811-49.092
		c-4.772,0.302-9.524,0.948-14.212,1.951c-33.754,7.225-63.123,32.75-75.297,65.44c-7.16,19.226-9.16,41.361-22.747,56.622
		c-17.682,19.861-47.702,20.484-74.096,19.661s-56.434-0.121-74.03,19.818c-11.02,12.487-14.523,30.245-13.634,46.969
		c2.353,44.275,33.204,83.864,72.44,103.542c39.236,19.678,85.431,21.44,128.372,12.784
		c60.155-12.126,117.362-45.428,151.748-96.863C433.249,239.754,441.951,169.679,414.439,114.164z"/>
</g>
<g id="Desk">
	<g>
		<path style="fill:#263238;" d="M477.555,478.217c0,0.144-101.888,0.26-227.545,0.26c-125.7,0-227.566-0.117-227.566-0.26
			s101.866-0.26,227.566-0.26C375.667,477.957,477.555,478.073,477.555,478.217z"/>
	</g>
</g>
<g id="Character_2">
	<g>
		<polygon style="fill:#FF725E;" points="325.125,435.796 323.927,433.983 178.243,429.018 159.613,478.167 334.001,477.962 		"/>
		<polygon style="opacity:0.3;" points="325.125,435.796 323.927,433.983 178.243,429.018 159.613,478.167 334.001,477.962 		"/>
		<g>
			<g>
				<g>
					<path style="fill:#FF725E;" d="M395.013,301.434c-0.066-2.138-1.354-4.03-3.138-5.21
						c-27.882-18.454-48.893-59.352-51.012-93.975c-0.056-1.972-0.118-3.973-0.184-5.989c0-0.008,0-0.017,0-0.025l0,0.001
						c-1.612-49.506-8.902-109.549-15.447-125.553c-12.087-29.562-53.029-32.338-53.029-32.338
						c-54.35-3.889-64.057,37.873-69.543,75.911c-3.412,23.654-16.557,108.155-16.557,108.155l9.99,3.865
						c11.769,34.874,38.27,63.078,72.715,76.049c10.02,3.773,18.502,5.287,22.483,2.042c15.824,16.04,35.63,28.161,57.193,34.721
						c8.778,2.67,17.978,4.455,27.113,3.6c5.932-0.555,12.187-2.515,15.724-7.309c3.047-4.13,3.466-10.037,1.032-14.556
						c-2.434-4.519-7.595-7.42-12.721-7.149C381.691,306.992,395.245,308.958,395.013,301.434z"/>
				</g>
				<g style="opacity:0.3;">
					<path d="M395.013,301.434c-0.066-2.138-1.354-4.03-3.138-5.21c-27.882-18.454-48.893-59.352-51.012-93.975
						c-0.056-1.972-0.118-3.973-0.184-5.989c0-0.008,0-0.017,0-0.025l0,0.001c-1.612-49.506-8.902-109.549-15.447-125.553
						c-12.087-29.562-53.029-32.338-53.029-32.338c-54.35-3.889-64.057,37.873-69.543,75.911
						c-3.412,23.654-16.557,108.155-16.557,108.155l9.99,3.865c11.769,34.874,38.27,63.078,72.715,76.049
						c10.02,3.773,18.502,5.287,22.483,2.042c15.824,16.04,35.63,28.161,57.193,34.721c8.778,2.67,17.978,4.455,27.113,3.6
						c5.932-0.555,12.187-2.515,15.724-7.309c3.047-4.13,3.466-10.037,1.032-14.556c-2.434-4.519-7.595-7.42-12.721-7.149
						C381.691,306.992,395.245,308.958,395.013,301.434z"/>
				</g>
				<g>
					<g>
						<path style="fill:#FF725E;" d="M279.435,53.716l-3.401-3.241l-36.745,14.809c-5.316,0.294-9.524,4.607-9.685,9.93
							l0.323,119.724c-0.047,8.119,1.58,15.15,6.482,21.622l5.16,6.813c11.767,15.535,35.972,14.257,45.288-2.86
							c0.651-1.196,1.103-2.245,1.299-3.096c0.197-1.067,0.487-1.77,0.547-2.677c1.094-9.633,1.156-17.984,1.156-17.984
							c0.655-10.576,0.871-14.915,0.872-14.816c0,0,22.506-2.587,28.59-31.476c3.026-14.367,2.455-34.133,1.604-53.587
							C319.749,69.953,301.075,53.689,279.435,53.716z"/>
					</g>
					<g style="opacity:0.3;">
						<g>
							<g>
								<g>
									<g>
										<g>
											<g>
												<g>
													<g>
														<path d="M271.903,113.005c-0.029,1.976-1.726,3.58-3.79,3.587c-2.06,0.008-3.71-1.584-3.681-3.56
															c0.03-1.976,1.727-3.582,3.786-3.59C270.282,109.435,271.932,111.029,271.903,113.005z"/>
													</g>
												</g>
											</g>
										</g>
									</g>
								</g>
							</g>
						</g>
					</g>
					<g style="opacity:0.3;">
						<g>
							<g>
								<g>
									<g>
										<g>
											<g>
												<g>
													<g>
														<path d="M309.887,114.027c-0.029,1.976-1.727,3.58-3.79,3.588c-2.06,0.008-3.71-1.584-3.681-3.56
															c0.029-1.975,1.727-3.582,3.786-3.589C308.266,110.457,309.916,112.052,309.887,114.027z"/>
													</g>
												</g>
											</g>
										</g>
									</g>
								</g>
							</g>
						</g>
					</g>
					<g style="opacity:0.3;">
						<g>
							<g>
								<g>
									<g>
										<g>
											<g>
												<g>
													<g>
														<g>
															<path d="M317.083,104.57c-0.488,0.464-3.212-1.771-7.232-1.963c-4.012-0.248-7.066,1.672-7.476,1.158
																c-0.204-0.229,0.313-1.084,1.643-1.955c1.311-0.867,3.513-1.664,6.016-1.529c2.503,0.14,4.562,1.167,5.725,2.171
																C316.947,103.461,317.322,104.363,317.083,104.57z"/>
														</g>
													</g>
												</g>
											</g>
										</g>
									</g>
								</g>
							</g>
						</g>
					</g>
					<g style="opacity:0.3;">
						<g>
							<g>
								<g>
									<g>
										<g>
											<g>
												<g>
													<g>
														<g>
															<path d="M276.299,104.986c-0.534,0.411-3.018-2.093-6.993-2.695c-3.965-0.66-7.199,0.936-7.556,0.383
																c-0.178-0.249,0.418-1.047,1.836-1.776c1.394-0.729,3.665-1.296,6.14-0.904c2.475,0.396,4.418,1.63,5.473,2.748
																C276.274,103.869,276.557,104.805,276.299,104.986z"/>
														</g>
													</g>
												</g>
											</g>
										</g>
									</g>
								</g>
							</g>
						</g>
					</g>
					<g style="opacity:0.3;">
						<g>
							<g>
								<g>
									<g>
										<g>
											<g>
												<g>
													<g>
														<path d="M290.34,134.241c-0.008-0.229,2.512-0.535,6.586-0.85c1.031-0.055,2.013-0.21,2.221-0.901
															c0.279-0.73-0.095-1.857-0.532-3.076c-0.841-2.532-1.72-5.186-2.644-7.967c-3.656-11.337-6.249-20.639-5.791-20.781
															c0.458-0.144,3.794,8.93,7.451,20.267c0.876,2.794,1.716,5.458,2.513,8.007c0.33,1.186,0.932,2.542,0.33,4.055
															c-0.315,0.753-1.096,1.271-1.763,1.416c-0.668,0.168-1.245,0.15-1.755,0.154
															C292.872,134.579,290.343,134.47,290.34,134.241z"/>
													</g>
												</g>
											</g>
										</g>
									</g>
								</g>
							</g>
						</g>
					</g>
					<g style="opacity:0.2;">
						<g>
							<g>
								<g>
									<g>
										<g>
											<g>
												<g>
													<path d="M290.731,181.938c0,0-19.654,0.281-38.479-12.358c0,0,8.795,20.65,38.078,19.386L290.731,181.938z"/>
												</g>
											</g>
										</g>
									</g>
								</g>
							</g>
						</g>
					</g>
					<g>
						<g>
							<g>
								<g>
									<g>
										<g>
											<g>
												<g>
													<path style="fill:#FF725E;" d="M288.154,143.842c-1.35-1.983-3.829-3.16-6.357-3.015
														c-1.753,0.101-3.558,0.853-4.689,2.22c-1.131,1.367-1.454,3.372-0.559,4.774c1.009,1.579,3.257,2.045,5.202,1.596
														c1.946-0.449,3.659-1.629,5.29-2.808c0.451-0.327,0.912-0.668,1.207-1.131c0.295-0.463,0.384-1.084,0.069-1.496"/>
												</g>
											</g>
										</g>
									</g>
								</g>
							</g>
						</g>
					</g>
					<g style="opacity:0.2;">
						<g>
							<g>
								<g>
									<g>
										<g>
											<g>
												<g>
													<path d="M288.154,143.842c-1.35-1.983-3.829-3.16-6.357-3.015c-1.753,0.101-3.558,0.853-4.689,2.22
														c-1.131,1.367-1.454,3.372-0.559,4.774c1.009,1.579,3.257,2.045,5.202,1.596c1.946-0.449,3.659-1.629,5.29-2.808
														c0.451-0.327,0.912-0.668,1.207-1.131c0.295-0.463,0.384-1.084,0.069-1.496"/>
												</g>
											</g>
										</g>
									</g>
								</g>
							</g>
						</g>
					</g>
					<g style="opacity:0.3;">
						<g>
							<g>
								<g>
									<g>
										<path d="M279.454,90.463c-0.791,0.854-4.291-1.186-8.861-2.496c-4.546-1.403-8.59-1.609-8.786-2.757
											c-0.075-0.541,0.936-1.232,2.766-1.609c1.817-0.381,4.451-0.361,7.184,0.45c2.732,0.816,4.948,2.239,6.261,3.552
											C279.343,88.92,279.813,90.051,279.454,90.463z"/>
									</g>
								</g>
							</g>
						</g>
					</g>
					<g style="opacity:0.3;">
						<g>
							<g>
								<g>
									<g>
										<path d="M314.45,94.985c-0.633,0.967-3.472,0.241-6.798,0.46c-3.334,0.103-6.089,1.1-6.811,0.198
											c-0.321-0.44,0.05-1.388,1.211-2.348c1.144-0.956,3.115-1.819,5.404-1.932c2.289-0.108,4.333,0.56,5.562,1.401
											C314.266,93.608,314.726,94.516,314.45,94.985z"/>
									</g>
								</g>
							</g>
						</g>
					</g>
					<g>
						<path style="fill:#FF725E;" d="M230.338,126.308c0,0,20.584,6.406,32.231-44.395c3.983-17.371,20.086-31.438,20.086-31.438
							l-6.531-1.965c0,0-40.591,11.435-41.273,11.947c-0.683,0.512-10.24,20.993-10.24,20.993L230.338,126.308z"/>
					</g>
					<g>
						<path style="fill:#FF725E;" d="M235.41,124.416c0.103-2.169-2.147-7.407-4.272-7.849c-5.674-1.178-16.006-1.236-16.83,13.284
							c-1.126,19.848,19.034,16.885,19.101,16.318C233.461,145.725,235.052,131.905,235.41,124.416z"/>
					</g>
					<g style="opacity:0.3;">
						<path d="M227.772,138.305c-0.083-0.069-0.359,0.222-0.958,0.457c-0.585,0.228-1.576,0.353-2.588-0.094
							c-2.053-0.888-3.63-4.317-3.523-7.901c0.051-1.81,0.528-3.508,1.249-4.897c0.688-1.417,1.685-2.379,2.752-2.506
							c1.063-0.184,1.775,0.491,1.987,1.063c0.235,0.571,0.086,0.96,0.189,0.999c0.052,0.054,0.445-0.308,0.331-1.135
							c-0.06-0.4-0.266-0.881-0.711-1.289c-0.454-0.414-1.143-0.651-1.884-0.614c-1.537,0.02-2.994,1.35-3.786,2.873
							c-0.877,1.526-1.455,3.433-1.512,5.464c-0.1,4.007,1.735,7.866,4.558,8.858c1.375,0.443,2.564,0.088,3.192-0.346
							C227.709,138.783,227.839,138.345,227.772,138.305z"/>
					</g>
				</g>
				<g style="opacity:0.3;">
					<path d="M230.338,126.308c0,0,20.584,6.406,32.231-44.395c3.983-17.371,20.086-31.438,20.086-31.438l-6.531-1.965
						c0,0-40.591,11.435-41.273,11.947c-0.683,0.512-10.24,20.993-10.24,20.993L230.338,126.308z"/>
				</g>
				<g>
					<g>
						<g>
							<g>
								<g>
									<g>
										<g>
											<g>
												<g>
													<path style="fill:#FF725E;" d="M278.373,136.429c0.655-0.006,0.445,4.357,4.024,7.641
														c3.57,3.293,8.246,3.037,8.249,3.648c0.047,0.277-1.078,0.796-3.043,0.751c-1.928-0.03-4.709-0.79-6.898-2.798
														c-2.183-2.013-3.036-4.596-3.095-6.393C277.535,137.445,278.076,136.388,278.373,136.429z"/>
												</g>
											</g>
										</g>
									</g>
								</g>
							</g>
						</g>
					</g>
				</g>
				<g style="opacity:0.3;">
					<g>
						<g>
							<g>
								<g>
									<g>
										<g>
											<g>
												<g>
													<path d="M278.373,136.429c0.655-0.006,0.445,4.357,4.024,7.641c3.57,3.293,8.246,3.037,8.249,3.648
														c0.047,0.277-1.078,0.796-3.043,0.751c-1.928-0.03-4.709-0.79-6.898-2.798c-2.183-2.013-3.036-4.596-3.095-6.393
														C277.535,137.445,278.076,136.388,278.373,136.429z"/>
												</g>
											</g>
										</g>
									</g>
								</g>
							</g>
						</g>
					</g>
				</g>
			</g>
			<g>
				<g>
					<g>
						<g>
							<path style="fill:#FF725E;" d="M434.289,137.71c0,0,26.535,53.385,31.04,64.598c3.902,9.712,25.458,55.203,18.793,67.825
								c-6.666,12.621-12.585,11.964-21.874,12.471c-9.288,0.507-69.718-1.982-85.384-2.635
								c-19.939-0.831-41.862-6.489-41.862-6.489l10.282-54.69l79.883,14.859l0,0l-13.498-86.793L434.289,137.71z"/>
						</g>
						<g>
							<path style="fill:#FF725E;" d="M434.443,138.106c0,0-4.606-8.172-7.456-10.132c-2.85-1.959-26.005-22.265-26.005-22.265
								s-9.084-9.618-11.578-9.084c-2.493,0.534-26.183,16.387-26.361,18.881c-0.178,2.494,1.069,3.919,2.494,4.275
								c1.425,0.356-0.712,1.959,3.028,5.7c0,0-3.562-0.178-3.384,3.206c0.178,3.384,0,8.015,2.315,8.193
								c2.316,0.178,9.618,2.316,9.975-1.603l0.712-1.603c0,0,6.234,4.453,11.934,6.769c5.7,2.316,14.784,2.137,14.784,2.137
								s2.494,3.741,6.769,4.275C415.943,147.389,434.443,138.106,434.443,138.106z"/>
						</g>
						<g style="opacity:0.3;">
							<g>
								<path d="M398.938,123.478c-0.073-0.06-0.862,0.843-1.242,2.678c-0.397,1.811-0.181,4.491,1.065,7.037
									c1.249,2.535,2.994,4.397,4.267,5.655c1.293,1.255,2.167,1.941,2.253,1.856c0.095-0.093-0.621-0.947-1.778-2.299
									c-1.141-1.357-2.745-3.23-3.916-5.614c-1.161-2.378-1.459-4.828-1.25-6.535
									C398.526,124.533,399.078,123.549,398.938,123.478z"/>
							</g>
						</g>
						<g style="opacity:0.3;">
							<g>
								<path d="M388.037,128.183c-0.045,0.034-0.018,0.196,0.194,0.386c0.21,0.186,0.62,0.332,1.099,0.304
									c0.969-0.052,2.147-0.677,3.016-1.779c0.87-1.103,1.142-2.401,1.103-3.291c-0.052-0.906-0.344-1.399-0.451-1.365
									c-0.135,0.034-0.085,0.553-0.198,1.334c-0.124,0.774-0.447,1.83-1.179,2.758c-0.712,0.918-1.68,1.525-2.377,1.7
									C388.517,128.434,388.138,128.107,388.037,128.183z"/>
							</g>
						</g>
						<g style="opacity:0.3;">
							<g>
								<path d="M396.915,105.519c0.042-0.025-0.843-0.429-2.267,0.181c-0.693,0.298-1.455,0.876-2.12,1.7
									c-0.68,0.819-1.272,1.844-1.987,2.915c-1.423,2.157-3.21,4.666-5.382,7.3c-1.083,1.319-2.264,2.665-3.532,4.022
									c-0.631,0.684-1.343,1.414-1.757,2.431c-0.451,1.022-0.238,2.307,0.343,3.206c0.56,0.93,1.322,1.627,2.032,2.281
									c0.719,0.656,1.445,1.282,2.177,1.875c1.485,1.175,2.888,2.277,4.455,3.16c0.789,0.421,1.68,0.725,2.588,0.712
									c0.908-0.012,1.735-0.325,2.43-0.725c1.371-0.832,2.443-1.877,3.118-3.09c0.678-1.209,0.725-2.607,0.279-3.624
									c-0.419-1.058-1.387-1.626-2.149-1.693c-0.776-0.093-1.375,0.147-1.685,0.396c-0.319,0.249-0.403,0.451-0.384,0.462
									c0.03,0.096,0.607-0.755,2.011-0.505c0.665,0.12,1.412,0.617,1.73,1.531c0.335,0.891,0.261,2.069-0.369,3.116
									c-0.614,1.042-1.674,2.025-2.923,2.742c-0.629,0.344-1.336,0.585-2.062,0.582c-0.727-0.003-1.47-0.257-2.184-0.65
									c-1.415-0.82-2.855-1.959-4.285-3.111c-0.715-0.587-1.425-1.206-2.129-1.852c-0.703-0.647-1.397-1.302-1.861-2.078
									c-0.472-0.769-0.607-1.623-0.281-2.402c0.311-0.787,0.938-1.473,1.565-2.152c1.273-1.38,2.454-2.754,3.53-4.102
									c2.158-2.692,3.908-5.265,5.272-7.485c0.689-1.11,1.238-2.147,1.842-2.946c0.595-0.811,1.254-1.37,1.873-1.696
									C396.063,105.361,396.92,105.611,396.915,105.519z"/>
							</g>
						</g>
						<g style="opacity:0.3;">
							<g>
								<path d="M392.725,122.541c-0.101,0.057-0.012,0.481,0.392,1.033c0.397,0.55,1.148,1.184,2.136,1.545
									c0.99,0.358,1.973,0.354,2.63,0.188c0.665-0.164,1.005-0.432,0.964-0.54c-0.085-0.249-1.591,0.132-3.28-0.511
									C393.861,123.664,392.95,122.404,392.725,122.541z"/>
							</g>
						</g>
						<g style="opacity:0.3;">
							<g>
								<path d="M387.595,102.309c-0.049-0.04-0.532,0.463-1.362,1.407c-0.83,0.944-2.007,2.328-3.447,4.051
									c-1.476,1.788-3.167,3.838-5.019,6.082c-0.942,1.157-1.924,2.364-2.94,3.611c-0.999,1.254-2.136,2.527-2.983,4.109
									c-0.855,1.528-1.255,3.577-0.377,5.201c0.835,1.596,2.225,2.527,3.373,3.431c2.389,1.778,4.402,3.489,6.378,4.704
									c1.001,0.578,2.032,0.937,2.986,0.963c0.943,0.025,1.744-0.215,2.312-0.548c1.165-0.692,1.302-1.537,1.265-1.517
									c-0.077-0.06-0.331,0.678-1.43,1.2c-0.537,0.255-1.277,0.421-2.118,0.352c-0.833-0.067-1.765-0.431-2.681-1.008
									c-1.811-1.204-3.848-3.012-6.19-4.814c-1.15-0.921-2.425-1.847-3.088-3.165c-0.691-1.309-0.397-2.941,0.383-4.37
									c0.772-1.449,1.871-2.702,2.872-3.975c1.001-1.259,1.969-2.477,2.898-3.645c1.796-2.29,3.435-4.381,4.866-6.206
									c1.375-1.775,2.475-3.222,3.219-4.234C387.256,102.927,387.644,102.348,387.595,102.309z"/>
							</g>
						</g>
						<g style="opacity:0.3;">
							<g>
								<path d="M379.869,104.138c-0.23-0.16-3.139,4.332-8.028,8.645c-1.217,1.088-2.41,2.151-3.327,3.299
									c-0.928,1.136-1.544,2.364-1.82,3.449c-0.581,2.227,0.17,3.598,0.243,3.523c0.156-0.026-0.309-1.36,0.38-3.335
									c0.334-0.978,0.943-2.057,1.849-3.096c0.895-1.05,2.061-2.06,3.289-3.157c2.478-2.2,4.417-4.52,5.664-6.289
									C379.369,105.405,379.968,104.2,379.869,104.138z"/>
							</g>
						</g>
						<g style="opacity:0.3;">
							<g>
								<path d="M368.681,129.526c-0.001,0.325,2.615,0.01,5.434,0.958c1.387,0.5,2.464,1.342,3.089,2.075
									c0.638,0.73,0.884,1.318,1.02,1.273c0.106-0.023,0.08-0.723-0.496-1.658c-0.559-0.93-1.732-1.992-3.3-2.554
									c-1.561-0.558-3.058-0.576-4.092-0.491C369.293,129.22,368.671,129.405,368.681,129.526z"/>
							</g>
						</g>
					</g>
					<g>
						<g>
							<path style="opacity:0.3;" d="M425.377,233.102c-0.105,0.048,0.3,1.24,1.229,3.045c0.925,1.804,2.419,4.199,4.408,6.583
								c1.994,2.381,4.087,4.276,5.698,5.506c1.612,1.234,2.713,1.843,2.779,1.749c0.172-0.229-3.881-3.152-7.772-7.845
								C427.791,237.482,425.633,232.974,425.377,233.102z"/>
						</g>
					</g>
				</g>
				<polygon style="opacity:0.2;" points="366.608,279.174 375.659,224.439 381.85,225.59 374.714,279.861 				"/>
			</g>
			<g>
				<g>
					<g>
						<g>
							<path style="fill:#FF725E;" d="M63.703,116.401c0,0-26.535,53.385-31.04,64.598c-3.902,9.712-25.458,55.203-18.792,67.825
								c6.666,12.622,12.585,11.964,21.874,12.471c9.288,0.507,69.718-1.982,85.384-2.635c19.939-0.831,41.862-6.489,41.862-6.489
								l-10.282-54.69l-79.883,14.859l0,0l13.498-86.793L63.703,116.401z"/>
						</g>
						<g>
							<path style="fill:#FF725E;" d="M63.549,116.798c0,0,4.606-8.172,7.457-10.132c2.85-1.959,26.005-22.265,26.005-22.265
								s9.084-9.618,11.578-9.084c2.494,0.534,26.183,16.387,26.361,18.881c0.178,2.494-1.069,3.919-2.494,4.275
								c-1.425,0.356,0.712,1.959-3.028,5.7c0,0,2.51-0.068,3.384,3.206c0.838,3.138,0.999,6.324-2.315,8.194
								c-2.513,1.418-8.52,2.84-10.62-3.056l-0.067-0.15c0,0-6.234,4.453-11.934,6.769c-5.7,2.316-14.784,2.137-14.784,2.137
								s-2.493,3.741-6.768,4.275C82.049,126.081,63.549,116.798,63.549,116.798z"/>
						</g>
						<g style="opacity:0.3;">
							<g>
								<path d="M99.054,102.169c0.073-0.06,0.862,0.843,1.243,2.678c0.397,1.811,0.181,4.491-1.065,7.037
									c-1.249,2.535-2.994,4.397-4.267,5.655c-1.293,1.255-2.167,1.941-2.253,1.856c-0.095-0.093,0.621-0.947,1.778-2.299
									c1.141-1.357,2.745-3.23,3.916-5.614c1.161-2.378,1.459-4.828,1.25-6.535C99.466,103.224,98.914,102.24,99.054,102.169z"/>
							</g>
						</g>
						<g style="opacity:0.3;">
							<g>
								<path d="M109.955,106.875c0.045,0.034,0.018,0.196-0.194,0.386c-0.21,0.186-0.62,0.332-1.099,0.304
									c-0.969-0.052-2.147-0.677-3.016-1.779c-0.87-1.103-1.142-2.401-1.103-3.291c0.052-0.906,0.344-1.399,0.451-1.365
									c0.135,0.034,0.085,0.553,0.198,1.334c0.124,0.774,0.447,1.83,1.179,2.758c0.711,0.918,1.68,1.525,2.377,1.7
									C109.475,107.125,109.854,106.798,109.955,106.875z"/>
							</g>
						</g>
						<g style="opacity:0.3;">
							<g>
								<path d="M101.077,84.21c-0.042-0.025,0.843-0.429,2.267,0.181c0.693,0.298,1.455,0.876,2.12,1.7
									c0.68,0.819,1.272,1.844,1.986,2.915c1.424,2.157,3.21,4.666,5.382,7.3c1.083,1.319,2.264,2.665,3.532,4.022
									c0.631,0.684,1.343,1.414,1.757,2.431c0.451,1.022,0.238,2.307-0.343,3.206c-0.56,0.93-1.322,1.627-2.032,2.281
									c-0.719,0.656-1.446,1.282-2.177,1.875c-1.485,1.175-2.888,2.277-4.455,3.16c-0.789,0.421-1.68,0.725-2.588,0.712
									c-0.908-0.013-1.735-0.325-2.431-0.725c-1.371-0.832-2.443-1.877-3.118-3.09c-0.677-1.209-0.725-2.607-0.279-3.624
									c0.419-1.058,1.387-1.626,2.15-1.693c0.776-0.093,1.374,0.147,1.685,0.396c0.319,0.249,0.403,0.451,0.384,0.462
									c-0.03,0.096-0.607-0.755-2.011-0.505c-0.665,0.12-1.412,0.618-1.73,1.531c-0.335,0.891-0.261,2.069,0.369,3.116
									c0.614,1.042,1.674,2.025,2.923,2.742c0.629,0.344,1.336,0.585,2.062,0.582c0.727-0.003,1.47-0.257,2.184-0.65
									c1.415-0.82,2.855-1.959,4.285-3.111c0.715-0.587,1.425-1.206,2.129-1.852c0.703-0.647,1.397-1.302,1.861-2.078
									c0.472-0.769,0.607-1.623,0.282-2.402c-0.311-0.787-0.938-1.473-1.565-2.152c-1.273-1.38-2.454-2.754-3.531-4.102
									c-2.158-2.692-3.907-5.265-5.272-7.485c-0.689-1.11-1.239-2.147-1.842-2.946c-0.594-0.811-1.254-1.37-1.873-1.696
									C101.929,84.052,101.073,84.302,101.077,84.21z"/>
							</g>
						</g>
						<g style="opacity:0.3;">
							<g>
								<path d="M105.267,101.232c0.101,0.057,0.012,0.481-0.392,1.033c-0.397,0.55-1.148,1.184-2.136,1.545
									c-0.989,0.358-1.973,0.354-2.63,0.188c-0.665-0.164-1.005-0.432-0.964-0.54c0.084-0.249,1.591,0.132,3.28-0.511
									C104.132,102.355,105.042,101.095,105.267,101.232z"/>
							</g>
						</g>
						<g style="opacity:0.3;">
							<g>
								<path d="M110.397,81c0.049-0.04,0.532,0.463,1.362,1.407c0.83,0.944,2.007,2.328,3.447,4.051
									c1.476,1.788,3.167,3.838,5.02,6.082c0.942,1.157,1.924,2.364,2.94,3.611c0.999,1.254,2.136,2.527,2.983,4.109
									c0.855,1.528,1.255,3.577,0.377,5.201c-0.835,1.596-2.226,2.527-3.373,3.431c-2.389,1.778-4.402,3.489-6.378,4.704
									c-1.001,0.578-2.032,0.937-2.986,0.963c-0.943,0.026-1.743-0.215-2.312-0.547c-1.165-0.692-1.302-1.537-1.265-1.517
									c0.077-0.06,0.331,0.678,1.43,1.2c0.537,0.255,1.277,0.421,2.118,0.352c0.833-0.067,1.765-0.431,2.682-1.008
									c1.811-1.204,3.848-3.011,6.19-4.814c1.15-0.921,2.424-1.847,3.088-3.165c0.692-1.309,0.397-2.941-0.383-4.37
									c-0.772-1.449-1.871-2.702-2.872-3.975c-1.001-1.259-1.969-2.477-2.898-3.645c-1.796-2.29-3.435-4.381-4.866-6.206
									c-1.375-1.775-2.475-3.222-3.219-4.234C110.736,81.618,110.348,81.04,110.397,81z"/>
							</g>
						</g>
						<g style="opacity:0.3;">
							<g>
								<path d="M118.123,82.829c0.23-0.16,3.139,4.331,8.028,8.645c1.217,1.088,2.41,2.151,3.327,3.299
									c0.928,1.136,1.544,2.364,1.82,3.449c0.58,2.227-0.17,3.598-0.243,3.523c-0.156-0.026,0.309-1.36-0.38-3.335
									c-0.334-0.978-0.943-2.057-1.849-3.096c-0.895-1.05-2.061-2.06-3.289-3.157c-2.478-2.201-4.417-4.52-5.664-6.289
									C118.623,84.096,118.024,82.892,118.123,82.829z"/>
							</g>
						</g>
						<g style="opacity:0.3;">
							<g>
								<path d="M129.834,108.58c0.001,0.325-2.615,0.01-5.434,0.958c-1.387,0.5-2.464,1.342-3.089,2.075
									c-0.638,0.73-0.884,1.318-1.019,1.273c-0.106-0.023-0.08-0.723,0.496-1.658c0.559-0.93,1.732-1.992,3.3-2.554
									c1.561-0.558,3.059-0.576,4.092-0.491C129.223,108.274,129.844,108.459,129.834,108.58z"/>
							</g>
						</g>
					</g>
					<g>
						<g>
							<path style="opacity:0.3;" d="M72.615,211.794c0.105,0.048-0.3,1.24-1.229,3.045c-0.925,1.804-2.419,4.199-4.408,6.583
								c-1.994,2.381-4.087,4.276-5.698,5.506c-1.612,1.234-2.713,1.843-2.779,1.749c-0.172-0.229,3.881-3.152,7.772-7.845
								C70.201,216.173,72.359,211.665,72.615,211.794z"/>
						</g>
					</g>
				</g>
				<polygon style="opacity:0.2;" points="137.562,257.216 127.223,202.221 121.316,203.319 128.379,258.167 				"/>
			</g>
			<g>
				<g>
					<g>
						<path style="fill:#FF725E;" d="M175.941,396.552c0,0-12.981-88.207-12.951-100.973c0.012-5.043-2.682-38.162-2.682-38.162
							l-22.371,2.011l-11.332-60.279c0,0,44.454-7.975,56.405-8.606c11.908-0.629,52.16,5.532,52.16,5.532l71.531,11.29
							c0,0,19.812,3.168,19.606,2.975l49.564,12.824l-9.328,56.408l-29.51-1.145l0.186,35.676
							c-0.385,2.698,1.927,16.189-15.803,37.774l-2.983,37.571l13.302,68.355H167.494L175.941,396.552z"/>
					</g>
				</g>
				<g style="opacity:0.3;">
					<path d="M289.94,204.719c0.154,0.088-0.24,1.112-1.418,2.646c-1.173,1.527-3.151,3.566-6.068,5.467
						c-2.901,1.903-6.76,3.628-11.275,4.523c-1.132,0.178-2.29,0.416-3.482,0.547c-1.195,0.084-2.417,0.221-3.66,0.258
						c-1.243-0.01-2.509-0.001-3.794-0.038c-1.284-0.131-2.586-0.263-3.904-0.397c-5.256-0.767-10.112-2.609-13.995-5.104
						c-3.903-2.48-6.827-5.51-8.877-8.282c-2.057-2.783-3.285-5.307-3.975-7.094c-0.687-1.794-0.841-2.865-0.67-2.916
						c0.172-0.055,0.642,0.874,1.585,2.48c0.945,1.599,2.368,3.886,4.503,6.386c2.129,2.493,5.001,5.189,8.696,7.385
						c3.68,2.21,8.183,3.846,13.109,4.568c4.924,0.727,9.778,0.564,14.017-0.15c4.263-0.715,7.924-2.149,10.772-3.742
						c2.859-1.59,4.917-3.311,6.267-4.569C289.123,205.423,289.785,204.625,289.94,204.719z"/>
				</g>
				<g style="opacity:0.3;">
					<path d="M289.917,298.705c0.279-0.083,1.653,3.351,1.955,9.26c0.153,2.942-0.034,6.482-0.809,10.324
						c-0.769,3.839-2.179,7.965-4.329,11.964c-2.183,3.982-4.876,7.414-7.677,10.15c-2.8,2.744-5.667,4.828-8.218,6.303
						c-5.12,2.966-8.748,3.684-8.83,3.405c-0.155-0.395,3.185-1.721,7.838-4.956c4.638-3.188,10.503-8.603,14.599-16.145
						c4.091-7.54,5.438-15.408,5.585-21.034C290.208,302.315,289.501,298.79,289.917,298.705z"/>
				</g>
			</g>
		</g>
	</g>
</g>
<g id="Character_1">
	<g>
		<g>
			<g>
				<path style="fill:#263238;" d="M75.989,381.869c0.057-1.845,1.168-3.478,2.708-4.497c24.062-15.926,42.194-51.22,44.023-81.1
					c0.049-1.702,0.102-3.428,0.159-5.168c0-0.007,0-0.015,0-0.022l0,0c1.391-42.723,7.683-94.539,13.33-108.351
					c10.431-25.511,45.763-27.907,45.763-27.907c46.904-3.356,55.28,32.684,60.015,65.511c2.944,20.413,14.288,93.337,14.288,93.337
					l-8.621,3.335c-10.157,30.096-33.027,54.436-62.753,65.63c-8.647,3.256-15.967,4.563-19.402,1.762
					c-13.656,13.842-30.748,24.303-49.357,29.964c-7.576,2.304-15.514,3.844-23.398,3.107c-5.119-0.479-10.517-2.17-13.569-6.308
					c-2.629-3.564-2.991-8.661-0.89-12.561c2.1-3.9,6.555-6.403,10.978-6.169C87.486,386.666,75.789,388.362,75.989,381.869z"/>
			</g>
			<g>
				<path style="fill:#FFBF9D;" d="M175.732,168.09l2.935-2.797l31.711,12.78c4.588,0.254,8.219,3.976,8.358,8.569l-0.279,103.321
					c0.04,7.007-1.364,13.074-5.594,18.659l-4.454,5.88c-10.155,13.406-31.043,12.303-39.083-2.468
					c-0.562-1.032-0.952-1.938-1.121-2.672c-0.17-0.921-0.421-1.527-0.472-2.31c-0.944-8.313-0.998-15.52-0.998-15.52
					c-0.565-9.127-0.751-12.871-0.753-12.786c0,0-19.422-2.233-24.673-27.164c-2.611-12.399-2.119-29.456-1.385-46.245
					C140.941,182.103,157.056,168.067,175.732,168.09z"/>
			</g>
			<g>
				<g>
					<g>
						<g>
							<g>
								<g>
									<g>
										<g>
											<g>
												<path style="fill:#263238;" d="M182.232,219.256c0.025,1.705,1.49,3.09,3.271,3.096
													c1.777,0.007,3.202-1.367,3.177-3.072c-0.026-1.705-1.49-3.091-3.267-3.098
													C183.631,216.175,182.207,217.551,182.232,219.256z"/>
											</g>
										</g>
									</g>
								</g>
							</g>
						</g>
					</g>
				</g>
			</g>
			<g>
				<g>
					<g>
						<g>
							<g>
								<g>
									<g>
										<g>
											<g>
												<path style="fill:#263238;" d="M149.452,220.138c0.025,1.705,1.49,3.09,3.271,3.096
													c1.777,0.007,3.202-1.367,3.177-3.072c-0.026-1.705-1.49-3.092-3.267-3.098
													C150.851,217.057,149.427,218.433,149.452,220.138z"/>
											</g>
										</g>
									</g>
								</g>
							</g>
						</g>
					</g>
				</g>
			</g>
			<g>
				<g>
					<g>
						<g>
							<g>
								<g>
									<g>
										<g>
											<g>
												<g>
													<path style="fill:#263238;" d="M143.242,211.977c0.421,0.4,2.772-1.529,6.241-1.694
														c3.462-0.214,6.098,1.443,6.452,0.999c0.176-0.197-0.27-0.935-1.418-1.687c-1.131-0.748-3.032-1.436-5.192-1.32
														c-2.16,0.12-3.937,1.007-4.941,1.873C143.359,211.02,143.036,211.798,143.242,211.977z"/>
												</g>
											</g>
										</g>
									</g>
								</g>
							</g>
						</g>
					</g>
				</g>
			</g>
			<g>
				<g>
					<g>
						<g>
							<g>
								<g>
									<g>
										<g>
											<g>
												<g>
													<path style="fill:#263238;" d="M178.438,212.336c0.461,0.355,2.604-1.806,6.035-2.326
														c3.421-0.57,6.213,0.808,6.52,0.331c0.153-0.215-0.361-0.903-1.585-1.532c-1.202-0.629-3.162-1.118-5.299-0.78
														c-2.136,0.342-3.813,1.406-4.723,2.371C178.46,211.372,178.216,212.18,178.438,212.336z"/>
												</g>
											</g>
										</g>
									</g>
								</g>
							</g>
						</g>
					</g>
				</g>
			</g>
			<g>
				<g>
					<g>
						<g>
							<g>
								<g>
									<g>
										<g>
											<g>
												<path style="fill:#263238;" d="M166.321,237.583c0.007-0.198-2.168-0.462-5.684-0.734
													c-0.89-0.047-1.737-0.181-1.917-0.778c-0.241-0.63,0.082-1.602,0.459-2.654c0.726-2.185,1.484-4.475,2.281-6.875
													c3.155-9.784,5.393-17.811,4.998-17.934c-0.395-0.124-3.275,7.706-6.43,17.49c-0.756,2.411-1.481,4.71-2.169,6.91
													c-0.285,1.023-0.804,2.194-0.285,3.499c0.272,0.65,0.946,1.097,1.521,1.222c0.576,0.145,1.075,0.129,1.514,0.133
													C164.136,237.874,166.318,237.781,166.321,237.583z"/>
											</g>
										</g>
									</g>
								</g>
							</g>
						</g>
					</g>
				</g>
			</g>
			<g>
				<g>
					<g>
						<g>
							<g>
								<g>
									<g>
										<g>
											<path style="fill:#FF9A6C;" d="M165.983,278.745c0,0,16.961,0.243,33.207-10.665c0,0-7.59,17.821-32.861,16.73
												L165.983,278.745z"/>
										</g>
									</g>
								</g>
							</g>
						</g>
					</g>
				</g>
			</g>
			<g>
				<g>
					<g>
						<g>
							<g>
								<g>
									<g>
										<g>
											<path style="fill:#FF9A6C;" d="M168.207,245.868c1.165-1.712,3.305-2.727,5.486-2.602
												c1.513,0.087,3.071,0.736,4.046,1.916c0.976,1.179,1.255,2.91,0.482,4.12c-0.87,1.363-2.811,1.765-4.489,1.377
												c-1.679-0.388-3.158-1.406-4.566-2.423c-0.389-0.282-0.787-0.576-1.042-0.976c-0.255-0.399-0.331-0.935-0.06-1.291"/>
										</g>
									</g>
								</g>
							</g>
						</g>
					</g>
				</g>
			</g>
			<g>
				<g>
					<g>
						<g>
							<g>
								<g>
									<g>
										<g>
											<g>
												<path style="fill:#263238;" d="M176.648,239.471c-0.565-0.005-0.384,3.76-3.473,6.594
													c-3.081,2.842-7.116,2.621-7.119,3.148c-0.041,0.239,0.93,0.687,2.626,0.648c1.664-0.026,4.064-0.682,5.953-2.415
													c1.884-1.737,2.62-3.966,2.671-5.517C177.371,240.348,176.905,239.436,176.648,239.471z"/>
											</g>
										</g>
									</g>
								</g>
							</g>
						</g>
					</g>
				</g>
			</g>
			<g>
				<g>
					<g>
						<g>
							<g>
								<path style="fill:#263238;" d="M175.117,198.816c0.481,0.881,3.841-0.086,7.942-0.218c4.1-0.214,7.528,0.466,7.934-0.452
									c0.177-0.437-0.523-1.228-1.975-1.931c-1.44-0.702-3.648-1.242-6.107-1.14c-2.458,0.106-4.613,0.829-5.988,1.651
									C175.536,197.548,174.904,198.395,175.117,198.816z"/>
							</g>
						</g>
					</g>
				</g>
			</g>
			<g>
				<g>
					<g>
						<g>
							<g>
								<path style="fill:#263238;" d="M143.741,197.076c0.649,0.757,2.998-0.18,5.869-0.363c2.864-0.283,5.333,0.263,5.851-0.589
									c0.226-0.413-0.197-1.182-1.297-1.875c-1.085-0.691-2.868-1.21-4.839-1.051c-1.971,0.162-3.646,0.961-4.604,1.818
									C143.745,195.877,143.453,196.705,143.741,197.076z"/>
							</g>
						</g>
					</g>
				</g>
			</g>
			<g>
				<path style="fill:#263238;" d="M218.102,230.736c0,0-17.764,5.529-27.816-38.313c-3.437-14.991-17.334-27.131-17.334-27.131
					l5.636-1.695c0,0,35.029,9.868,35.619,10.31c0.589,0.442,8.837,18.117,8.837,18.117L218.102,230.736z"/>
			</g>
			<g>
				<path style="fill:#FFBF9D;" d="M213.725,229.104c-0.089-1.872,1.853-6.392,3.687-6.774c4.897-1.017,13.813-1.066,14.524,11.464
					c0.972,17.129-16.426,14.572-16.484,14.082C215.407,247.494,214.034,235.567,213.725,229.104z"/>
			</g>
			<g>
				<path style="fill:#FF9A6C;" d="M220.316,241.09c0.072-0.059,0.31,0.192,0.827,0.394c0.505,0.197,1.36,0.305,2.234-0.081
					c1.772-0.767,3.132-3.726,3.04-6.818c-0.044-1.562-0.455-3.028-1.077-4.226c-0.594-1.223-1.454-2.053-2.375-2.162
					c-0.918-0.159-1.532,0.424-1.715,0.917c-0.203,0.493-0.074,0.829-0.163,0.862c-0.045,0.046-0.384-0.266-0.286-0.98
					c0.052-0.345,0.229-0.76,0.613-1.113c0.392-0.357,0.986-0.562,1.625-0.53c1.327,0.017,2.584,1.165,3.267,2.48
					c0.757,1.317,1.255,2.962,1.305,4.715c0.086,3.458-1.497,6.788-3.933,7.644c-1.186,0.382-2.213,0.076-2.755-0.299
					C220.371,241.503,220.259,241.124,220.316,241.09z"/>
			</g>
			<g>
				<path style="fill:#263238;" d="M206.054,222.352c0.007-0.057-0.945-0.061-2.566-0.518c-1.612-0.451-3.878-1.505-6.1-3.54
					c-1.105-1.017-2.193-2.264-3.182-3.727c-0.971-1.474-1.842-3.161-2.588-5.006c-1.517-3.69-2.489-7.991-3.69-12.457
					c-1.203-4.468-2.508-8.687-3.94-12.439c-1.413-3.758-2.98-7.029-4.464-9.678c-1.489-2.647-2.891-4.672-3.923-6.019
					c-0.506-0.681-0.947-1.173-1.228-1.519c-0.288-0.341-0.445-0.515-0.457-0.505c-0.012,0.01,0.121,0.204,0.385,0.563
					c0.257,0.364,0.675,0.872,1.157,1.567c0.985,1.374,2.339,3.416,3.784,6.069c1.439,2.655,2.967,5.921,4.353,9.67
					c1.404,3.742,2.692,7.95,3.893,12.409c1.198,4.451,2.186,8.772,3.741,12.497c0.766,1.863,1.661,3.566,2.663,5.058
					c1.02,1.479,2.141,2.736,3.279,3.754c2.289,2.04,4.62,3.067,6.269,3.472C205.101,222.416,206.054,222.352,206.054,222.352z"/>
			</g>
			<g>
				<g>
					<path style="fill:#455A64;" d="M229.465,295.439c0.019,0.003,0.082-0.278,0.186-0.828c0.107-0.603,0.25-1.41,0.432-2.435
						c0.364-2.199,0.883-5.328,1.541-9.3l-0.414-0.059c-0.087,0.622-0.182,1.311-0.281,2.023l0.018-0.064
						c-0.108,0.231-0.232,0.498-0.358,0.769l0.43,0.158c2.029-7.008,4.254-16.433,5.493-27.575
						c0.64-5.565,1.003-11.555,1.047-17.837c-0.06-6.261-0.016-12.911-1.693-19.554c-0.691-2.745-1.744-5.378-3.116-7.775
						c-1.37-2.399-3.004-4.582-4.737-6.596c-3.484-4.025-7.236-7.485-10.662-10.921c-6.913-6.802-13.142-12.93-18.39-18.093
						c-5.223-5.099-9.464-9.239-12.446-12.15c-1.449-1.391-2.59-2.486-3.412-3.275c-0.369-0.343-0.665-0.618-0.901-0.838
						c-0.206-0.186-0.316-0.276-0.326-0.266c-0.009,0.01,0.082,0.119,0.27,0.323c0.221,0.234,0.5,0.527,0.846,0.893
						c0.797,0.814,1.904,1.945,3.308,3.379c2.94,2.953,7.121,7.153,12.271,12.326c5.214,5.197,11.403,11.366,18.272,18.212
						c3.413,3.451,7.159,6.929,10.587,10.907c3.428,3.96,6.38,8.648,7.677,14.069c1.645,6.497,1.619,13.12,1.691,19.356
						c-0.029,6.254-0.368,12.219-0.977,17.764c-1.178,11.102-3.315,20.509-5.245,27.525l0.43,0.158
						c0.122-0.272,0.243-0.541,0.348-0.773l0.015-0.032l0.004-0.032c0.088-0.713,0.174-1.404,0.252-2.027l-0.414-0.059
						c-0.575,3.984-1.028,7.124-1.347,9.33c-0.137,1.033-0.245,1.845-0.325,2.452C229.472,295.149,229.447,295.436,229.465,295.439z
						"/>
				</g>
			</g>
			<g>
				<g>
					<path style="fill:#455A64;" d="M242.952,216.25c0.024-0.012-0.08-0.262-0.301-0.725c-0.268-0.54-0.598-1.204-0.999-2.01
						c-0.868-1.746-2.239-4.215-4.035-7.205c-1.785-2.997-4.077-6.466-6.776-10.208c-2.733-3.717-5.894-7.692-9.443-11.664
						c-3.573-3.953-7.191-7.518-10.597-10.632c-3.434-3.082-6.64-5.73-9.431-7.823c-2.782-2.103-5.091-3.729-6.735-4.777
						c-0.759-0.484-1.385-0.883-1.893-1.207c-0.437-0.269-0.674-0.399-0.689-0.376c-0.015,0.023,0.193,0.197,0.601,0.507
						c0.485,0.356,1.082,0.794,1.807,1.326c1.587,1.123,3.841,2.812,6.569,4.964c2.737,2.141,5.892,4.821,9.284,7.918
						c3.363,3.128,6.946,6.69,10.501,10.622c3.531,3.952,6.692,7.892,9.444,11.568c2.718,3.701,5.048,7.123,6.887,10.072
						c1.85,2.941,3.29,5.361,4.238,7.059c0.452,0.778,0.824,1.418,1.127,1.938C242.777,216.037,242.928,216.262,242.952,216.25z"/>
				</g>
			</g>
		</g>
		<g>
			<g>
				<path style="fill:#263238;" d="M220.123,354.315c0.047,0.027,0.464-0.584,1.176-1.709c0.72-1.12,1.746-2.751,3.071-4.727
					c2.624-3.967,6.409-9.349,11.041-14.927c4.654-5.557,9.34-10.191,13.143-13.023c3.765-2.891,6.514-4.021,6.443-4.169
					c-0.021-0.05-0.702,0.23-1.925,0.784c-0.627,0.249-1.318,0.69-2.144,1.166c-0.84,0.456-1.727,1.078-2.703,1.775
					c-3.935,2.752-8.732,7.374-13.415,12.966c-4.661,5.613-8.392,11.072-10.906,15.129c-1.269,2.022-2.227,3.701-2.868,4.871
					C220.403,353.627,220.076,354.288,220.123,354.315z"/>
			</g>
		</g>
		<g>
			<g>
				<path style="fill:#455A64;" d="M234.31,439.363l28.393-126.422l-28.972-15.494c-0.6-0.864-15.274-7.483-15.274-7.483
					c-3.589,5.892-8.535,11.21-15.033,15.873c-17.567,10.608-35.185,1.947-36.688-14.305v0l-16.073,4.516l-31.052,5.358
					c0,0-25.287,65.896-21.938,91.679c3.348,25.783-1.321,70.388-1.321,70.388l-2.607,14.745l26.39,0.542h4.337l58.861-0.326
					l51.37-0.216C228.676,460.805,234.31,439.363,234.31,439.363z"/>
				<g>
					<path style="fill:#FFBF9D;" d="M76.338,450.057c-10.173,0.375-19.969-4.72-24.906-13.623c-1.577-2.845-2.629-6.028-2.629-9.46
						c0-13.729,8.547-33.428,11.385-40.517c4.092-10.221,43.084-80.985,47.772-79.98c4.688,1.004,7.238,1.369,7.238,1.369
						L93.003,408.557l70.61,11.584l-7.75,26.981L76.338,450.057z"/>
				</g>
				<path style="fill:#455A64;" d="M74.506,343.488l35.887,19.041l11.857-61.125c0,0-15.205,1.362-20.218,7.744
					C97.019,315.53,74.506,343.488,74.506,343.488z"/>
				<g>
					<g>
						<path style="fill:#FFBF9D;" d="M118.015,412.66l-9.662-20.991l-4.226-15.523l-12.843-9.963c0,0-4.265,0.496-2.942,3.803
							c1.323,3.307,7.772,9.261,7.772,9.261l3.804,10.614l-6.183-10.779l-9.031-4.465l-8.93,0.661c0,0-1.653,3.969,2.481,4.134
							h4.465l6.78,5.457l4.236,10.253l-6.385-9.922l-9.426-3.349l-5.953,1.53c0,0-1.654,2.646,1.323,2.977
							c2.977,0.331,4.961,0.331,4.961,0.331l5.457,3.172l4.796,10.058l-8.434-6.945L69.16,391.67c0,0-1.819,2.626,0.992,3.619
							c2.811,0.992,8.434,3.969,8.434,3.969l6.076,8.393L118.015,412.66z"/>
						<g>
							<path style="fill:#FF9A6C;" d="M118.015,412.66c-1.259-0.183-12.606-1.829-33.378-4.844l-0.07-0.01l-0.042-0.058
								c-1.899-2.613-3.94-5.42-6.092-8.38l0.064,0.056c-1.903-0.991-3.899-1.996-5.992-2.945c-0.525-0.234-1.054-0.468-1.594-0.683
								c-0.522-0.229-1.113-0.358-1.656-0.736c-0.549-0.344-0.904-1.031-0.88-1.693c0.026-0.664,0.261-1.265,0.611-1.817
								l0.066-0.104l0.131,0.015c3.42,0.404,7.107,0.84,10.916,1.29l0.065,0.008l0.051,0.042c2.641,2.171,5.503,4.523,8.441,6.937
								l-0.36,0.282c-1.505-3.15-3.136-6.564-4.804-10.054l0.097,0.105c-1.697-0.985-3.567-2.07-5.459-3.168l0.124,0.034
								c-1.446-0.017-2.937-0.121-4.466-0.274c-0.711-0.084-1.696-0.111-2.271-0.918c-0.267-0.398-0.295-0.894-0.216-1.312
								c0.085-0.426,0.236-0.808,0.455-1.185l0.049-0.085l0.102-0.026c1.861-0.479,3.898-1.004,5.952-1.533l0.075-0.019l0.074,0.026
								c2.974,1.056,6.182,2.194,9.427,3.346l0.083,0.029l0.048,0.074c2.028,3.15,4.195,6.517,6.387,9.921l-0.459,0.24
								c-0.719-1.741-1.493-3.614-2.271-5.497c-0.658-1.593-1.313-3.179-1.964-4.756l0.077,0.103
								c-2.281-1.836-4.541-3.656-6.779-5.458l0.162,0.057c-0.878,0-1.754,0-2.626-0.001c-0.882-0.025-1.719,0.064-2.648-0.092
								c-0.878-0.146-1.871-0.732-2.116-1.703c-0.271-0.928-0.105-1.847,0.208-2.697l0.054-0.145l0.164-0.012
								c3.015-0.222,5.992-0.441,8.93-0.658l0.069-0.005l0.062,0.031c3.059,1.514,6.069,3.004,9.029,4.47l0.068,0.033l0.037,0.066
								c2.109,3.683,4.168,7.279,6.175,10.783l-0.432,0.2c-1.304-3.65-2.567-7.182-3.794-10.617l0.06,0.091
								c-2.289-2.177-4.442-4.378-6.259-6.777c-0.458-0.596-0.863-1.23-1.233-1.883c-0.338-0.664-0.645-1.407-0.569-2.208
								c0.052-0.818,0.646-1.481,1.279-1.862c0.652-0.384,1.352-0.598,2.082-0.708l0.081-0.012l0.07,0.054
								c4.632,3.605,8.892,6.922,12.826,9.985l0.048,0.037l0.016,0.058c1.582,5.864,2.969,11.008,4.189,15.533l-0.008-0.022
								C114.451,404.79,117.586,411.713,118.015,412.66c-0.44-0.941-3.661-7.826-9.792-20.931l-0.005-0.01l-0.003-0.012
								c-1.241-4.519-2.652-9.656-4.261-15.513l0.063,0.095c-3.944-3.049-8.216-6.352-12.859-9.942l0.151,0.042
								c-0.656,0.099-1.335,0.31-1.91,0.655c-0.566,0.351-1.036,0.885-1.075,1.549c-0.077,1.34,0.893,2.615,1.729,3.784
								c1.79,2.354,3.946,4.551,6.218,6.702l0.042,0.04l0.019,0.052c1.234,3.432,2.502,6.962,3.813,10.61l-0.432,0.2
								c-2.012-3.502-4.076-7.095-6.19-10.774l0.105,0.099c-2.961-1.462-5.973-2.949-9.034-4.46l0.131,0.025
								c-2.938,0.219-5.915,0.44-8.929,0.665l0.218-0.157c-0.277,0.738-0.417,1.611-0.19,2.345c0.196,0.762,0.933,1.202,1.723,1.35
								c0.785,0.138,1.697,0.061,2.556,0.082c0.871,0,1.744,0,2.62-0.001h0.091l0.071,0.057c2.239,1.802,4.5,3.621,6.781,5.456
								l0.052,0.042l0.025,0.062c0.651,1.576,1.307,3.163,1.965,4.755c0.778,1.883,1.552,3.757,2.271,5.497l-0.459,0.24
								c-2.19-3.405-4.357-6.772-6.384-9.923l0.131,0.104c-3.244-1.154-6.451-2.294-9.425-3.352l0.149,0.007
								c-2.055,0.527-4.093,1.05-5.954,1.527l0.151-0.111c-0.35,0.607-0.601,1.433-0.247,1.953c0.173,0.252,0.465,0.438,0.811,0.524
								c0.335,0.096,0.706,0.133,1.091,0.172c1.513,0.153,3.003,0.258,4.415,0.277l0.069,0.001l0.056,0.033
								c1.89,1.1,3.759,2.189,5.455,3.175l0.065,0.038l0.032,0.068c1.662,3.492,3.287,6.909,4.788,10.061l0.454,0.953l-0.814-0.672
								c-2.933-2.42-5.79-4.778-8.427-6.954l0.115,0.049c-3.807-0.46-7.494-0.904-10.913-1.317l0.197-0.089
								c-0.304,0.472-0.524,1.042-0.542,1.585c-0.011,0.545,0.24,1.052,0.702,1.352c0.434,0.314,1.022,0.457,1.569,0.694
								c0.548,0.219,1.08,0.457,1.608,0.694c2.104,0.962,4.097,1.974,6.004,2.976l0.039,0.021l0.026,0.036
								c2.141,2.969,4.171,5.784,6.06,8.404l-0.111-0.068C105.429,410.705,116.759,412.465,118.015,412.66z"/>
						</g>
					</g>
				</g>
				<g style="opacity:0.3;">
					<path d="M234.887,447.338c0,0-8.197,17.183-18.849,22.214c-9.89,4.672-16.164,5.673-27.938,4.822
						c-5.749-0.415-24.486-4.056-31.269-6.002l-45.671-19.601l96.025,15.126L234.887,447.338z"/>
				</g>
				<g>
					<path style="fill:#FFBF9D;" d="M258.317,319.209c0,0,17.18-6.085,17.514,32.423c0.335,38.508-44.87,103.134-52.572,109.496
						c-7.702,6.362-16.502,10.643-39.71,7.203c-29.109-4.315-70.906-19.556-70.906-19.556l25.564-23.811l51.902-2.344l42.191-86.726
						C232.301,335.894,243.919,317.535,258.317,319.209z"/>
				</g>
				<g>
					<g>
						<g>
							<path style="fill:#FFBF9D;" d="M155.863,447.122c0,0,12.868,8.094,27.396,7.679c14.528-0.415,27.396,4.279,29.264,2.97
								c1.868-1.309,2.075-3.592,0-4.63c-2.075-1.038-10.874-2.283-10.874-2.283l-7.597-3.113c0,0,25.943,2.283,28.018,1.245
								c2.076-1.038,4.151-2.49,3.321-4.773c-0.83-2.283-2.906-2.283-2.906-2.283s5.604,0.207,5.396-2.076
								c-0.208-2.283-2.283-4.358-3.113-4.773c-0.83-0.415-11.714-4.84-11.714-4.84l-13.993-2.782l13.442-0.538l11.742,3.271
								c0,0,4.685,0.53,3.642-3.413c-1.043-3.943-15.364-8.302-15.364-8.302l-18.264-1.257c0,0,14.113-2.064,15.566-6.422
								c1.453-4.358-1.038-6.849-1.038-6.849s-9.962,3.943-14.736,4.773c-4.774,0.83-10.585,2.698-18.264,5.811
								c-7.679,3.113-12.175,5.604-12.175,5.604"/>
							<g>
								<path style="fill:#FF9A6C;" d="M163.613,420.141c0,0,0.242-0.156,0.735-0.423s1.231-0.656,2.211-1.144
									c1.959-0.975,4.88-2.353,8.723-3.943c3.848-1.566,8.575-3.485,14.284-5.057c1.429-0.384,2.922-0.733,4.48-1.012
									c1.537-0.288,3.101-0.737,4.696-1.229c3.189-0.999,6.518-2.206,9.975-3.558l0.124-0.049l0.08,0.091
									c1.285,1.46,1.77,3.527,1.465,5.504l-0.142,0.739l-0.207,0.727c-0.161,0.503-0.461,0.958-0.811,1.343
									c-0.724,0.756-1.61,1.316-2.535,1.788c-1.859,0.94-3.88,1.597-5.958,2.161c-2.083,0.555-4.229,1.013-6.443,1.363
									l-0.017-0.442c5.808,0.394,11.922,0.81,18.265,1.24l0.029,0.002l0.025,0.008c3.67,1.174,7.377,2.522,10.947,4.401
									c0.887,0.48,1.761,1.002,2.584,1.621c0.408,0.314,0.809,0.647,1.162,1.043c0.35,0.392,0.687,0.835,0.84,1.394
									c0.113,0.52,0.219,1.062,0.108,1.624c-0.081,0.553-0.394,1.113-0.868,1.44c-0.953,0.657-2.075,0.74-3.15,0.67l-0.016-0.001
									l-0.024-0.007c-3.706-1.031-7.696-2.141-11.743-3.267l0.079,0.009c-4.266,0.172-8.825,0.355-13.442,0.54l0.04-0.514
									c3.176,0.631,6.575,1.307,10,1.988c1.335,0.266,2.667,0.53,3.992,0.794l0.025,0.005l0.022,0.009
									c3.934,1.626,7.826,3.235,11.668,4.823c1.001,0.553,1.667,1.388,2.274,2.26c0.569,0.899,1.046,1.871,1.027,3.036
									c-0.054,0.646-0.575,1.1-1.049,1.337c-0.489,0.258-1.005,0.394-1.516,0.494c-1.028,0.202-2.049,0.25-3.081,0.234l0.01-0.511
									c0.952,0.053,1.811,0.495,2.413,1.189c0.579,0.696,0.955,1.559,0.926,2.496c-0.049,0.943-0.61,1.756-1.257,2.318
									c-0.648,0.586-1.388,1.016-2.131,1.404c-0.166,0.094-0.4,0.201-0.636,0.249c-0.218,0.042-0.433,0.076-0.642,0.091
									c-0.422,0.042-0.837,0.06-1.252,0.07c-0.829,0.023-1.65,0.016-2.468,0c-1.636-0.033-3.255-0.102-4.86-0.182
									c-6.419-0.338-12.609-0.826-18.546-1.336l0.109-0.447c2.586,1.063,5.117,2.103,7.594,3.12l-0.054-0.014
									c2.796,0.416,5.523,0.867,8.169,1.468c0.66,0.157,1.316,0.317,1.961,0.534c0.643,0.203,1.308,0.514,1.788,1.051
									c0.481,0.536,0.7,1.296,0.58,1.997c-0.123,0.697-0.492,1.32-0.979,1.786c-0.121,0.118-0.244,0.233-0.381,0.331
									c-0.118,0.102-0.284,0.211-0.468,0.276c-0.351,0.119-0.682,0.114-1.011,0.127c-0.654-0.005-1.285-0.085-1.909-0.171
									c-1.248-0.176-2.462-0.41-3.66-0.632c-2.394-0.452-4.715-0.893-6.976-1.251c-4.519-0.727-8.79-1.146-12.749-1.209
									c-0.99-0.017-1.958-0.003-2.908,0.011c-0.954-0.015-1.889-0.003-2.8-0.04c-0.909-0.074-1.8-0.122-2.664-0.215
									c-0.86-0.12-1.699-0.238-2.517-0.352c-6.518-1.13-11.341-3.187-14.538-4.648c-1.595-0.757-2.785-1.402-3.578-1.852
									c-0.791-0.454-1.177-0.725-1.177-0.725s0.105,0.053,0.308,0.165c0.215,0.119,0.514,0.283,0.903,0.498
									c0.803,0.429,2.001,1.053,3.602,1.788c3.208,1.418,8.033,3.428,14.523,4.514c0.813,0.109,1.648,0.221,2.504,0.336
									c0.859,0.087,1.744,0.13,2.647,0.199c0.905,0.032,1.832,0.015,2.779,0.026c0.951-0.018,1.926-0.037,2.92-0.025
									c3.977,0.046,8.268,0.45,12.802,1.164c2.268,0.351,4.597,0.786,6.99,1.23c1.197,0.218,2.411,0.449,3.643,0.618
									c0.615,0.083,1.239,0.159,1.855,0.162c0.301-0.011,0.619-0.014,0.876-0.106c0.216-0.073,0.486-0.314,0.693-0.514
									c0.439-0.42,0.754-0.971,0.856-1.558c0.096-0.591-0.081-1.199-0.484-1.652c-0.41-0.453-0.984-0.73-1.607-0.926
									c-0.62-0.207-1.27-0.365-1.923-0.518c-2.622-0.589-5.35-1.035-8.135-1.443l-0.028-0.004l-0.026-0.01
									c-2.478-1.013-5.012-2.048-7.6-3.106l-1.407-0.575l1.516,0.128c5.932,0.499,12.122,0.978,18.53,1.307
									c1.602,0.079,3.218,0.146,4.845,0.176c0.813,0.015,1.63,0.021,2.445-0.002c0.407-0.01,0.816-0.028,1.215-0.069
									c0.203-0.015,0.396-0.046,0.584-0.082c0.17-0.035,0.317-0.097,0.513-0.205c0.722-0.377,1.432-0.795,2.024-1.332
									c0.599-0.523,1.05-1.212,1.089-1.97c0.031-0.748-0.305-1.546-0.804-2.135c-0.498-0.591-1.278-0.969-2.028-1.011l0.01-0.511
									c0.982,0.014,1.995-0.034,2.962-0.227c0.483-0.093,0.963-0.225,1.376-0.445c0.414-0.213,0.749-0.534,0.777-0.936
									c0.02-0.891-0.411-1.887-0.947-2.7c-0.552-0.808-1.247-1.635-2.074-2.08c-3.83-1.582-7.711-3.185-11.633-4.804l0.047,0.014
									c-1.326-0.264-2.657-0.528-3.992-0.794c-3.426-0.681-6.824-1.357-10-1.989l-2.148-0.427l2.189-0.087
									c4.617-0.184,9.176-0.365,13.442-0.535l0.041-0.002l0.039,0.011c4.046,1.129,8.035,2.241,11.741,3.275l-0.039-0.008
									c0.964,0.071,2.038-0.037,2.793-0.571c0.777-0.541,0.831-1.61,0.577-2.532c-0.269-0.871-1.053-1.577-1.82-2.171
									c-0.79-0.597-1.646-1.11-2.518-1.582c-3.513-1.856-7.216-3.21-10.852-4.378l0.053,0.01
									c-6.342-0.442-12.456-0.868-18.262-1.273l-1.971-0.137l1.954-0.305c2.188-0.341,4.331-0.793,6.396-1.339
									c2.062-0.553,4.065-1.202,5.88-2.114c0.903-0.456,1.757-1,2.426-1.695c0.323-0.357,0.582-0.748,0.726-1.191l0.201-0.696
									l0.138-0.705c0.304-1.872-0.182-3.849-1.341-5.176l0.204,0.042c-3.472,1.345-6.807,2.541-10.014,3.532
									c-1.605,0.488-3.176,0.933-4.742,1.219c-1.548,0.27-3.034,0.61-4.458,0.986c-5.691,1.537-10.427,3.426-14.282,4.96
									c-3.85,1.558-6.782,2.904-8.755,3.846c-0.972,0.476-1.716,0.841-2.233,1.095
									C163.873,420.019,163.613,420.141,163.613,420.141z"/>
							</g>
						</g>
					</g>
					<g>
						<g>
							<path style="fill:#FF9A6C;" d="M194.719,437.843c0.002,0.118,1.671,0.17,4.358,0.334c2.687,0.162,6.39,0.476,10.446,1.088
								c4.056,0.618,7.687,1.415,10.301,2.057c2.614,0.64,4.224,1.084,4.261,0.972c0.031-0.093-1.522-0.725-4.116-1.506
								c-2.592-0.782-6.237-1.673-10.328-2.296c-4.091-0.617-7.836-0.847-10.543-0.868
								C196.388,437.602,194.717,437.745,194.719,437.843z"/>
						</g>
					</g>
				</g>
				<g>
					<g>
						<path style="fill:#263238;" d="M103.736,363.233c-0.533,2.509-0.975,4.592-1.315,6.193c-0.293,1.466-0.431,2.282-0.378,2.295
							c0.053,0.012,0.29-0.781,0.675-2.226c0.402-1.586,0.926-3.65,1.557-6.136c1.281-5.189,2.999-12.371,4.85-20.316
							c3.037-13.036,5.487-24.076,6.122-27.514l0.05-0.272l-0.219,0.153c-0.757,0.528-1.095,0.789-1.074,0.821
							c0.021,0.033,0.399-0.165,1.194-0.634l-0.169-0.119c-0.95,3.365-3.63,14.351-6.667,27.387"/>
					</g>
				</g>
				<path style="fill:#455A64;" d="M211.199,366.184l57.975,25.842c0,0,22.508-69.462-10.653-80.655l-16.628,3.886L211.199,366.184z
					"/>
			</g>
			<g>
				<line style="fill:#455A64;" x1="76.338" y1="450.057" x2="155.863" y2="447.122"/>
				<g>
					<path style="fill:#FF9A6C;" d="M155.863,447.122c0.005,0.144-17.794,0.917-39.751,1.728
						c-21.965,0.811-39.769,1.351-39.774,1.207c-0.005-0.144,17.79-0.917,39.755-1.728
						C138.05,447.519,155.858,446.978,155.863,447.122z"/>
				</g>
			</g>
			<g>
				<path style="fill:#FF9A6C;" d="M84.662,407.65c0.009,0.095-1.14,0.201-2.932,0.642c-1.778,0.462-4.212,1.314-6.554,2.861
					c-2.36,1.517-4.118,3.416-5.12,4.947c-1.021,1.53-1.382,2.634-1.475,2.599c-0.034-0.011,0.039-0.29,0.202-0.791
					c0.172-0.495,0.471-1.202,0.962-2.006c0.948-1.623,2.722-3.628,5.146-5.186c2.406-1.59,4.927-2.407,6.757-2.784
					c0.924-0.168,1.674-0.278,2.199-0.291C84.371,407.613,84.66,407.614,84.662,407.65z"/>
			</g>
			<g>
				<path style="fill:#263238;" d="M221.203,357.932c0.017,0.007-0.042,0.194-0.17,0.543c-0.154,0.401-0.346,0.904-0.581,1.52
					c-0.511,1.318-1.29,3.209-2.283,5.533c-1.982,4.649-4.881,11.004-8.3,17.916c-3.423,6.913-6.687,13.085-9.096,17.526
					c-1.204,2.221-2.193,4.01-2.89,5.239c-0.329,0.571-0.598,1.037-0.813,1.41c-0.191,0.319-0.299,0.483-0.315,0.474
					c-0.016-0.008,0.061-0.189,0.222-0.524c0.192-0.384,0.433-0.866,0.727-1.456c0.681-1.319,1.61-3.119,2.744-5.315
					c2.325-4.484,5.535-10.678,8.954-17.585c3.415-6.905,6.363-13.227,8.429-17.833c1.005-2.257,1.829-4.107,2.433-5.463
					c0.272-0.6,0.494-1.091,0.671-1.482C221.094,358.099,221.186,357.926,221.203,357.932z"/>
			</g>
		</g>
	</g>
</g>
<g id="Plant">
	<g>
		<g>
			<g>
				<path style="fill:#455A64;" d="M373.026,430.479c0,0-24.777-28.516-34.126-57.033c-9.35-28.516-4.908-25.244-4.908-25.244
					s12.622,27.701,22.205,41.082c9.583,13.38,26.647,33.015,26.647,33.015L373.026,430.479z"/>
			</g>
			<g>
				<path style="fill:#455A64;" d="M377.964,352.645c-0.799-1.392-2.927-0.669-2.687,0.918c1.51,10.017,4.776,33.523,4.648,48.768
					c-0.167,19.805,0.006,27.461,0.006,27.461h10.312c0,0-1.831-40.942-4.161-53.424
					C384.448,367.615,380.98,357.899,377.964,352.645z"/>
			</g>
			<g>
				<path style="fill:#455A64;" d="M383.585,426.463c0,0,6.491-13.647,8.488-30.789c0.849-7.291-0.666-17.142-2.919-30.29
					c-1.092-6.368-1.339-11.214-1.304-14.575c0.027-2.539,3.378-3.369,4.62-1.154c1.245,2.221,4.847,9.807,5.761,14.563
					c2.496,12.982,5.326,19.473,3.162,31.788c-2.164,12.316-10.152,31.289-10.152,31.289L383.585,426.463z"/>
			</g>
			<g>
				<path style="fill:#455A64;" d="M392.874,427.296c0,0,27.204-58.461,29.089-67.134c1.886-8.673,8.296-28.659,9.05-27.528
					c0.754,1.131,1.885,11.69-3.017,23.757c-4.902,12.067-25.833,72.686-25.833,72.686h-9.289"/>
			</g>
			<g>
				<g>
					<path style="fill:#263238;" d="M380.607,424.68c-0.012,0.016-0.274-0.165-0.763-0.524c-0.483-0.366-1.216-0.88-2.107-1.609
						c-1.811-1.422-4.352-3.586-7.311-6.454c-5.939-5.703-13.329-14.495-19.736-25.331c-6.421-10.833-10.739-21.427-13.472-29.182
						c-1.368-3.883-2.367-7.061-3.014-9.269c-0.333-1.101-0.561-1.965-0.722-2.549c-0.157-0.585-0.23-0.895-0.211-0.901
						c0.019-0.006,0.13,0.293,0.323,0.867c0.205,0.625,0.48,1.463,0.826,2.516c0.713,2.185,1.769,5.34,3.185,9.197
						c2.827,7.705,7.19,18.237,13.585,29.025c6.381,10.79,13.681,19.578,19.525,25.335c2.912,2.894,5.403,5.098,7.166,6.572
						c0.867,0.754,1.577,1.296,2.036,1.691C380.381,424.452,380.619,424.664,380.607,424.68z"/>
				</g>
			</g>
			<g>
				<g>
					<path style="fill:#263238;" d="M383.583,396.634c-0.04,0.003-0.125-0.608-0.244-1.715c-0.129-1.211-0.298-2.787-0.501-4.686
						c-0.431-3.955-1.103-9.409-2.064-15.401c-0.966-5.993-2.037-11.384-2.868-15.275c-0.402-1.867-0.736-3.417-0.993-4.607
						c-0.234-1.088-0.345-1.695-0.306-1.705c0.039-0.01,0.224,0.578,0.525,1.651c0.305,1.072,0.708,2.633,1.174,4.57
						c0.934,3.874,2.073,9.266,3.041,15.273c0.963,6.006,1.572,11.482,1.899,15.454c0.164,1.986,0.271,3.595,0.318,4.709
						C383.614,396.015,383.623,396.631,383.583,396.634z"/>
				</g>
			</g>
			<g>
				<g>
					<path style="fill:#263238;" d="M389.955,349.197c0.019-0.007,0.129,0.249,0.321,0.743c0.207,0.55,0.477,1.272,0.815,2.172
						c0.36,0.942,0.774,2.104,1.167,3.481c0.405,1.373,0.929,2.92,1.323,4.681c0.215,0.877,0.44,1.795,0.674,2.749
						c0.229,0.957,0.39,1.97,0.599,3.009c0.444,2.076,0.719,4.326,1.049,6.689c0.532,4.739,0.822,9.987,0.65,15.493
						c-0.222,5.506-0.887,10.721-1.757,15.41c-0.498,2.333-0.934,4.558-1.525,6.597c-0.282,1.022-0.516,2.02-0.813,2.958
						c-0.302,0.935-0.592,1.834-0.869,2.694c-0.519,1.728-1.152,3.234-1.654,4.574c-0.491,1.345-0.987,2.474-1.413,3.388
						c-0.402,0.873-0.723,1.574-0.969,2.108c-0.227,0.479-0.355,0.726-0.373,0.718c-0.018-0.008,0.074-0.272,0.267-0.766
						c0.22-0.544,0.508-1.258,0.867-2.148c0.393-0.925,0.857-2.063,1.318-3.415c0.471-1.347,1.076-2.857,1.567-4.585
						c0.265-0.859,0.541-1.758,0.829-2.693c0.284-0.938,0.506-1.934,0.777-2.954c0.569-2.034,0.984-4.252,1.465-6.576
						c0.836-4.671,1.482-9.857,1.703-15.332c0.172-5.475-0.101-10.693-0.601-15.41c-0.314-2.352-0.569-4.594-0.991-6.663
						c-0.197-1.036-0.347-2.046-0.563-3.002c-0.22-0.953-0.432-1.869-0.634-2.746c-0.366-1.76-0.861-3.309-1.235-4.686
						c-0.363-1.382-0.744-2.55-1.07-3.501c-0.295-0.913-0.531-1.646-0.711-2.204C390.01,349.473,389.936,349.204,389.955,349.197z"
						/>
				</g>
			</g>
			<g>
				<g>
					<path style="fill:#263238;" d="M430.701,333.808c0.01,0.002,0.002,0.09-0.021,0.262c-0.033,0.206-0.072,0.455-0.121,0.76
						c-0.12,0.665-0.27,1.653-0.536,2.91c-0.525,2.515-1.4,6.134-2.762,10.525c-1.355,4.392-3.213,9.542-5.417,15.198
						c-2.195,5.66-4.746,11.826-7.161,18.39c-2.452,6.553-4.342,12.95-6.117,18.754c-1.759,5.809-3.428,11.022-5.041,15.327
						c-1.597,4.31-3.134,7.705-4.295,9.997c-0.557,1.158-1.058,2.022-1.381,2.616c-0.153,0.268-0.278,0.488-0.381,0.668
						c-0.089,0.149-0.138,0.223-0.147,0.218c-0.009-0.005,0.024-0.088,0.095-0.246c0.089-0.188,0.197-0.416,0.329-0.695
						c0.289-0.611,0.757-1.489,1.281-2.66c1.095-2.317,2.57-5.724,4.113-10.04c1.559-4.311,3.184-9.524,4.914-15.34
						c1.746-5.809,3.625-12.228,6.084-18.8c2.421-6.58,4.987-12.741,7.207-18.385c2.229-5.64,4.122-10.762,5.524-15.127
						c1.408-4.362,2.341-7.955,2.932-10.449c0.299-1.247,0.485-2.225,0.642-2.883c0.071-0.3,0.129-0.546,0.177-0.749
						C430.665,333.892,430.692,333.807,430.701,333.808z"/>
				</g>
			</g>
			<g>
				<g>
					<path style="fill:#455A64;" d="M346.817,320.895c-1.714-1.703-4.565,0.078-3.856,2.388c0.72,2.342,1.809,5.372,3.418,8.79
						c3.74,7.947,14.726,36.464,19.868,52.124c5.142,15.66,12.388,44.878,12.388,44.878l10.981-1.781
						c0,0-10.046-48.006-19.863-65.303C361.865,348.095,353.977,328.01,346.817,320.895z"/>
				</g>
				<g>
					<g>
						<path style="fill:#263238;" d="M369.253,393.993c0.038-0.013,0.237,0.455,0.566,1.316c0.325,0.861,0.767,2.119,1.266,3.687
							c1.011,3.132,2.249,7.508,3.496,12.368c1.243,4.863,2.28,9.286,3.002,12.493c0.329,1.517,0.606,2.792,0.826,3.805
							c0.183,0.901,0.266,1.404,0.227,1.414c-0.039,0.009-0.196-0.475-0.447-1.36c-0.268-1.002-0.605-2.262-1.006-3.762
							c-0.84-3.303-1.944-7.644-3.165-12.446c-1.246-4.855-2.418-9.238-3.326-12.394c-0.434-1.489-0.798-2.74-1.087-3.734
							C369.342,394.5,369.215,394.006,369.253,393.993z"/>
					</g>
				</g>
				<g>
					<g>
						<path style="fill:#263238;" d="M384.152,428.185c-0.01,0.001-0.031-0.098-0.062-0.293c-0.033-0.228-0.074-0.513-0.124-0.865
							c-0.115-0.759-0.218-1.887-0.45-3.325c-0.403-2.885-1.123-7.042-2.302-12.113c-1.172-5.073-2.882-11.039-5.14-17.543
							c-2.252-6.506-5.078-13.536-8.279-20.811c-6.461-14.533-12.914-27.423-17.155-36.955c-2.144-4.755-3.803-8.637-4.896-11.341
							c-0.557-1.348-0.956-2.408-1.235-3.123c-0.124-0.333-0.224-0.603-0.305-0.819c-0.066-0.186-0.095-0.282-0.085-0.286
							c0.009-0.004,0.057,0.086,0.141,0.264c0.094,0.21,0.212,0.472,0.358,0.797c0.323,0.745,0.769,1.775,1.335,3.08
							c1.156,2.675,2.871,6.529,5.061,11.258c4.333,9.48,10.842,22.336,17.313,36.891c3.206,7.286,6.023,14.338,8.254,20.87
							c2.236,6.53,3.91,12.527,5.034,17.626c1.132,5.097,1.791,9.276,2.126,12.175c0.198,1.446,0.264,2.579,0.342,3.343
							c0.027,0.355,0.049,0.641,0.067,0.871C384.161,428.083,384.162,428.185,384.152,428.185z"/>
					</g>
				</g>
				<g>
					<g>
						<path style="fill:#263238;" d="M389.617,427.296c-0.04,0.005-0.17-0.653-0.37-1.845c-0.218-1.289-0.506-2.991-0.855-5.048
							c-0.757-4.254-1.912-10.114-3.573-16.492c-1.645-6.385-3.497-12.064-4.923-16.143c-0.7-1.966-1.279-3.591-1.717-4.823
							c-0.411-1.137-0.621-1.774-0.584-1.789c0.037-0.015,0.318,0.593,0.795,1.706c0.473,1.114,1.134,2.737,1.893,4.766
							c1.527,4.051,3.449,9.731,5.099,16.137c1.667,6.399,2.762,12.292,3.416,16.572c0.313,2.143,0.552,3.879,0.674,5.084
							C389.602,426.623,389.656,427.29,389.617,427.296z"/>
					</g>
				</g>
			</g>
		</g>
		<g>
			<g>
				<rect x="369.293" y="425.718" style="fill:#FF725E;" width="42.863" height="52.223"/>
			</g>
			<g style="opacity:0.3;">
				<rect x="369.293" y="425.718" width="42.863" height="52.223"/>
			</g>
			<g>
				<rect x="360.454" y="425.718" style="fill:#FF725E;" width="38.028" height="52.223"/>
			</g>
		</g>
	</g>
</g>
</svg>
