<svg xmlns="http://www.w3.org/2000/svg" viewBox="0 0 500 500"><g id="freepik--background-complete--inject-16"><rect x="48.97" y="38.78" width="108.25" height="156.9" style="fill:#e0e0e0"></rect><rect x="43.54" y="38.78" width="108.25" height="156.9" style="fill:#f5f5f5"></rect><rect x="56.99" y="55.78" width="81.35" height="122.91" style="fill:#fff"></rect><path d="M138.34,178.69s0-.21,0-.6,0-1,0-1.74c0-1.55,0-3.81,0-6.75,0-5.89,0-14.47-.08-25.32,0-21.67-.07-52.36-.13-88.5l.27.27L57,56.07h0l.3-.29c0,46.37,0,89.12-.06,122.91l-.24-.24,59.21.13,16.36.06,4.3,0,1.48,0s-.48,0-1.43,0l-4.25,0-16.31.06L57,178.92h-.23v-.23c0-33.79,0-76.54-.06-122.91v-.3H57l81.34,0h.27v.27c-.05,36.21-.1,67-.13,88.68,0,10.82-.06,19.38-.07,25.26,0,2.91,0,5.16,0,6.69,0,.74,0,1.31,0,1.71S138.34,178.69,138.34,178.69Z" style="fill:#e0e0e0"></path><path d="M152.09,38.78a17.63,17.63,0,0,1-1.93,2.81c-1.25,1.68-3,4-5.07,6.44s-4,4.66-5.35,6.22a18.37,18.37,0,0,1-2.39,2.43,20.59,20.59,0,0,1,2.07-2.7l5.21-6.32,5.21-6.33A22,22,0,0,1,152.09,38.78Z" style="fill:#e0e0e0"></path><path d="M138.76,178.29A101.11,101.11,0,0,0,152.94,196" style="fill:#fff"></path><path d="M152.94,196a17.59,17.59,0,0,1-2.47-2.25,80.45,80.45,0,0,1-5.35-6,77.33,77.33,0,0,1-4.71-6.55,15.66,15.66,0,0,1-1.65-2.91,23.24,23.24,0,0,1,2,2.68c1.19,1.67,2.87,4,4.83,6.41s3.82,4.59,5.19,6.12A21.94,21.94,0,0,1,152.94,196Z" style="fill:#e0e0e0"></path><path d="M43.53,195.56l14.18-17.5" style="fill:#fff"></path><path d="M57.71,178.06A108.56,108.56,0,0,1,50.85,187a108.4,108.4,0,0,1-7.32,8.56,106.13,106.13,0,0,1,6.86-8.93A107.29,107.29,0,0,1,57.71,178.06Z" style="fill:#e0e0e0"></path><path d="M43.54,38.78A99.39,99.39,0,0,1,50.43,47a102,102,0,0,1,6.42,8.59c-.13.11-3.21-3.58-6.89-8.22A99.25,99.25,0,0,1,43.54,38.78Z" style="fill:#e0e0e0"></path><rect x="85.76" y="80.73" width="27.24" height="77.34" style="fill:#e0e0e0"></rect><polygon points="302.49 52.73 302.49 116.55 210.84 116.55 207.53 53.18 302.49 52.73" style="fill:#e0e0e0"></polygon><rect x="221.74" y="38.97" width="63.23" height="91.65" transform="translate(168.56 338.16) rotate(-90)" style="fill:#fff"></rect><path d="M299.62,116.85H207.1V52.75h92.52ZM208,116h90.78V53.62H208Z" style="fill:#e0e0e0"></path><rect x="217.46" y="61.04" width="71.8" height="47.52" style="fill:#fff"></rect><path d="M289.26,61h-1.38l-3.94,0-14.79,0-51.69.11.21-.21c0,14.52,0,30.6,0,47.51h0l-.23-.23,71.8,0-.18.18c0-14.46.07-26.32.09-34.58,0-4.12,0-7.35.05-9.56,0-1.09,0-1.93,0-2.51s0-.87,0-.87,0,.27,0,.83,0,1.4,0,2.48c0,2.2,0,5.41.05,9.52,0,8.28,0,20.18.09,34.69v.18h-.18l-71.8,0h-.23v-.22h0c0-16.91,0-33,0-47.51v-.21h.21l51.82.1L284,61l3.9,0,1,0Z" style="fill:#e0e0e0"></path><path d="M207.53,53a8,8,0,0,1,1.58,1c.94.68,2.21,1.64,3.59,2.74s2.59,2.15,3.45,2.93A7.58,7.58,0,0,1,217.46,61c-.08.09-2.29-1.72-5-3.92A50.33,50.33,0,0,1,207.53,53Z" style="fill:#e0e0e0"></path><path d="M299.19,53.18a45.59,45.59,0,0,1-4.83,4.11,43.84,43.84,0,0,1-5.1,3.75,43.63,43.63,0,0,1,4.82-4.11A43.41,43.41,0,0,1,299.19,53.18Z" style="fill:#e0e0e0"></path><path d="M299.11,116.42l-10.21-8.28" style="fill:#fff"></path><path d="M288.89,108.14a46.8,46.8,0,0,1,5.26,4,48,48,0,0,1,5,4.31,49,49,0,0,1-5.25-4A49.44,49.44,0,0,1,288.89,108.14Z" style="fill:#e0e0e0"></path><path d="M207.53,116.41a46.09,46.09,0,0,1,4.78-4.06,42.44,42.44,0,0,1,5.05-3.71,43.29,43.29,0,0,1-4.77,4.07A43.53,43.53,0,0,1,207.53,116.41Z" style="fill:#e0e0e0"></path><rect x="246.67" y="61.21" width="15.91" height="45.18" transform="translate(170.83 338.43) rotate(-90)" style="fill:#e0e0e0"></rect><path d="M77.32,466.16c-1.69-1.45-5.46-6-2.56-11.38,1.07-2,3.33-2.93,5.38-3.79a21.91,21.91,0,0,0,5.9-3.06c3.19-2.72,4.08-7.23,6.2-10.86,2.43-4.17,7-7.29,11.79-7.07,5.5.25,10.08,4.74,12.16,9.87s2.16,10.81,2.2,16.34c0,3.06-.11,6.51-2.36,8.57-2.07,1.91-5.19,1.93-8,1.84L78,465.7" style="fill:#f5f5f5"></path><path d="M134.81,383.49H55.76L70,468.41A9.48,9.48,0,0,0,76.75,476L77,476c.24.06.47.14.71.18a9.45,9.45,0,0,0,1.61.19v.08l.38-.06H115a10.37,10.37,0,0,0,1.94-.19,9.54,9.54,0,0,0,8-8.3l6.86-58.51.31-2.33h0l2.72-23.17ZM119.9,437.66h-8.11l.82-24.65H122ZM122.79,413h7.77l-2.89,24.65h-7ZM99.61,465l-.49-21.41H110.8L110.09,465ZM87,443.57H98.34L98.83,465H88.65ZM87.86,465H78.34c-.9-5.78-2.08-13.3-3.35-21.41H86.2Zm-1.34-27.32L84.61,413h13l.57,24.65Zm12.46,0L98.42,413h13.4L111,437.66Zm-.7-30.56-.52-22.82h15L112,407.1Zm-.78,0H84.15l-1.77-22.82H97Zm-14.14,0H69.24c-.5-3.15-1-6.14-1.4-8.82-1.47-9.23-2-12.7-2.34-14H81.59Zm.46,5.91,1.92,24.65H74.06c-.39-2.5-.79-5-1.19-7.57C72,424.28,71,418.46,70.18,413ZM73.26,437.66H65.64L61.5,413h7.88C70.59,420.63,71.92,429.1,73.26,437.66Zm.93,5.91C75.36,451,76.5,458.28,77.55,465H70.22l-3.59-21.41ZM110.88,465l.71-21.41h7.81L117.57,465Zm1.92-57.88.76-22.82h10.9l-1.95,22.82Zm-48-22.82c.31,1.65,1.75,10.63,3.69,22.82H60.51l-3.83-22.82Zm59.7,80.7h-6.11l1.83-21.41H127Zm6.79-57.88h-8l2-22.82h8.68Z" style="fill:#e0e0e0"></path><path d="M367.38,258.83v21.4H363.8v2.32h3.58v14.32h66.77v-13H429.2V281h4.95v-4.25h2.2v-1.94h-2.61v-16Z" style="fill:#f5f5f5"></path><polygon points="416.42 258.9 416.42 296.63 434.15 296.63 434.15 283.6 429.2 283.6 429.2 281 434.15 281.09 434.15 276.83 436.39 276.84 436.35 274.64 433.74 274.57 433.74 258.83 416.42 258.9" style="fill:#e0e0e0"></polygon><path d="M417.68,282.24c0,.14-12.08.24-27,.24s-27-.1-27-.24,12.08-.23,27-.23S417.68,282.11,417.68,282.24Z" style="fill:#e0e0e0"></path><path d="M417.68,280.07c0,.13-12.08.24-27,.24s-27-.11-27-.24,12.08-.24,27-.24S417.68,279.94,417.68,280.07Z" style="fill:#e0e0e0"></path><path d="M421.15,274.22c0,.13-12.09.24-27,.24s-27-.11-27-.24,12.08-.23,27-.23S421.15,274.09,421.15,274.22Z" style="fill:#e0e0e0"></path><path d="M421.48,290.16c0,.13-12.08.24-27,.24s-27-.11-27-.24,12.08-.24,27-.24S421.48,290,421.48,290.16Z" style="fill:#e0e0e0"></path><rect x="277.9" y="356.74" width="8.64" height="103.54" transform="translate(564.45 817.01) rotate(180)" style="fill:#e0e0e0"></rect><path d="M221.08,361.42h123.6A13.41,13.41,0,0,0,331.26,348H234.5a13.41,13.41,0,0,0-13.42,13.41Z" style="fill:#ebebeb"></path><path d="M345.18,361.92H220.58v-.5a13.93,13.93,0,0,1,13.92-13.91h96.76a13.93,13.93,0,0,1,13.92,13.91Zm-123.59-1H344.17a12.94,12.94,0,0,0-12.91-12.41H234.5A12.92,12.92,0,0,0,221.59,360.92Z" style="fill:#e0e0e0"></path><path d="M273.83,361.69c0,.17,3.39.32,7.58.32s7.58-.15,7.58-.32-3.39-.32-7.58-.32S273.83,361.51,273.83,361.69Z" style="fill:#e0e0e0"></path><path d="M244.42,469.65h1.23a36.77,36.77,0,1,1,73.54,0h1.22a38,38,0,0,0-76,0Z" style="fill:#ebebeb"></path><path d="M314.1,471.54a5.7,5.7,0,1,0,5.7-5.7A5.7,5.7,0,0,0,314.1,471.54Z" style="fill:#e0e0e0"></path><path d="M239.05,470.75a5.7,5.7,0,1,0,5.7-5.69A5.7,5.7,0,0,0,239.05,470.75Z" style="fill:#e0e0e0"></path><path d="M244.79,460.27c0,.18,16.53.32,36.92.32s36.93-.14,36.93-.32-16.53-.32-36.93-.32S244.79,460.1,244.79,460.27Z" style="fill:#ebebeb"></path><path d="M348.31,254.24v76.22a18.1,18.1,0,0,1-18.1,18.09H271.48l8-94.31a8.07,8.07,0,0,1,8.07-8.07h52.72A8.07,8.07,0,0,1,348.31,254.24Z" style="fill:#ebebeb"></path><path d="M327.55,348s0-.08.13-.23l.43-.62c.39-.54.95-1.35,1.62-2.42A40.19,40.19,0,0,0,334.1,335a39.24,39.24,0,0,0,1.46-7.21,74.54,74.54,0,0,0,.23-8.46c0-6,0-12.57,0-19.48,0-13.8.07-26.29.09-35.4,0-4.48.08-8.13.1-10.73q0-1.83.06-2.91a6.73,6.73,0,0,1,.06-1,6.73,6.73,0,0,1,.06,1q0,1.08.06,2.91c0,2.6.06,6.25.1,10.73,0,9.11,0,21.6.09,35.4,0,6.91,0,13.49,0,19.48a73.11,73.11,0,0,1-.3,8.52,39.09,39.09,0,0,1-6.13,17c-.71,1.06-1.3,1.85-1.72,2.36A6.08,6.08,0,0,1,327.55,348Z" style="fill:#e0e0e0"></path><path d="M295.57,348.05a11,11,0,0,1,1.86-.11l5.09-.06c4.3,0,10.24,0,16.8,0,3.27,0,6.4,0,9.24.11a30.16,30.16,0,0,1,7.54.82,11.64,11.64,0,0,1,4.53,2.38,7,7,0,0,1,1,1c.21.24.31.38.29.39s-.48-.47-1.43-1.19a12.31,12.31,0,0,0-4.5-2.14,31.49,31.49,0,0,0-7.43-.67l-9.25-.06c-6.55,0-12.48-.13-16.78-.21l-5.09-.14A10.66,10.66,0,0,1,295.57,348.05Z" style="fill:#e0e0e0"></path></g><g id="freepik--Floor--inject-16"><path d="M469.71,476.49c0,.14-98.38.26-219.7.26s-219.72-.12-219.72-.26,98.36-.26,219.72-.26S469.71,476.35,469.71,476.49Z" style="fill:#263238"></path></g><g id="freepik--Desk--inject-16"><rect x="128.18" y="224.21" width="7.32" height="54.81" transform="translate(-119.78 383.46) rotate(-90)" style="fill:#92E3A9"></rect><path d="M111.9,248.26c.19,0,.35,1.54.35,3.43s-.16,3.43-.35,3.43-.34-1.53-.34-3.43S111.71,248.26,111.9,248.26Z" style="fill:#fafafa"></path><path d="M110.71,248.11c.19,0,.34,1.54.34,3.43s-.15,3.43-.34,3.43-.35-1.53-.35-3.43S110.52,248.11,110.71,248.11Z" style="fill:#fafafa"></path><path d="M155,248.26c.19,0,.34,1.54.34,3.43s-.15,3.43-.34,3.43-.35-1.53-.35-3.43S154.82,248.26,155,248.26Z" style="fill:#fafafa"></path><path d="M153.81,248.11c.19,0,.35,1.54.35,3.43S154,255,153.81,255s-.34-1.53-.34-3.43S153.62,248.11,153.81,248.11Z" style="fill:#fafafa"></path><path d="M146.65,251.84c0,.19-6.27.35-14,.35s-14-.16-14-.35,6.28-.34,14-.34S146.65,251.65,146.65,251.84Z" style="fill:#fafafa"></path><rect x="124.28" y="260.84" width="14.64" height="54.81" transform="translate(-156.65 419.85) rotate(-90)" style="fill:#92E3A9"></rect><path d="M159.71,291.45s-.09.07-.3.17a9.73,9.73,0,0,1-.91.42,15.48,15.48,0,0,1-3.72,1.06,9.68,9.68,0,0,1-6-.85,7.91,7.91,0,0,1-2.86-2.6,6.06,6.06,0,0,1-1-4.22,4.5,4.5,0,0,1,1-2.18,2.92,2.92,0,0,1,2.31-1.05,3.33,3.33,0,0,1,2.33,1.26A4.55,4.55,0,0,1,151.6,286a6.67,6.67,0,0,1-1.89,5.19,8.39,8.39,0,0,1-5.27,2.58,14,14,0,0,1-6.12-.76,11.34,11.34,0,0,1-5.34-3.59,5.86,5.86,0,0,1-1.24-3.16,4.12,4.12,0,0,1,1.16-3.29,2.61,2.61,0,0,1,1.72-.75,3.09,3.09,0,0,1,1.79.5,4.79,4.79,0,0,1,2,2.95,7,7,0,0,1-2.16,6.46,10.9,10.9,0,0,1-6.17,2.51,15.28,15.28,0,0,1-6.4-.63,8.86,8.86,0,0,1-4.87-3.79,6.46,6.46,0,0,1-.61-5.81,3,3,0,0,1,2.24-1.89,3.5,3.5,0,0,1,2.76.66,4.57,4.57,0,0,1,1.3,4.94,8.48,8.48,0,0,1-2.76,3.89,12.45,12.45,0,0,1-7.51,2.92,12.2,12.2,0,0,1-9.07-3.66,8.5,8.5,0,0,1-.65-.76,1.22,1.22,0,0,1-.19-.28,13.63,13.63,0,0,0,4.07,3.1,11.89,11.89,0,0,0,5.82,1.21,12.08,12.08,0,0,0,7.21-2.9,8,8,0,0,0,2.57-3.68,4,4,0,0,0-1.14-4.32,3,3,0,0,0-2.3-.55,2.46,2.46,0,0,0-1.79,1.56,5.88,5.88,0,0,0,.6,5.25,8.27,8.27,0,0,0,4.53,3.49,14.71,14.71,0,0,0,6.11.58,10.13,10.13,0,0,0,5.78-2.35,6.25,6.25,0,0,0,2-5.79,4.09,4.09,0,0,0-1.71-2.53,2.12,2.12,0,0,0-2.68.17,3.42,3.42,0,0,0-1,2.74,5.16,5.16,0,0,0,1.1,2.8,10.65,10.65,0,0,0,5,3.38,13.33,13.33,0,0,0,5.82.75,7.7,7.7,0,0,0,4.9-2.36A6.08,6.08,0,0,0,151,286a3.51,3.51,0,0,0-2.84-3.29,2.4,2.4,0,0,0-1.91.86,4,4,0,0,0-.91,1.93,5.56,5.56,0,0,0,.89,3.89,7.57,7.57,0,0,0,2.68,2.5,9.51,9.51,0,0,0,5.81.93,17.13,17.13,0,0,0,3.7-.93C159.27,291.61,159.7,291.43,159.71,291.45Z" style="fill:#fafafa"></path><rect x="121.35" y="243.24" width="25.41" height="49.92" transform="translate(-134.15 402.25) rotate(-90)" style="fill:#263238"></rect><path d="M117.39,256.37c.19,0,.34,5.5.34,12.29s-.15,12.3-.34,12.3-.35-5.51-.35-12.3S117.2,256.37,117.39,256.37Z" style="fill:#e0e0e0"></path><path d="M121.17,256.05c.19,0,.34,5.44.34,12.14s-.15,12.14-.34,12.14-.34-5.44-.34-12.14S121,256.05,121.17,256.05Z" style="fill:#e0e0e0"></path><path d="M153.37,255.23c.19,0,.34,5.73.34,12.79s-.15,12.78-.34,12.78S153,275.08,153,268,153.18,255.23,153.37,255.23Z" style="fill:#e0e0e0"></path><path d="M148.92,255.58c.19,0,.34,5.57.34,12.45s-.15,12.46-.34,12.46-.35-5.58-.35-12.46S148.73,255.58,148.92,255.58Z" style="fill:#e0e0e0"></path><path d="M419.5,416.16l-1.6,29.47a2,2,0,0,1-2,1.89l-53,.38a2,2,0,0,1-2-2L360.73,423a2,2,0,0,1,2-2l32.62,0a1.94,1.94,0,0,0,1.4-.59l5.63-5.62a2,2,0,0,1,1.39-.58l13.75-.1A2,2,0,0,1,419.5,416.16Z" style="fill:#92E3A9"></path><g style="opacity:0.30000000000000004"><path d="M419.5,416.16l-1.6,29.47a2,2,0,0,1-2,1.89l-53,.38a2,2,0,0,1-2-2L360.73,423a2,2,0,0,1,2-2l32.62,0a1.94,1.94,0,0,0,1.4-.59l5.63-5.62a2,2,0,0,1,1.39-.58l13.75-.1A2,2,0,0,1,419.5,416.16Z"></path></g><rect x="360.81" y="417.3" width="57.94" height="34.63" transform="translate(782.74 866.37) rotate(179.58)" style="fill:#f5f5f5"></rect><path d="M423.26,420.17l-4.16,36.14a1.28,1.28,0,0,1-1.26,1.13l-56.47.41a1.26,1.26,0,0,1-1.28-1.17L357,420.6a1.27,1.27,0,0,1,1.26-1.39l63.74-.47A1.28,1.28,0,0,1,423.26,420.17Z" style="fill:#92E3A9"></path><path d="M435.11,410.6l-1.61,29.47a2,2,0,0,1-2,1.89l-53,.38a2,2,0,0,1-2-2l-.17-22.94a2,2,0,0,1,2-2l32.61,0a2,2,0,0,0,1.41-.59l5.62-5.62a2,2,0,0,1,1.4-.58l13.74-.1A2,2,0,0,1,435.11,410.6Z" style="fill:#92E3A9"></path><g style="opacity:0.30000000000000004"><path d="M435.11,410.6l-1.61,29.47a2,2,0,0,1-2,1.89l-53,.38a2,2,0,0,1-2-2l-.17-22.94a2,2,0,0,1,2-2l32.61,0a2,2,0,0,0,1.41-.59l5.62-5.62a2,2,0,0,1,1.4-.58l13.74-.1A2,2,0,0,1,435.11,410.6Z"></path></g><rect x="376.41" y="411.75" width="57.94" height="34.62" transform="translate(813.9 855.13) rotate(179.58)" style="fill:#f5f5f5"></rect><path d="M438.86,414.61l-4.16,36.14a1.28,1.28,0,0,1-1.26,1.13l-56.47.41a1.27,1.27,0,0,1-1.28-1.17L372.58,415a1.28,1.28,0,0,1,1.27-1.39l63.73-.47A1.28,1.28,0,0,1,438.86,414.61Z" style="fill:#92E3A9"></path><g style="opacity:0.30000000000000004"><path d="M438.86,414.61l-4.16,36.14a1.28,1.28,0,0,1-1.26,1.13l-56.47.41a1.27,1.27,0,0,1-1.28-1.17L372.58,415a1.28,1.28,0,0,1,1.27-1.39l63.73-.47A1.28,1.28,0,0,1,438.86,414.61Z"></path></g><path d="M452.69,417.5,451.09,447a2,2,0,0,1-2,1.89l-53,.38a2,2,0,0,1-2-2l-.17-22.94a2,2,0,0,1,2-2l32.61,0a2,2,0,0,0,1.41-.59l5.63-5.62a2,2,0,0,1,1.39-.58l13.75-.1A2,2,0,0,1,452.69,417.5Z" style="fill:#92E3A9"></path><rect x="394" y="418.65" width="57.94" height="34.62" transform="translate(849.12 868.81) rotate(179.58)" style="fill:#f5f5f5"></rect><path d="M456.45,421.51l-4.16,36.14a1.29,1.29,0,0,1-1.27,1.13l-56.46.41a1.28,1.28,0,0,1-1.29-1.17l-3.11-36.08a1.28,1.28,0,0,1,1.27-1.39l63.73-.47A1.29,1.29,0,0,1,456.45,421.51Z" style="fill:#92E3A9"></path><path d="M390.16,426.42v50.13h72.32V426.42Zm23.61,9a3.7,3.7,0,0,1,3.7-3.7h17.7a3.7,3.7,0,0,1,0,7.4h-17.7A3.69,3.69,0,0,1,413.77,435.44Z" style="fill:#455a64"></path><path d="M351.17,426.42v50.13h39V426.42Z" style="fill:#263238"></path><rect x="70.21" y="295.57" width="378.31" height="12.13" style="fill:#263238"></rect><polygon points="88.89 306.21 51.48 476.62 57.81 476.62 102.11 307.7 88.89 306.21" style="fill:#263238"></polygon><polygon points="403.85 305.85 441.26 476.62 434.93 476.62 390.63 307.7 403.85 305.85" style="fill:#263238"></polygon></g><g id="freepik--Plant--inject-16"><path d="M129.51,228.12a26,26,0,0,1-2.66,2.06,62,62,0,0,0-11.5,11.31,25.24,25.24,0,0,1-2.11,2.62,13.51,13.51,0,0,1,1.76-2.88,46.15,46.15,0,0,1,5.3-6.21,47.2,47.2,0,0,1,6.3-5.2A13.68,13.68,0,0,1,129.51,228.12Z" style="fill:#263238"></path><path d="M127.34,219.18a36.5,36.5,0,0,1-1.27,6.45c-.87,3.53-1.7,6.35-1.86,6.3s.4-2.94,1.26-6.46S127.17,219.14,127.34,219.18Z" style="fill:#263238"></path><path d="M126.39,218.69c-.43.19-.56,1.25-.2,1.75a1.3,1.3,0,0,0,1.67.29,1.29,1.29,0,1,0-1.52-2" style="fill:#455a64"></path><path d="M130.92,222.75c.08.16-1,.78-2.31,1.4s-2.5,1-2.58.83,1-.78,2.32-1.39A6.19,6.19,0,0,1,130.92,222.75Z" style="fill:#263238"></path><path d="M130.82,221.74a2.11,2.11,0,0,0-.82,1,.92.92,0,0,0,.49,1.12.86.86,0,0,0,.81-.17,1.66,1.66,0,0,0,.48-.72,1.33,1.33,0,0,0,0-.92.64.64,0,0,0-.75-.41" style="fill:#455a64"></path><path d="M130.79,226.94a1.26,1.26,0,1,1-.27,0" style="fill:#455a64"></path><path d="M103.2,191.84a14.87,14.87,0,0,1,.15,2.09c.05,1.45.11,3.37.19,5.7.13,4.82.26,11.47.37,18.81s.18,14,.2,18.81c0,2.33,0,4.25,0,5.7A14.49,14.49,0,0,1,104,245a13,13,0,0,1-.15-2.09c0-1.45-.11-3.37-.19-5.7-.13-4.81-.26-11.46-.37-18.81s-.18-14-.2-18.81c0-2.33,0-4.25,0-5.7A14.49,14.49,0,0,1,103.2,191.84Z" style="fill:#263238"></path><path d="M112.57,187.83a9.28,9.28,0,1,1-10-8.52A9.28,9.28,0,0,1,112.57,187.83Z" style="fill:#92E3A9"></path><g style="opacity:0.30000000000000004"><path d="M102.94,197.87a17.82,17.82,0,0,1,.07-2.69,15.1,15.1,0,0,0-.94-6.24,8.7,8.7,0,0,0-4.19-4.49,13.4,13.4,0,0,0-2.54-.71,1.63,1.63,0,0,1,.73-.09,5.41,5.41,0,0,1,2,.4,8.48,8.48,0,0,1,4.59,4.65,13.91,13.91,0,0,1,.81,6.51A8.88,8.88,0,0,1,102.94,197.87Z"></path></g><g style="opacity:0.30000000000000004"><path d="M111.59,184.94c0,.18-2.6,0-5.15,1.66s-3.47,4.11-3.63,4a3.07,3.07,0,0,1,.54-1.58,8.44,8.44,0,0,1,2.76-3,8.29,8.29,0,0,1,3.82-1.3C111,184.71,111.6,184.86,111.59,184.94Z"></path></g><g style="opacity:0.30000000000000004"><path d="M107.44,185.67c-.1,0-.22-.61-.8-1.4a4.18,4.18,0,0,0-6.5-.54c-.7.68-.92,1.29-1,1.25s0-.7.7-1.55a4.5,4.5,0,0,1,3.75-1.61A4.55,4.55,0,0,1,107,184C107.54,185,107.5,185.68,107.44,185.67Z"></path></g><g style="opacity:0.30000000000000004"><path d="M104.88,187.45c-.18,0-.38-1.25-1.16-2.58s-1.77-2.15-1.66-2.3,1.35.51,2.2,2S105,187.47,104.88,187.45Z"></path></g><g style="opacity:0.30000000000000004"><path d="M104,184.69c0,.18-.72.43-1.35,1.05s-1.08,1.33-1.24,1.24,0-.9.81-1.69S104,184.54,104,184.69Z"></path></g><path d="M83.44,220.32c.16,0,2.71,7.47,5.7,16.78s5.27,16.92,5.11,17-2.72-7.46-5.7-16.78S83.27,220.38,83.44,220.32Z" style="fill:#263238"></path><path d="M89.37,238.86a69.66,69.66,0,0,1-6-4.45c-3.25-2.52-5.8-4.68-5.69-4.82a48.17,48.17,0,0,1,6.07,4.33C87.05,236.43,89.5,238.72,89.37,238.86Z" style="fill:#263238"></path><path d="M76.26,228.82a1.54,1.54,0,0,0,.25,2.05,1.69,1.69,0,0,0,2.31-.38,1.52,1.52,0,0,0-.57-2.06,1.67,1.67,0,0,0-2.11.56" style="fill:#455a64"></path><path d="M89.38,216.66c.18,0-.38,2.71-1.48,5.85s-1.78,5.71-1.94,5.69.25-2.74,1.35-5.89A53,53,0,0,1,89.38,216.66Z" style="fill:#263238"></path><path d="M89.08,214.34c-.61.45-.64.71-.88,1.43a1.42,1.42,0,0,0,.85,1.83,1.62,1.62,0,0,0,1.63-1.1,2,2,0,0,0,0-1.86,1.08,1.08,0,0,0-1.66-.18" style="fill:#455a64"></path><path d="M78.45,236.55a6.6,6.6,0,0,1,2.45-1.36c1.42-.6,2.62-1,2.69-.8a6.64,6.64,0,0,1-2.45,1.37A6.6,6.6,0,0,1,78.45,236.55Z" style="fill:#263238"></path><path d="M76.24,235.52c-.43.22-.61,1.25-.58,1.68a1.35,1.35,0,0,0,.66,1.05,1.65,1.65,0,1,0-.08-2.73" style="fill:#455a64"></path><path d="M80.7,218.58a2.21,2.21,0,0,0,3.81,1.95,1.65,1.65,0,0,0,.43-1.26,2.55,2.55,0,0,0-2-1.83,2.27,2.27,0,0,0-2.24,1.14" style="fill:#455a64"></path><path d="M112.49,227.82a11.32,11.32,0,0,1-.74,2.46c-.6,1.72-1.29,3.67-2,5.82s-1.48,4.08-2.1,5.8a11.84,11.84,0,0,1-1,2.36c-.18,0,.87-3.83,2.5-8.37S112.32,227.75,112.49,227.82Z" style="fill:#263238"></path><path d="M122.34,223.56a7.94,7.94,0,1,1-6.12-9.42A7.95,7.95,0,0,1,122.34,223.56Z" style="fill:#92E3A9"></path><g style="opacity:0.30000000000000004"><path d="M112,229.45a12.52,12.52,0,0,1,.68-2.19,13.14,13.14,0,0,0,.73-5.34,7.39,7.39,0,0,0-2.32-4.68A12.44,12.44,0,0,0,109.2,216a3.37,3.37,0,0,1,2.17.88,7.33,7.33,0,0,1,2.66,4.95,11.74,11.74,0,0,1-.94,5.56A6.6,6.6,0,0,1,112,229.45Z"></path></g><g style="opacity:0.30000000000000004"><path d="M122.24,221c0,.18-2.14-.58-4.61.16s-3.84,2.5-4,2.36.18-.54.8-1.18a7.06,7.06,0,0,1,6.46-1.9C121.79,220.59,122.27,220.88,122.24,221Z"></path></g><g style="opacity:0.30000000000000004"><path d="M118.66,220.55c-.1,0-.06-.56-.34-1.34a3.57,3.57,0,0,0-5.16-2c-.74.38-1.08.82-1.16.75s.17-.59.93-1.12a3.73,3.73,0,0,1,5.8,2.26C118.94,220,118.72,220.57,118.66,220.55Z"></path></g><g style="opacity:0.30000000000000004"><path d="M116.13,221.38c-.18,0,0-1.12-.37-2.39s-.9-2.19-.76-2.3,1,.72,1.36,2.16S116.28,221.44,116.13,221.38Z"></path></g><g style="opacity:0.30000000000000004"><path d="M116.06,218.9c0,.18-.7.22-1.35.56s-1.21.82-1.34.68.22-.76,1-1.23S116.09,218.75,116.06,218.9Z"></path></g><path d="M94.21,211.17a5.5,5.5,0,0,1,.3,1.32c.17,1,.37,2.19.61,3.62.49,3,1.12,7.28,1.78,12s1.22,8.91,1.6,12c.16,1.43.3,2.65.42,3.64A5.15,5.15,0,0,1,99,245a5.48,5.48,0,0,1-.3-1.31c-.17-1-.37-2.2-.61-3.62-.49-3.06-1.12-7.29-1.78-12s-1.23-8.92-1.6-12c-.17-1.43-.3-2.65-.42-3.64A5.05,5.05,0,0,1,94.21,211.17Z" style="fill:#263238"></path><path d="M101,202.82a7.94,7.94,0,1,1-9.78-5.5A7.93,7.93,0,0,1,101,202.82Z" style="fill:#92E3A9"></path><g style="opacity:0.30000000000000004"><path d="M94.52,212.84a13.36,13.36,0,0,1-.4-2.26,13.38,13.38,0,0,0-1.84-5.07,7.41,7.41,0,0,0-4.23-3.07,14.15,14.15,0,0,0-2.24-.21,3.49,3.49,0,0,1,2.33-.22,7.27,7.27,0,0,1,4.66,3.16,11.79,11.79,0,0,1,1.75,5.35A6.25,6.25,0,0,1,94.52,212.84Z"></path></g><g style="opacity:0.30000000000000004"><path d="M99.66,200.55c0,.18-2.17.48-4,2.29s-2.24,4-2.42,3.93-.09-.57.17-1.42a7,7,0,0,1,4.84-4.68C99.09,200.44,99.65,200.48,99.66,200.55Z"></path></g><g style="opacity:0.30000000000000004"><path d="M96.29,201.86c-.09,0-.31-.47-.92-1a3.78,3.78,0,0,0-2.9-1,3.84,3.84,0,0,0-2.6,1.62c-.48.68-.58,1.22-.68,1.2s-.13-.6.31-1.43a3.74,3.74,0,0,1,6.18-.69C96.29,201.25,96.36,201.85,96.29,201.86Z"></path></g><g style="opacity:0.30000000000000004"><path d="M94.44,203.78c-.17,0-.57-1-1.44-2s-1.81-1.51-1.74-1.68,1.25.16,2.21,1.28S94.6,203.75,94.44,203.78Z"></path></g><g style="opacity:0.30000000000000004"><path d="M93.22,201.61c.08.16-.51.51-.93,1.12S91.6,204,91.42,204s-.16-.77.37-1.57S93.18,201.46,93.22,201.61Z"></path></g><polygon points="95.34 295.64 88.13 243.63 119.16 243.63 112.82 295.64 95.34 295.64" style="fill:#455a64"></polygon><path d="M116.92,264c0,.14-5.82.26-13,.26s-13-.12-13-.26,5.81-.26,13-.26S116.92,263.83,116.92,264Z" style="fill:#fafafa"></path><path d="M116.27,267.32c0,.14-5.56.26-12.43.26s-12.43-.12-12.43-.26,5.57-.27,12.43-.27S116.27,267.17,116.27,267.32Z" style="fill:#fafafa"></path><path d="M115.88,270.51c0,.15-5.38.26-12,.26s-12-.11-12-.26,5.37-.26,12-.26S115.88,270.37,115.88,270.51Z" style="fill:#fafafa"></path><path d="M115.46,274c0,.14-5.18.26-11.56.26s-11.56-.12-11.56-.26,5.17-.26,11.56-.26S115.46,273.85,115.46,274Z" style="fill:#fafafa"></path><path d="M115.07,277.17c0,.14-4.94.26-11,.26s-11-.12-11-.26,4.94-.26,11-.26S115.07,277,115.07,277.17Z" style="fill:#fafafa"></path><path d="M114.45,280.34a106.1,106.1,0,0,1-10.61.26,106.23,106.23,0,0,1-10.62-.26c0-.14,4.75-.26,10.62-.26S114.45,280.2,114.45,280.34Z" style="fill:#fafafa"></path><path d="M114.3,283.52c0,.14-4.62.26-10.32.26s-10.32-.12-10.32-.26a100.39,100.39,0,0,1,10.32-.26A100.39,100.39,0,0,1,114.3,283.52Z" style="fill:#fafafa"></path><path d="M113.91,286.69a92.37,92.37,0,0,1-9.9.26,92.49,92.49,0,0,1-9.91-.26,95.75,95.75,0,0,1,9.91-.26A95.62,95.62,0,0,1,113.91,286.69Z" style="fill:#fafafa"></path></g><g id="freepik--Calendar--inject-16"><rect x="335.36" y="107.73" width="106.31" height="95.11" style="fill:#fafafa"></rect><path d="M441.67,202.85s0-.61,0-1.77,0-2.87,0-5.09c0-4.47,0-11-.06-19.31,0-16.62-.08-40.37-.13-68.95l.25.26-106.3,0h0l.29-.3c0,34.61,0,67.17,0,95.12l-.26-.26,76.89.13,21.69.07,5.74,0h1.48l.51,0h-.48l-1.45,0-5.7,0-21.63.07-77.05.13h-.26v-.26c0-27.95,0-60.51,0-95.12v-.29h.31l106.3,0h.25v.25c-.05,28.65-.1,52.45-.13,69.11,0,8.29-.05,14.79-.06,19.25,0,2.2,0,3.89,0,5S441.67,202.85,441.67,202.85Z" style="fill:#263238"></path><path d="M441.67,202.85s0-.61,0-1.77,0-2.87,0-5.09c0-4.47,0-11-.07-19.31,0-16.62-.07-40.37-.12-68.95l.24.25-106.3,0h0l.28-.29c0,34.61,0,67.17,0,95.12l-.25-.25,76.89.12,21.69.07,5.74,0h1.48l.51,0h-.48l-1.45,0-5.7,0-21.63.06-77.05.13h-.25v-.25c0-27.95,0-60.51,0-95.12v-.28h.3l106.3,0h.24v.24c-.05,28.65-.09,52.45-.12,69.1,0,8.29-.05,14.8-.07,19.26,0,2.2,0,3.89,0,5S441.67,202.85,441.67,202.85Z" style="fill:#263238"></path><path d="M376.12,124.63c0,.16-5.59.29-12.5.29s-12.49-.13-12.49-.29,5.59-.28,12.49-.28S376.12,124.48,376.12,124.63Z" style="fill:#263238"></path><path d="M421.17,131.78c0,.15-15.38.28-34.33.28s-34.34-.13-34.34-.28,15.37-.29,34.34-.29S421.17,131.62,421.17,131.78Z" style="fill:#263238"></path><rect x="351.31" y="143.87" width="4.48" height="4.48" style="fill:#263238"></rect><rect x="362.33" y="143.87" width="4.48" height="4.48" style="fill:#263238"></rect><rect x="373.56" y="143.67" width="4.48" height="4.48" style="fill:#92E3A9"></rect><rect x="384.38" y="143.87" width="4.48" height="4.48" style="fill:#263238"></rect><rect x="395.41" y="143.87" width="4.48" height="4.48" style="fill:#263238"></rect><rect x="406.43" y="143.87" width="4.48" height="4.48" style="fill:#263238"></rect><rect x="417.46" y="143.87" width="4.48" height="4.48" style="fill:#263238"></rect><rect x="351.31" y="153.4" width="4.48" height="4.48" style="fill:#263238"></rect><rect x="362.33" y="153.4" width="4.48" height="4.48" style="fill:#263238"></rect><rect x="373.36" y="153.4" width="4.48" height="4.48" style="fill:#263238"></rect><rect x="384.38" y="153.4" width="4.48" height="4.48" style="fill:#263238"></rect><rect x="395.41" y="153.4" width="4.48" height="4.48" style="fill:#263238"></rect><rect x="406.64" y="153.19" width="4.48" height="4.48" style="fill:#92E3A9"></rect><rect x="417.46" y="153.4" width="4.48" height="4.48" style="fill:#263238"></rect><rect x="351.31" y="162.92" width="4.48" height="4.48" style="fill:#263238"></rect><rect x="362.54" y="162.71" width="4.48" height="4.48" style="fill:#92E3A9"></rect><rect x="373.36" y="162.92" width="4.48" height="4.48" style="fill:#263238"></rect><rect x="384.38" y="162.92" width="4.48" height="4.48" style="fill:#263238"></rect><rect x="395.41" y="162.92" width="4.48" height="4.48" style="fill:#263238"></rect><rect x="406.43" y="162.92" width="4.48" height="4.48" style="fill:#263238"></rect><rect x="417.46" y="162.92" width="4.48" height="4.48" style="fill:#263238"></rect><rect x="351.31" y="172.44" width="4.48" height="4.48" style="fill:#263238"></rect><rect x="362.33" y="172.44" width="4.48" height="4.48" style="fill:#263238"></rect><rect x="373.36" y="172.44" width="4.48" height="4.48" style="fill:#263238"></rect><rect x="384.59" y="172.24" width="4.48" height="4.48" style="fill:#92E3A9"></rect><rect x="395.41" y="172.44" width="4.48" height="4.48" style="fill:#263238"></rect><rect x="406.43" y="172.44" width="4.48" height="4.48" style="fill:#263238"></rect><rect x="417.46" y="172.44" width="4.48" height="4.48" style="fill:#263238"></rect><rect x="351.31" y="181.96" width="4.48" height="4.48" style="fill:#263238"></rect><rect x="362.33" y="181.96" width="4.48" height="4.48" style="fill:#263238"></rect><rect x="373.36" y="181.96" width="4.48" height="4.48" style="fill:#263238"></rect><rect x="384.38" y="181.96" width="4.48" height="4.48" style="fill:#263238"></rect><rect x="395.41" y="181.96" width="4.48" height="4.48" style="fill:#263238"></rect><rect x="406.64" y="181.76" width="4.48" height="4.48" style="fill:#92E3A9"></rect><rect x="417.46" y="181.96" width="4.48" height="4.48" style="fill:#263238"></rect></g><g id="freepik--Character--inject-16"><path d="M210.13,297c.55,7.13,11.57,80,11.57,80L218,405l4.32,64.38L244,467.19l8.09-89.92,7.51-86.38Z" style="fill:#b78876"></path><path d="M245.06,462.47h0s24.73,9.28,25,13.86l-47.89-.19,0-12.52,1.76.41A35.58,35.58,0,0,0,245.06,462.47Z" style="fill:#263238"></path><path d="M269.2,475c0,.15-10.52.26-23.49.26s-23.49-.11-23.49-.26,10.52-.26,23.49-.26S269.2,474.86,269.2,475Z" style="fill:#455a64"></path><path d="M196.08,295.54c.55,7.13,8.27,28.12,8.27,28.12l3.4,90.15.55,54.13L230,465.73l4.91-73.61,3.18-101.23Z" style="fill:#b78876"></path><path d="M238.24,329.5a1.55,1.55,0,0,1,0,.35c0,.25,0,.59,0,1,0,.93-.13,2.24-.22,3.92-.22,3.44-.53,8.36-.91,14.42-.75,12.18-2,29-2.94,47.58s-2,35.39-2.63,47.6c-.36,6.06-.66,11-.86,14.42-.11,1.68-.2,3-.26,3.92,0,.43-.06.76-.08,1a1.26,1.26,0,0,1-.05.34,1.72,1.72,0,0,1,0-.34l0-1c0-.93.1-2.24.17-3.92.16-3.44.4-8.36.69-14.43.64-12.21,1.51-29,2.48-47.62s2.25-35.39,3.09-47.56c.45-6.06.82-11,1.08-14.41.13-1.68.24-3,.32-3.92q.06-.63.09-1A2.15,2.15,0,0,1,238.24,329.5Z" style="fill:#aa6550"></path><path d="M253.64,144.19l9.24,17.9,13.45,26L289,182.29l1.5-3.55c5.18,11.83,20.31,18.91,9,25.16l-38.95,18.23-15.41-27.58Z" style="fill:#92E3A9"></path><path d="M199,81.28a8.46,8.46,0,0,0-.86,7.61c.53,1.39,1.44,2.93.73,4.24s-2.57,1.36-4,1.86a5.62,5.62,0,0,0-3.55,6.28,6.92,6.92,0,0,1,.45,2.77,6.05,6.05,0,0,1-1.66,2.39,7,7,0,0,0,4.11,11.4,9.08,9.08,0,0,1,3.22.74c1.09.67,1.56,2,2.33,3a5.88,5.88,0,0,0,10.58-3.5" style="fill:#263238"></path><path d="M217.33,73.28c-2.58-1.64-3.21-5.44-1.81-8.16a10,10,0,0,1,7.4-4.87,14.09,14.09,0,0,1,12.13,4c1.67,1.71,3,4,5.28,4.74,2,.69,4.19.07,6.28.34a9.48,9.48,0,0,1,6.63,4.78,20.48,20.48,0,0,1,2.35,8.06c.31,2.57.51,5.4,2.29,7.27s4.49,2.22,6.65,3.52a9.12,9.12,0,0,1,2.71,12.44c-.86,1.24-2.09,2.39-2.19,3.9s.8,2.61,1.22,3.93a6.14,6.14,0,0,1-5.26,7.63c-1.79.1-3.71-.6-5.32.2s-2.19,2.73-3.22,4.19a7.67,7.67,0,0,1-9.36,2.42c-1.32-.65-2.57-1.71-4-1.62s-2.61,1.35-4,1.63c-1.89.37-3.68-1-4.8-2.58s-1.9-3.4-3.34-4.67c-1.88-1.68-4.52-2.09-6.89-2.91A19.46,19.46,0,0,1,209,90.3" style="fill:#263238"></path><path d="M211.86,77.39A4.31,4.31,0,0,0,208,81.77h0L210.58,140c.11,6.88,10.16,10.74,17.51,10.57h0c7.43-.18,7.67-3.82,7.77-10.36.15-10.92.14-15,.14-15s9.39-1.58,11.31-13.83c.95-6.1.62-16.08.09-24.25-.48-7.34-5.37-16.35-12.69-15.56Z" style="fill:#b78876"></path><path d="M243.73,94.12a1.57,1.57,0,0,1-1.51,1.59,1.5,1.5,0,0,1-1.62-1.41,1.57,1.57,0,0,1,1.51-1.59A1.5,1.5,0,0,1,243.73,94.12Z" style="fill:#263238"></path><path d="M245.24,92.32c-.19.21-1.38-.67-3.07-.66s-2.93.86-3.11.65.1-.46.64-.86a4.35,4.35,0,0,1,2.49-.77,4.14,4.14,0,0,1,2.45.78C245.16,91.86,245.34,92.23,245.24,92.32Z" style="fill:#263238"></path><path d="M227.1,94.12a1.58,1.58,0,0,1-1.52,1.59A1.5,1.5,0,0,1,224,94.3a1.58,1.58,0,0,1,1.51-1.59A1.5,1.5,0,0,1,227.1,94.12Z" style="fill:#263238"></path><path d="M228.63,92.68c-.2.2-1.39-.68-3.08-.67s-2.93.86-3.11.65.1-.46.65-.85a4.25,4.25,0,0,1,2.49-.78,4.19,4.19,0,0,1,2.45.79C228.54,92.21,228.72,92.58,228.63,92.68Z" style="fill:#263238"></path><path d="M234.79,105.2a10.88,10.88,0,0,1,2.75-.5c.43,0,.84-.13.91-.43a2.21,2.21,0,0,0-.29-1.28l-1.29-3.28c-1.78-4.68-3.07-8.52-2.88-8.59s1.78,3.66,3.57,8.34l1.23,3.3a2.51,2.51,0,0,1,.22,1.69,1.08,1.08,0,0,1-.7.64,3,3,0,0,1-.74.1A10.55,10.55,0,0,1,234.79,105.2Z" style="fill:#263238"></path><path d="M236,125.2a31.14,31.14,0,0,1-16.41-4.34s4.16,8.64,16.41,7.47Z" style="fill:#aa6550"></path><path d="M234.08,109.28a3,3,0,0,0-2.73-1.13,2.83,2.83,0,0,0-1.92,1,1.79,1.79,0,0,0-.13,2,2.05,2.05,0,0,0,2.22.56,6.56,6.56,0,0,0,2.16-1.3,1.9,1.9,0,0,0,.48-.5.58.58,0,0,0,0-.63" style="fill:#aa6550"></path><path d="M229.82,106.38c.27,0,.28,1.82,1.85,3.12s3.53,1.09,3.54,1.35-.43.35-1.26.38a4.57,4.57,0,0,1-2.95-1,4,4,0,0,1-1.44-2.62C229.49,106.82,229.69,106.37,229.82,106.38Z" style="fill:#263238"></path><path d="M229.38,89.71c-.16.46-1.85.25-3.84.49s-3.58.79-3.85.38c-.11-.2.16-.63.81-1.08a6.43,6.43,0,0,1,2.85-1,6.54,6.54,0,0,1,3,.34C229.09,89.14,229.45,89.5,229.38,89.71Z" style="fill:#263238"></path><path d="M244.61,89.24c-.3.39-1.46,0-2.86,0s-2.59.26-2.86-.14c-.12-.2.07-.58.58-1a4.15,4.15,0,0,1,4.61.14C244.58,88.66,244.74,89.06,244.61,89.24Z" style="fill:#263238"></path><path d="M218.58,70.64a8.38,8.38,0,0,0,9.89,8.28c1.87-.34,3.92-1.29,5.54-.29s1.78,3.62,3.29,4.93c2.16,1.87,5.59.11,8.33.93,2.12.62,3.44,2.65,4.85,4.35s3.51,3.32,5.63,2.69a25.63,25.63,0,0,0-.84-5.65,8.37,8.37,0,0,0-3.21-4.6c-.88-.57-1.89-.92-2.71-1.57-1.75-1.42-2.16-3.89-3.25-5.87a9.18,9.18,0,0,0-7-4.64c-2.41-.25-4.9.47-7.25-.12-1.73-.44-3.25-1.56-5-1.9-3.42-.65-6.61,1.81-9.09,4.26" style="fill:#263238"></path><polygon points="208.73 124.9 236.27 128.44 236 137.95 264.43 173.55 256.32 222.13 233.51 213.77 206.2 167.11 206.9 131.11 208.73 124.9" style="fill:#263238"></polygon><path d="M188.63,271.37,202,367.87s27.56,7.75,52.92-3.45l10.45-93.3-27.75-19.18Z" style="fill:#92E3A9"></path><path d="M206.45,129.85l-4.71,7.79s-13.11,5.53-16,12.28,20.68,72.91,20.68,72.91-18,21.71-17.82,48.54c0,0,35.84,11.47,69.64,3.89l-5.53-76.18s-.82-17.62-6.15-24.37S206.45,129.85,206.45,129.85Z" style="fill:#92E3A9"></path><path d="M236.15,132.65,236,138s19.08,30.72,20.32,37c3.05,15.43-2.23,40.93-2.23,40.93l2.23,59.49,10.92-3.78-6.68-59.3L263,198.78s5-22.2,2.46-27.36c-1.91-3.83-7.26-19.13-11.86-27.23a10.14,10.14,0,0,0-8-5.11l-4.23-.36Z" style="fill:#92E3A9"></path><path d="M252.53,194.55a4.41,4.41,0,0,1-.25-.79c-.13-.52-.35-1.29-.66-2.26a44.26,44.26,0,0,0-3.39-8,43.41,43.41,0,0,0-7.69-10.23c-3.4-3.45-8-6.29-12.35-9.81l-.07,0,0-.08v0c-.73-2.53-1.45-5-2.14-7.37l.29.18-5.42,1-.13,0-.09-.09c-2.77-2.9-5.34-5.59-7.56-8.07l-5.77-6.51-3.8-4.24c-.41-.47-.75-.85-1-1.13a3.16,3.16,0,0,1-.33-.41,2.17,2.17,0,0,1,.39.35l1.07,1.07c.93.95,2.26,2.36,3.9,4.15l5.86,6.43c2.23,2.46,4.83,5.13,7.6,8l-.22-.07,5.42-1,.23,0,.06.23c.69,2.37,1.41,4.84,2.15,7.36v0l-.09-.13c4.36,3.49,8.94,6.35,12.37,9.87a43.07,43.07,0,0,1,7.68,10.4,41.09,41.09,0,0,1,3.26,8.09c.28,1,.46,1.77.56,2.3A4.15,4.15,0,0,1,252.53,194.55Z" style="fill:#263238"></path><path d="M257,194.55a4,4,0,0,1,.08-.66c.09-.49.19-1.11.33-1.89.29-1.7.7-4.06,1.2-6.94s1.05-6.43,1.46-10.34c.1-1,.18-2,.23-3a15.34,15.34,0,0,0-.07-3.1c-.26-2.11-.7-4.28-1.15-6.5-.56-2.66-1.15-5.24-1.75-7.69l.18.18-5.82-1.7-.22-.07.06-.22c.32-1.18.63-2.31.92-3.39l.07.22c-3.56-3-6.2-5.82-8.12-7.71-.91-.93-1.64-1.68-2.19-2.23a7,7,0,0,1-.74-.82,5.64,5.64,0,0,1,.84.72c.56.54,1.32,1.25,2.27,2.14,2,1.84,4.66,4.61,8.23,7.57l.1.09,0,.13c-.29,1.09-.58,2.22-.89,3.4l-.16-.29,5.82,1.67.14,0,0,.15c.6,2.45,1.19,5,1.76,7.7.46,2.23.88,4.41,1.15,6.55a16.28,16.28,0,0,1,.06,3.19c-.06,1-.15,2-.25,3-.44,3.93-1.05,7.42-1.57,10.35s-1,5.29-1.37,6.92c-.18.77-.32,1.39-.42,1.87A2.86,2.86,0,0,1,257,194.55Z" style="fill:#263238"></path><path d="M256.32,275.39c-.14,0-.94-16.16-1.79-36.12s-1.41-36.14-1.26-36.14.94,16.16,1.78,36.12S256.46,275.39,256.32,275.39Z" style="fill:#263238"></path><path d="M267.24,271.61a5.18,5.18,0,0,1-.76.33l-2.19.84c-1,.37-2.12.81-3.52,1.21s-2.94,1-4.73,1.39l-2.78.7c-1,.25-2,.41-3,.63-2.1.47-4.37.77-6.77,1.12a114.29,114.29,0,0,1-15.68.8,126.61,126.61,0,0,1-15.65-1.42c-2.38-.4-4.64-.77-6.74-1.25s-4-.91-5.81-1.36-3.36-.92-4.75-1.31-2.58-.79-3.55-1.12l-2.22-.75a4.84,4.84,0,0,1-.77-.3,4.2,4.2,0,0,1,.8.2l2.25.66c1,.3,2.17.66,3.57,1s3,.84,4.76,1.24,3.7.9,5.81,1.29,4.35.81,6.73,1.2a132.08,132.08,0,0,0,15.58,1.37,116.77,116.77,0,0,0,15.61-.76c2.39-.33,4.66-.62,6.75-1.06,1.05-.21,2.07-.36,3-.6L256,275c1.78-.39,3.34-.92,4.74-1.3s2.57-.79,3.53-1.13l2.23-.75A4.05,4.05,0,0,1,267.24,271.61Z" style="fill:#263238"></path><path d="M185.77,149.92s-7.21,12.34,2,28.83,36,53.91,36,53.91a37.48,37.48,0,0,0,10.72,2.59c4.5.28,26.29-11.74,33.31-15.67l1.41-4.44-4.25-7.74-4.49-8.18-25,7.28-26.66-52.91S200.92,142.2,185.77,149.92Z" style="fill:#92E3A9"></path><path d="M196.08,192.17s.11.13.3.4l.85,1.2,3.23,4.63,11.81,17.12,8.14,11.85,1.1,1.61c.41.5.79,1,1.22,1.53a15.48,15.48,0,0,0,3,2.64,12.86,12.86,0,0,0,7.93,2.06,19.58,19.58,0,0,0,2.16-.26c.27-.08.63-.25,1-.39s.68-.29,1-.45c1.35-.62,2.71-1.27,4.08-1.93l8.37-4.09,17.53-8.74-.13.15.22-.69c.4-1.26.79-2.51,1.19-3.75l0,.21-8.73-15.93.29.12-25,7.25-.18.06-.09-.17c-6.68-13.31-12.26-24.42-16.19-32.22l-4.5-9.06-1.18-2.4c-.12-.26-.22-.46-.29-.62l-.09-.21a.68.68,0,0,1,.12.2l.33.6,1.23,2.37c1.08,2.09,2.64,5.14,4.62,9l16.36,32.13-.27-.11,25-7.3.19-.06.1.18c2.82,5.12,5.74,10.45,8.74,15.92l.06.09,0,.11c-.39,1.24-.79,2.49-1.18,3.75l-.22.69,0,.11-.1,0-17.54,8.73-8.37,4.08c-1.38.66-2.74,1.31-4.09,1.92l-1,.46a8.9,8.9,0,0,1-1.09.42,17.69,17.69,0,0,1-2.19.26,13.33,13.33,0,0,1-8.21-2.16,16.09,16.09,0,0,1-3.08-2.72c-.44-.51-.83-1.06-1.24-1.58l-1.1-1.62c-2.91-4.27-5.62-8.24-8.09-11.88L200.3,198.52l-3.15-4.69-.81-1.23C196.16,192.32,196.08,192.17,196.08,192.17Z" style="fill:#263238"></path><path d="M231.65,218.13c-.14-.07,1-2.57,2.08-5.78s1.71-5.88,1.86-5.85a21.58,21.58,0,0,1-1.36,6A21.31,21.31,0,0,1,231.65,218.13Z" style="fill:#263238"></path><path d="M217.36,232.74a7.38,7.38,0,0,1-2-1.1,29.44,29.44,0,0,1-4.21-3.54,48.24,48.24,0,0,1-3.65-4.1,9.44,9.44,0,0,1-1.3-1.87c.13-.11,2.31,2.59,5.32,5.6a44.37,44.37,0,0,0,4,3.61A17,17,0,0,1,217.36,232.74Z" style="fill:#263238"></path><path d="M212.13,97.19a1.37,1.37,0,0,0,.52,2.59c4.12.93,4.66-7.11,3.74-9.4A24,24,0,0,0,220.52,86a17.25,17.25,0,0,0,1.9-8.32c1.48.09,7.8-2,7.13-2.19-1.54-.44-4.68-1.43-5.51-2.77a9.39,9.39,0,0,0-8.16-4.69,7.76,7.76,0,0,0-7,6.13,11.12,11.12,0,0,0-9.57,6.16,12.89,12.89,0,0,0,.35,12,6.41,6.41,0,0,1,1.25,3c0,1.36-1,2.44-1.7,3.57-1.95,3.08-1.8,7.3-.3,10.65s2.56,4.52,4.69,5.19c4.18,1.31-.66,9.92,6.29,9.92" style="fill:#263238"></path><path d="M212.3,100.55a3.57,3.57,0,0,0-5.22-3c-1.24.72-2.19,2.16-2.08,4.93.3,7.38,7.65,5.55,7.65,5.34S212.46,103.61,212.3,100.55Z" style="fill:#b78876"></path><path d="M210.28,105.08s-.12.09-.33.2a1.26,1.26,0,0,1-1,.06,3.17,3.17,0,0,1-1.59-2.79,4.31,4.31,0,0,1,.28-1.86,1.46,1.46,0,0,1,.93-1,.64.64,0,0,1,.77.32c.11.2.07.35.11.36s.15-.13.08-.43a.8.8,0,0,0-.31-.45,1,1,0,0,0-.72-.16,1.79,1.79,0,0,0-1.3,1.2,4.48,4.48,0,0,0-.36,2.07c.11,1.49.93,2.85,2,3.11a1.42,1.42,0,0,0,1.17-.24C210.28,105.26,210.31,105.09,210.28,105.08Z" style="fill:#aa6550"></path><path d="M266.78,105.31s.16-.23.42-.7a5.82,5.82,0,0,0-.13-5.67,7.36,7.36,0,0,0-3.83-2.74c-1.66-.67-3.69-1.08-5.47-2.41a9.27,9.27,0,0,1-3.19-6c-.4-2.42-.2-5-.39-7.54a13.26,13.26,0,0,0-.78-3.82,7.72,7.72,0,0,0-2.19-3.26,7,7,0,0,0-3.62-1.47,13.75,13.75,0,0,0-3.9.12,26.4,26.4,0,0,1-3.85.53,4.78,4.78,0,0,1-3.55-1.26,14,14,0,0,1-2-3,6.77,6.77,0,0,0-2.15-2.35,7.92,7.92,0,0,0-5.53-1.19,8.38,8.38,0,0,0-4.28,2,10.76,10.76,0,0,0-2.26,2.86,15.06,15.06,0,0,0-1.13,2.92s0-.07,0-.21a3.64,3.64,0,0,1,.12-.6,10.46,10.46,0,0,1,.81-2.2,10.89,10.89,0,0,1,2.24-3,8.69,8.69,0,0,1,4.42-2.2,8.33,8.33,0,0,1,5.83,1.2,7.22,7.22,0,0,1,2.3,2.48,14,14,0,0,0,1.95,2.83,4.3,4.3,0,0,0,3.22,1.11,25.93,25.93,0,0,0,3.77-.54,14.71,14.71,0,0,1,4-.13,7.61,7.61,0,0,1,3.89,1.59,8.17,8.17,0,0,1,2.35,3.48,14.09,14.09,0,0,1,.8,4c.19,2.64,0,5.16.36,7.51a8.8,8.8,0,0,0,3,5.76c1.66,1.28,3.66,1.72,5.34,2.42a7.59,7.59,0,0,1,3.95,2.93,5.81,5.81,0,0,1,.73,3.65,5.34,5.34,0,0,1-.76,2.22A3.11,3.11,0,0,1,266.78,105.31Z" style="fill:#455a64"></path><path d="M247.56,86.51c.05,0,0,.6.1,1.66a11.67,11.67,0,0,0,1.3,4.28,11,11,0,0,0,1.8,2.51,14.48,14.48,0,0,0,2.8,2.19,9.16,9.16,0,0,1,1.55,1.28,4.24,4.24,0,0,1,1,1.87,14.42,14.42,0,0,1,0,4.35,5.16,5.16,0,0,0,.92,3.87,9.5,9.5,0,0,0,3.22,2.14,12.18,12.18,0,0,1,3.11,1.93,4.72,4.72,0,0,1,1,1.38,4.81,4.81,0,0,1,.39,1.52,5.36,5.36,0,0,1-1.55,4.27,4.17,4.17,0,0,1-1.05.7c-.26.11-.4.16-.41.14a6.83,6.83,0,0,0,1.31-1,5.18,5.18,0,0,0,1.33-4.08,4.15,4.15,0,0,0-1.31-2.63,12,12,0,0,0-3-1.81,9.8,9.8,0,0,1-3.4-2.24,4.42,4.42,0,0,1-1-2,8.35,8.35,0,0,1-.1-2.23,14,14,0,0,0,0-4.19,5,5,0,0,0-2.36-2.88,14.79,14.79,0,0,1-2.84-2.3,10.91,10.91,0,0,1-1.8-2.63,11.07,11.07,0,0,1-1.18-4.43,7.65,7.65,0,0,1,0-1.25A1.4,1.4,0,0,1,247.56,86.51Z" style="fill:#455a64"></path><path d="M195.15,117.41a1,1,0,0,1-.27-.08,5.55,5.55,0,0,1-.74-.37,6.38,6.38,0,0,1-2.15-2.25,6.08,6.08,0,0,1-.59-4.78,6.57,6.57,0,0,1,4.41-4.38l-.11.35a10.09,10.09,0,0,1-2-3.7,5.28,5.28,0,0,1,.73-4.45,4,4,0,0,1,1.95-1.5,5.84,5.84,0,0,1,2.49-.13,9.14,9.14,0,0,0,2.38.1A2.4,2.4,0,0,0,203.08,95a4.69,4.69,0,0,0,.23-3.38c-.29-1.13-.78-2.22-1-3.39a9.83,9.83,0,0,1,.84-6.63,9.52,9.52,0,0,1,4.25-4.2,9.82,9.82,0,0,1,5-1l-.18.15a5.25,5.25,0,0,1,1.78-3.25A5.7,5.7,0,0,1,216.42,72a4.62,4.62,0,0,1,1.74-.07,2.31,2.31,0,0,1,.58.15,5.88,5.88,0,0,0-2.28.11,5.48,5.48,0,0,0-2.33,1.29,4.92,4.92,0,0,0-1.62,3.08l0,.16h-.17a9.47,9.47,0,0,0-4.77,1,9.1,9.1,0,0,0-4,4,9.48,9.48,0,0,0-.77,6.31c.25,1.1.74,2.18,1.05,3.38a5.11,5.11,0,0,1-.28,3.75,2.9,2.9,0,0,1-2.16,1.52,9.14,9.14,0,0,1-2.52-.1,5.37,5.37,0,0,0-2.27.1,3.5,3.5,0,0,0-1.7,1.31,4.81,4.81,0,0,0-.68,4,9.8,9.8,0,0,0,1.84,3.54l.2.26-.31.08a6.2,6.2,0,0,0-4.19,4.07,5.89,5.89,0,0,0,.47,4.55,6.37,6.37,0,0,0,2,2.26C194.8,117.24,195.16,117.38,195.15,117.41Z" style="fill:#455a64"></path><path d="M219.39,73.53a4.36,4.36,0,0,0-1.48,1.23,6.82,6.82,0,0,0-.54,5.1l0,.19-.18,0a7.12,7.12,0,0,0-4.75,4.19,5.58,5.58,0,0,0-.39,1.8,11.24,11.24,0,0,0,.23,2,15.4,15.4,0,0,1,.29,2.1,3.5,3.5,0,0,1-.59,2.18,8.94,8.94,0,0,1-3.66,2.75,12.72,12.72,0,0,0-3.43,2.24,9.24,9.24,0,0,0-2.75,6.19,9.7,9.7,0,0,0,1,4.56c.49,1,.9,1.48.86,1.52a2.12,2.12,0,0,1-.32-.34,7.54,7.54,0,0,1-.72-1.09,9.31,9.31,0,0,1-1.16-4.66A9.51,9.51,0,0,1,204.6,97a12.58,12.58,0,0,1,3.53-2.35A8.68,8.68,0,0,0,211.58,92c.82-1.12.45-2.59.24-3.91a11.59,11.59,0,0,1-.23-2.05,6.14,6.14,0,0,1,.43-2,7.49,7.49,0,0,1,5.12-4.38L217,80c-.44-2.27-.1-4.27.74-5.32a3.15,3.15,0,0,1,1.15-.94A1.82,1.82,0,0,1,219.39,73.53Z" style="fill:#455a64"></path><path d="M264.7,165.61a7.24,7.24,0,0,1,.57,1.25c.16.42.38.92.58,1.52l.63,2.05c.19.77.37,1.63.57,2.55a28.87,28.87,0,0,1,.33,3,25.75,25.75,0,0,1-.44,6.84,72.57,72.57,0,0,1-3.79,11.82c-.53,1.41-1,2.58-1.33,3.51a6.48,6.48,0,0,1-.54,1.27,7.23,7.23,0,0,1,.35-1.34c.25-.85.66-2.07,1.18-3.57a86.63,86.63,0,0,0,3.61-11.79,26.2,26.2,0,0,0,.48-6.72c0-1-.2-2-.28-2.93s-.33-1.76-.5-2.53-.39-1.43-.55-2.05-.37-1.11-.5-1.54A7.44,7.44,0,0,1,264.7,165.61Z" style="fill:#263238"></path><g style="opacity:0.30000000000000004"><path d="M205,205.18c1.25,4.76,4.53,10.83,6.83,16.18a48.82,48.82,0,0,0,9.36,14.54c4,4.2,9.84,7.1,15.59,6.24,4.11-.61,7.7-3,11.14-5.33L258,230a11.76,11.76,0,0,0,3.27-2.84,4.09,4.09,0,0,0,.52-4.11l-14.94,7.27c-3.51,1.71-7.07,3.44-10.91,4.15s-8.06.28-11.22-2a21.63,21.63,0,0,1-4.78-5.51l-15-21.73"></path></g><path d="M209.77,157.36c-.07,0-.68-1-1.88-2.42a24.13,24.13,0,0,0-12.13-7.88c-1.82-.51-3-.65-3-.74a2.4,2.4,0,0,1,.83,0,16.35,16.35,0,0,1,2.23.37,21.66,21.66,0,0,1,12.33,8,15,15,0,0,1,1.24,1.89C209.68,157.07,209.81,157.34,209.77,157.36Z" style="fill:#263238"></path><g style="opacity:0.30000000000000004"><path d="M188.82,271.3a73,73,0,0,0,36.52,13.64c13.33,1.06,25.29-3.66,37.3-9.55v-2.26a108.73,108.73,0,0,1-39.13,4.72C202.48,276.24,188.82,271.3,188.82,271.3Z"></path></g><path d="M295.21,200.61s9.37-2.81,15.45-23.27l-11.85,14.07Z" style="fill:#b78876"></path><path d="M269,215.43s20-52.53,20.49-52.62S314,146.72,314,146.72l2.86.65L292.84,165l-21.3,51.77Z" style="fill:#e0e0e0"></path><path d="M270.85,218.28l22-53.32,24.06-17.59c.35,0-22,54-22,54Z" style="fill:#263238"></path><path d="M268.72,195.29s3.2-7.3,4.89-8.34c1.88-1.16,5.87-4.22,7.16-7,.87-1.87,2.3-1.25,2.3-1.25L280.44,186,295,177.34a4.86,4.86,0,0,1-.8,4.35c-1.62,2.21-1.08,2-1.08,2s1.75,1.05.87,2.61a34.64,34.64,0,0,1-2.36,3.48s1.61,2,1,3.81a8,8,0,0,1,.23,3.84c-.38,2.24-4.41,6.48-4.41,6.48l-20.13,9.58-7.56-14.06Z" style="fill:#b78876"></path><path d="M285.33,183.11a25.05,25.05,0,0,1-4.2,2.89,26.43,26.43,0,0,1-4.47,2.47,24.9,24.9,0,0,1,4.2-2.9A25.92,25.92,0,0,1,285.33,183.11Z" style="fill:#aa6550"></path><path d="M293.4,182.86a30.84,30.84,0,0,1-3.76,4,30,30,0,0,1-4.12,3.7,29.61,29.61,0,0,1,3.76-4.06A30.19,30.19,0,0,1,293.4,182.86Z" style="fill:#aa6550"></path><path d="M292.32,189.07a9.1,9.1,0,0,1-1.76,2.46,9.19,9.19,0,0,1-2.16,2.13,9.57,9.57,0,0,1,1.77-2.46A9.05,9.05,0,0,1,292.32,189.07Z" style="fill:#aa6550"></path><path d="M292.69,193.25c.1.09-.34.77-.91,1.59s-1,1.46-1.18,1.39.18-.85.77-1.69S292.58,193.16,292.69,193.25Z" style="fill:#aa6550"></path><path d="M298.51,192.69s7.48-5.85,8.51-8.47c.2-.52,4.79-7.84,4.8-10.71V168.2L310,160.36c-2.56.3-3,2.1-2.86,4.38.07,1,.84,4.58.84,4.58l-.79,4.19a17.11,17.11,0,0,0-1.55-6.06c-.57-1-1.9-.37-2.43.14-1,1-.47,2.2-.12,5.26.68,5.92.42,6.86.42,6.86a15.37,15.37,0,0,0-1.63-6.39c-.61-1.06-1.29-1.65-2-1.27s-1.57,1.81-.9,4c1.26,4.17,1.56,6.79,1.44,8a17.89,17.89,0,0,1-2.08-3.51,1.11,1.11,0,0,0-2.09,0c-.55,1.42-.31,1.92.8,6C297.59,188.65,298.51,192.69,298.51,192.69Z" style="fill:#b78876"></path><path d="M306.55,185.06a10,10,0,0,1,.84-1.58,10.54,10.54,0,0,0,.75-1.73,2.94,2.94,0,0,0,.12-1c0-.38-.1-.78-.17-1.19a48.74,48.74,0,0,1-.93-6,28.61,28.61,0,0,1,1.45,5.93c.06.42.13.83.16,1.24a3.22,3.22,0,0,1-.18,1.22,7.87,7.87,0,0,1-.89,1.77C307.09,184.61,306.61,185.1,306.55,185.06Z" style="fill:#aa6550"></path><path d="M301.62,173a30.49,30.49,0,0,1,2.54,6.5c.56,1.85,1,3.54,1.23,4.79a5.61,5.61,0,0,1,.18,2,15.35,15.35,0,0,1-.54-2c-.33-1.21-.81-2.88-1.37-4.71C302.55,175.93,301.49,173,301.62,173Z" style="fill:#aa6550"></path><path d="M302,190.2a14,14,0,0,1-.19-1.5,11.51,11.51,0,0,0-1.25-3.35c-.68-1.25-1.37-2.36-1.76-3.23a3.68,3.68,0,0,1-.5-1.46c.08,0,.34.49.82,1.29s1.2,1.87,1.9,3.15a9.31,9.31,0,0,1,1.15,3.56A2.72,2.72,0,0,1,302,190.2Z" style="fill:#aa6550"></path><path d="M230.32,463.7h0s24.39,9.15,24.64,13.66l-47.2-.18V464.83l1.73.41A35,35,0,0,0,230.32,463.7Z" style="fill:#263238"></path><path d="M254.12,476.06c0,.14-10.37.26-23.15.26s-23.16-.12-23.16-.26,10.37-.26,23.16-.26S254.12,475.91,254.12,476.06Z" style="fill:#455a64"></path><path d="M255,477.36a19.86,19.86,0,0,0-2.56-3.24,22.52,22.52,0,0,0-8.57-5c-3.74-1.29-7-2.67-9.41-3.68-1.19-.51-2.14-.94-2.79-1.25a4.41,4.41,0,0,1-1-.53,5.68,5.68,0,0,1,1.07.34l2.86,1.09c2.41.93,5.72,2.26,9.44,3.54a21.35,21.35,0,0,1,8.66,5.19,12.28,12.28,0,0,1,1.85,2.47A3.38,3.38,0,0,1,255,477.36Z" style="fill:#455a64"></path></g></svg>