<?xml version="1.0" encoding="utf-8"?>
<!-- Generator: Adobe Illustrator 27.5.0, SVG Export Plug-In . SVG Version: 6.00 Build 0)  -->
<svg version="1.1" xmlns="http://www.w3.org/2000/svg" xmlns:xlink="http://www.w3.org/1999/xlink" x="0px" y="0px"
	 viewBox="0 0 500 500" style="enable-background:new 0 0 500 500;" xml:space="preserve">
<g id="Background_Complete">
	<g>
		<g>
			<g>
				<g>
					<g>
						<g>
							<g>
								<polygon style="fill:#E0E0E0;" points="451.225,87.055 451.225,152.744 356.879,152.744 353.48,87.515 								"/>
							</g>
						</g>
					</g>
				</g>
			</g>
		</g>
		<g>
			<g>
				<g>
					<g>
						<g>
							<g>
								
									<rect x="368.107" y="72.887" transform="matrix(6.123234e-17 -1 1 6.123234e-17 280.5925 520.7128)" style="fill:#FFFFFF;" width="65.09" height="94.346"/>
							</g>
						</g>
					</g>
				</g>
			</g>
			<g>
				<g>
					<g>
						<g>
							<g>
								<path style="fill:#E0E0E0;" d="M448.273,153.053h-95.241V87.067h95.241V153.053z M353.927,152.158h93.451V87.962h-93.451
									V152.158z"/>
							</g>
						</g>
					</g>
				</g>
			</g>
		</g>
		<g>
			<g>
				<g>
					<g>
						<g>
							<g>
								<g>
									<rect x="363.698" y="95.602" style="fill:#FFFFFF;" width="73.909" height="48.916"/>
								</g>
							</g>
						</g>
					</g>
				</g>
			</g>
			<g>
				<g>
					<g>
						<g>
							<g>
								<g>
									<g>
										<path style="fill:#E0E0E0;" d="M437.607,95.602c0,0-0.127,0.008-0.365,0.013c-0.25,0.003-0.598,0.007-1.051,0.013
											c-0.936,0.006-2.296,0.015-4.059,0.026c-3.55,0.013-8.712,0.033-15.231,0.058c-13.034,0.026-31.483,0.062-53.204,0.105
											l0.214-0.214c0.006,14.946,0.012,31.505,0.019,48.91v0.006l-0.233-0.233c27.88,0.018,53.586,0.035,73.909,0.047
											l-0.186,0.186c0.041-14.886,0.074-27.091,0.098-35.591c0.021-4.248,0.036-7.567,0.047-9.842
											c0.009-1.124,0.016-1.987,0.021-2.586C437.594,95.913,437.607,95.602,437.607,95.602s0.013,0.285,0.02,0.858
											c0.005,0.591,0.012,1.443,0.021,2.552c0.011,2.265,0.027,5.57,0.047,9.8c0.023,8.527,0.057,20.772,0.098,35.706l0,0.186
											l-0.186,0c-20.323,0.013-46.029,0.029-73.909,0.047l-0.233,0v-0.233v-0.006c0.007-17.405,0.013-33.965,0.019-48.91
											l0-0.214l0.214,0c21.779,0.043,40.276,0.079,53.344,0.105c6.498,0.025,11.644,0.044,15.182,0.057
											c1.745,0.011,3.09,0.02,4.016,0.026c0.442,0.006,0.782,0.01,1.027,0.013C437.497,95.594,437.607,95.602,437.607,95.602z"
											/>
									</g>
								</g>
							</g>
						</g>
					</g>
				</g>
			</g>
		</g>
		<g>
			<g>
				<g>
					<g>
						<g>
							<g>
								<g>
									<path style="fill:#E0E0E0;" d="M353.48,87.332c0.039-0.051,0.657,0.354,1.622,1.051c0.965,0.697,2.279,1.685,3.698,2.821
										c1.419,1.136,2.668,2.211,3.547,3.015c0.879,0.805,1.393,1.336,1.351,1.383c-0.088,0.099-2.356-1.772-5.189-4.034
										C355.674,89.308,353.397,87.439,353.48,87.332z"/>
								</g>
							</g>
						</g>
					</g>
				</g>
			</g>
		</g>
		<g>
			<g>
				<g>
					<g>
						<g>
							<g>
								<g>
									<path style="fill:#E0E0E0;" d="M447.826,87.515c0.08,0.101-2.143,1.993-4.964,4.226c-2.822,2.234-5.174,3.962-5.254,3.861
										c-0.08-0.101,2.142-1.993,4.965-4.226C445.393,89.143,447.746,87.414,447.826,87.515z"/>
								</g>
							</g>
						</g>
					</g>
				</g>
			</g>
		</g>
		<g>
			<g>
				<g>
					<g>
						<g>
							<g>
								<g>
									<path style="fill:#FFFFFF;" d="M447.751,152.615c-3.506-2.842-7.013-5.684-10.519-8.526"/>
								</g>
							</g>
						</g>
					</g>
				</g>
			</g>
			<g>
				<g>
					<g>
						<g>
							<g>
								<g>
									<g>
										<path style="fill:#E0E0E0;" d="M437.232,144.089c0.081-0.1,2.502,1.728,5.406,4.082c2.905,2.355,5.194,4.344,5.113,4.444
											c-0.081,0.1-2.501-1.727-5.406-4.082C439.44,146.179,437.151,144.189,437.232,144.089z"/>
									</g>
								</g>
							</g>
						</g>
					</g>
				</g>
			</g>
		</g>
		<g>
			<g>
				<g>
					<g>
						<g>
							<g>
								<g>
									<path style="fill:#E0E0E0;" d="M353.48,152.605c-0.08-0.101,2.12-1.974,4.912-4.182c2.793-2.209,5.122-3.918,5.202-3.817
										c0.08,0.101-2.119,1.973-4.913,4.182C355.889,150.997,353.56,152.706,353.48,152.605z"/>
								</g>
							</g>
						</g>
					</g>
				</g>
			</g>
		</g>
		<g>
			<g>
				<g>
					<g>
						<g>
							<g>
								
									<rect x="393.768" y="95.779" transform="matrix(6.123234e-17 -1 1 6.123234e-17 282.9253 520.9889)" style="fill:#E0E0E0;" width="16.379" height="46.505"/>
							</g>
						</g>
					</g>
				</g>
			</g>
		</g>
	</g>
	<g>
		<g>
			<g>
				<g>
					<path style="fill:#E0E0E0;" d="M190.41,50.244c-0.004,0.009-0.083-0.016-0.233-0.072c-0.18-0.071-0.397-0.156-0.662-0.26
						c-0.621-0.258-1.463-0.609-2.524-1.05c-2.229-0.955-5.375-2.301-9.242-3.957c-7.823-3.408-18.553-8.083-30.407-13.247
						c-0.361-0.158-0.721-0.316-1.054-0.462l0.219,0.001c-11.654,4.984-22.153,9.473-29.794,12.74
						c-3.775,1.586-6.842,2.875-9.015,3.788c-1.033,0.422-1.853,0.756-2.458,1.003c-0.564,0.224-0.864,0.333-0.871,0.315
						c-0.007-0.017,0.278-0.16,0.828-0.416c0.596-0.27,1.401-0.636,2.418-1.097c2.157-0.951,5.2-2.294,8.947-3.947
						c7.624-3.306,18.1-7.85,29.729-12.893l0.11-0.048l0.11,0.048c0.333,0.146,0.693,0.304,1.054,0.462
						c11.829,5.221,22.537,9.948,30.343,13.394c3.838,1.723,6.959,3.124,9.172,4.118c1.044,0.482,1.872,0.863,2.483,1.145
						c0.256,0.124,0.466,0.226,0.64,0.311C190.342,50.194,190.413,50.236,190.41,50.244z"/>
				</g>
			</g>
		</g>
		<g>
			<g>
				<rect x="42.548" y="45.878" style="fill:#E0E0E0;" width="195.295" height="146.227"/>
			</g>
		</g>
		<g>
			<g>
				<rect x="49.375" y="52.677" style="fill:#FAFAFA;" width="182.374" height="133.419"/>
			</g>
		</g>
		<g>
			<g>
				<g>
					<path style="fill:#E0E0E0;" d="M89.658,110.968c0,0,0.19,22.397,1.329,29.23l28.091-1.329c0,0-2.467-22.017-1.518-27.901
						H89.658z"/>
				</g>
			</g>
			<g>
				<g>
					<g>
						<g>
							<g>
								<path style="fill:#FFFFFF;" d="M103.494,114.136c0-0.003,0.035-0.007,0.103-0.011c0.079-0.003,0.179-0.007,0.303-0.012
									c0.267-0.019,0.662,0,1.169,0.058c0.503,0.08,1.123,0.216,1.786,0.531c0.662,0.314,1.347,0.826,1.944,1.538
									c0.575,0.724,1.102,1.623,1.347,2.705c0.231,1.083,0.114,2.299-0.295,3.471c-0.199,0.589-0.47,1.168-0.789,1.735
									c-0.317,0.565-0.635,1.135-0.899,1.752c-0.53,1.226-0.951,2.575-1.136,3.986l-0.012,0.093l-0.091,0.002
									c-0.887,0.014-1.824,0.029-2.774,0.045c-0.996,0.016-1.979,0.031-2.909,0.045l-0.103,0.002l-0.004-0.105
									c-0.048-1.413-0.683-2.7-1.349-3.839c-0.337-0.576-0.706-1.115-1.052-1.661c-0.338-0.536-0.718-1.049-0.987-1.609
									c-0.554-1.118-0.649-2.355-0.44-3.421c0.201-1.068,0.555-2.037,1.084-2.799c0.526-0.763,1.196-1.294,1.828-1.646
									c0.636-0.354,1.234-0.546,1.725-0.667c0.493-0.119,0.883-0.166,1.147-0.187c0.132-0.007,0.233-0.013,0.301-0.011
									C103.46,114.129,103.494,114.132,103.494,114.136c0,0.004-0.035,0.006-0.102,0.013c-0.078,0.008-0.176,0.018-0.298,0.031
									c-0.261,0.033-0.647,0.092-1.132,0.222c-0.483,0.131-1.07,0.332-1.69,0.689c-0.616,0.356-1.263,0.882-1.767,1.63
									c-0.505,0.743-0.846,1.7-1.035,2.747c-0.196,1.045-0.096,2.233,0.444,3.312c0.263,0.543,0.635,1.041,0.984,1.588
									c0.343,0.537,0.717,1.082,1.06,1.661c0.675,1.152,1.332,2.456,1.386,3.939l-0.107-0.103
									c0.931-0.015,1.913-0.031,2.909-0.047c0.95-0.015,1.887-0.029,2.774-0.043l-0.103,0.095c0.192-1.45,0.619-2.803,1.16-4.047
									c0.268-0.622,0.598-1.207,0.914-1.767c0.316-0.557,0.585-1.125,0.782-1.7c0.406-1.146,0.525-2.326,0.309-3.375
									c-0.227-1.044-0.739-1.94-1.293-2.65c-0.576-0.702-1.239-1.21-1.884-1.527c-0.646-0.319-1.253-0.464-1.749-0.555
									c-0.5-0.069-0.892-0.1-1.158-0.094c-0.124-0.003-0.223-0.006-0.302-0.008C103.529,114.142,103.495,114.139,103.494,114.136z
									"/>
							</g>
						</g>
					</g>
					<g>
						<g>
							<g>
								<path style="fill:#FFFFFF;" d="M104.935,129.739c0,0-0.007-0.03-0.017-0.088c-0.01-0.062-0.024-0.149-0.043-0.26
									c-0.036-0.233-0.087-0.57-0.153-1.003c-0.126-0.872-0.313-2.134-0.439-3.705c-0.03-0.393-0.057-0.805-0.073-1.235
									c-0.014-0.43-0.033-0.878-0.008-1.343c0.026-0.463,0.102-0.951,0.316-1.405c0.215-0.447,0.573-0.868,1.071-1.073
									c0.494-0.213,1.123-0.102,1.529,0.291c0.2,0.197,0.334,0.478,0.328,0.769c-0.001,0.29-0.113,0.573-0.287,0.805
									c-0.173,0.236-0.414,0.417-0.676,0.546c-0.263,0.132-0.547,0.214-0.835,0.277c-0.576,0.121-1.17,0.188-1.773,0.206
									c-0.603,0.014-1.199,0.003-1.784-0.086c-0.291-0.048-0.578-0.123-0.845-0.244c-0.268-0.12-0.511-0.291-0.708-0.503
									c-0.196-0.212-0.346-0.47-0.408-0.751c-0.065-0.281-0.022-0.579,0.1-0.832c0.121-0.252,0.326-0.469,0.587-0.572
									c0.261-0.106,0.557-0.076,0.8,0.037c0.245,0.113,0.447,0.295,0.596,0.507c0.15,0.215,0.239,0.458,0.298,0.7
									c0.115,0.489,0.112,0.972,0.142,1.433c0.048,0.925,0.093,1.786,0.134,2.573c0.079,1.57,0.143,2.842,0.188,3.725
									c0.02,0.437,0.036,0.778,0.047,1.013c0.004,0.113,0.007,0.201,0.01,0.264c0.002,0.059,0,0.09,0,0.09s-0.005-0.03-0.009-0.09
									c-0.005-0.063-0.011-0.15-0.019-0.263c-0.015-0.235-0.036-0.575-0.063-1.012c-0.051-0.883-0.125-2.154-0.216-3.724
									c-0.044-0.786-0.093-1.648-0.145-2.572c-0.031-0.461-0.031-0.944-0.144-1.419c-0.058-0.235-0.146-0.47-0.288-0.672
									c-0.142-0.202-0.336-0.375-0.566-0.479c-0.227-0.105-0.499-0.131-0.736-0.034c-0.238,0.094-0.429,0.295-0.542,0.532
									c-0.114,0.237-0.154,0.515-0.093,0.777c0.058,0.264,0.2,0.509,0.388,0.711c0.378,0.415,0.935,0.631,1.505,0.72
									c0.574,0.087,1.17,0.098,1.767,0.085c0.598-0.018,1.188-0.084,1.757-0.204c0.283-0.062,0.561-0.143,0.815-0.269
									c0.254-0.125,0.482-0.297,0.646-0.52c0.165-0.22,0.27-0.486,0.271-0.754c0.006-0.269-0.116-0.525-0.302-0.709
									c-0.38-0.368-0.974-0.477-1.44-0.276c-0.474,0.193-0.823,0.597-1.032,1.031c-0.21,0.44-0.286,0.918-0.313,1.376
									c-0.026,0.46-0.009,0.907,0.003,1.336c0.014,0.429,0.039,0.841,0.067,1.233c0.118,1.569,0.296,2.832,0.411,3.705
									c0.059,0.434,0.105,0.771,0.137,1.005c0.015,0.112,0.026,0.199,0.034,0.262
									C104.934,129.708,104.935,129.739,104.935,129.739z"/>
							</g>
						</g>
					</g>
					<g>
						<g>
							<g>
								<path style="fill:#FFFFFF;" d="M101.237,129.887c0.014,0.013,0.037,0.349,0.073,0.934c0.035,0.678,0.077,1.488,0.125,2.434
									l-0.023-0.059c0.565,0.651,1.202,1.386,1.891,2.179l-0.097-0.042c0.688-0.039,1.423-0.08,2.186-0.123l-0.092,0.046
									c0.351-0.429,0.716-0.874,1.089-1.329c0.184-0.224,0.367-0.446,0.546-0.665l-0.029,0.085
									c-0.029-1.282-0.057-2.495-0.083-3.601l0.119,0.113c-1.593,0.018-2.974,0.033-4.085,0.045c-0.443,0-0.832-0.001-1.18-0.001
									C101.4,129.9,101.246,129.896,101.237,129.887c-0.009-0.009,0.126-0.021,0.389-0.037c0.34-0.018,0.72-0.038,1.152-0.06
									c1.13-0.044,2.536-0.1,4.157-0.163l0.116-0.005l0.004,0.118c0.033,1.106,0.07,2.319,0.108,3.6l0.001,0.048l-0.031,0.038
									c-0.179,0.219-0.361,0.441-0.545,0.665c-0.374,0.454-0.74,0.899-1.092,1.327l-0.036,0.044l-0.056,0.003
									c-0.763,0.037-1.498,0.073-2.187,0.107l-0.06,0.003l-0.038-0.045c-0.676-0.805-1.301-1.55-1.855-2.21l-0.023-0.027l0-0.033
									c-0.009-0.969-0.017-1.801-0.024-2.496C101.219,130.184,101.223,129.874,101.237,129.887z"/>
							</g>
						</g>
					</g>
					<g>
						<g>
							<g>
								<path style="fill:#FFFFFF;" d="M106.88,133.051c-0.003,0.006-0.076-0.028-0.207-0.088c-0.131-0.06-0.324-0.141-0.567-0.225
									c-0.485-0.168-1.189-0.325-1.974-0.301c-0.785,0.023-1.479,0.223-1.953,0.421c-0.238,0.098-0.425,0.191-0.553,0.259
									c-0.128,0.067-0.198,0.106-0.202,0.1c-0.003-0.005,0.062-0.053,0.185-0.13c0.123-0.077,0.307-0.179,0.545-0.286
									c0.473-0.214,1.176-0.427,1.975-0.451c0.798-0.025,1.513,0.145,1.998,0.33c0.243,0.092,0.434,0.183,0.562,0.252
									C106.815,133.002,106.882,133.046,106.88,133.051z"/>
							</g>
						</g>
					</g>
					<g>
						<g>
							<g>
								<path style="fill:#FFFFFF;" d="M106.879,132.176c-0.003,0.006-0.076-0.028-0.207-0.088s-0.324-0.141-0.567-0.225
									c-0.485-0.168-1.189-0.325-1.974-0.301c-0.785,0.024-1.479,0.223-1.953,0.421c-0.238,0.098-0.425,0.191-0.552,0.259
									c-0.128,0.067-0.198,0.106-0.202,0.1c-0.003-0.005,0.062-0.053,0.185-0.13c0.123-0.077,0.308-0.179,0.545-0.286
									c0.473-0.214,1.176-0.427,1.974-0.451c0.799-0.025,1.513,0.145,1.998,0.33c0.244,0.092,0.434,0.183,0.562,0.252
									C106.814,132.127,106.881,132.171,106.879,132.176z"/>
							</g>
						</g>
					</g>
					<g>
						<g>
							<g>
								<path style="fill:#FFFFFF;" d="M106.827,131.344c-0.003,0.006-0.076-0.028-0.207-0.088c-0.132-0.06-0.324-0.141-0.567-0.225
									c-0.485-0.168-1.189-0.325-1.974-0.301c-0.785,0.024-1.479,0.223-1.953,0.421c-0.238,0.098-0.425,0.191-0.552,0.259
									c-0.128,0.067-0.198,0.106-0.202,0.1c-0.003-0.005,0.062-0.053,0.185-0.13c0.123-0.077,0.308-0.179,0.545-0.286
									c0.473-0.214,1.176-0.427,1.974-0.451c0.799-0.025,1.513,0.145,1.998,0.33c0.244,0.092,0.434,0.183,0.562,0.252
									C106.763,131.295,106.83,131.34,106.827,131.344z"/>
							</g>
						</g>
					</g>
				</g>
			</g>
		</g>
		<g>
			<g>
				<g>
					<g>
						<path style="fill:#EBEBEB;" d="M58.372,74.354c0,0,0.19,22.397,1.329,29.23l28.091-1.329c0,0-2.468-22.018-1.519-27.901
							H58.372z"/>
					</g>
				</g>
				<g>
					<g>
						<g>
							<path style="fill:#FFFFFF;" d="M82.04,83.762c0.009,0.152-4.204,0.529-9.408,0.842c-5.206,0.313-9.433,0.444-9.442,0.292
								c-0.009-0.152,4.203-0.529,9.409-0.842C77.803,83.741,82.031,83.61,82.04,83.762z"/>
						</g>
					</g>
				</g>
				<g>
					<g>
						<g>
							<path style="fill:#FFFFFF;" d="M82.047,88.506c0.009,0.152-4.204,0.529-9.408,0.842c-5.207,0.313-9.433,0.444-9.442,0.292
								c-0.009-0.152,4.203-0.529,9.409-0.842C77.811,88.485,82.038,88.354,82.047,88.506z"/>
						</g>
					</g>
				</g>
				<g>
					<g>
						<g>
							<path style="fill:#FFFFFF;" d="M77.273,93.164c0.009,0.152-2.388,0.42-5.353,0.598c-2.966,0.178-5.378,0.2-5.387,0.048
								c-0.009-0.152,2.387-0.419,5.354-0.598C74.852,93.034,77.263,93.012,77.273,93.164z"/>
						</g>
					</g>
				</g>
			</g>
		</g>
		<g>
			<g>
				<g>
					<g>
						<path style="fill:#EBEBEB;" d="M57.042,140.248c0,0,0.19,22.397,1.329,29.23l28.091-1.329c0,0-2.467-22.018-1.518-27.902
							H57.042z"/>
					</g>
				</g>
				<g>
					<g>
						<g>
							<path style="fill:#FFFFFF;" d="M80.71,149.655c0.009,0.152-4.204,0.529-9.408,0.842c-5.206,0.313-9.433,0.444-9.442,0.292
								c-0.009-0.152,4.203-0.529,9.409-0.842C76.473,149.634,80.701,149.504,80.71,149.655z"/>
						</g>
					</g>
				</g>
				<g>
					<g>
						<g>
							<path style="fill:#FFFFFF;" d="M80.718,154.399c0.009,0.152-4.204,0.529-9.408,0.842c-5.206,0.313-9.433,0.444-9.442,0.292
								c-0.009-0.152,4.203-0.529,9.409-0.842C76.481,154.378,80.709,154.248,80.718,154.399z"/>
						</g>
					</g>
				</g>
				<g>
					<g>
						<g>
							<path style="fill:#FFFFFF;" d="M75.943,159.057c0.009,0.152-2.388,0.42-5.353,0.598c-2.966,0.178-5.378,0.2-5.387,0.048
								c-0.009-0.152,2.387-0.419,5.354-0.598C73.522,158.927,75.934,158.905,75.943,159.057z"/>
						</g>
					</g>
				</g>
			</g>
		</g>
		<g>
			<g>
				<g>
					<polygon style="fill:#EBEBEB;" points="133.811,80.291 136.593,144.89 217.237,145.863 213.617,81.144 					"/>
				</g>
			</g>
			<g>
				<g>
					<g>
						<g>
							<rect x="132.877" y="79.828" style="fill:#F5F5F5;" width="80.107" height="60.489"/>
						</g>
					</g>
					<g>
						<g>
							<g>
								<path style="fill:#E0E0E0;" d="M212.983,140.317c0,0-0.016-0.39-0.025-1.122c-0.006-0.748-0.014-1.826-0.026-3.228
									c-0.014-2.836-0.033-6.968-0.058-12.24c-0.028-10.547-0.069-25.64-0.118-43.899l0.226,0.226
									c-22.646,0.014-50.289,0.031-80.1,0.049h-0.007l0.275-0.275c-0.01,21.755-0.019,42.353-0.027,60.489l-0.248-0.248
									c23.702,0.051,43.696,0.094,57.783,0.124c7.045,0.028,12.609,0.051,16.434,0.066c1.897,0.013,3.359,0.023,4.368,0.03
									c0.486,0.006,0.859,0.011,1.13,0.014C212.847,140.307,212.983,140.317,212.983,140.317s-0.118,0.01-0.363,0.014
									c-0.264,0.003-0.629,0.008-1.103,0.014c-0.998,0.007-2.443,0.017-4.319,0.03c-3.812,0.016-9.357,0.038-16.377,0.066
									c-14.126,0.03-34.176,0.073-57.944,0.124l-0.248,0.001l0-0.249c-0.008-18.136-0.017-38.734-0.027-60.489l0-0.275h0.276
									h0.007c29.811,0.018,57.454,0.035,80.1,0.049l0.227,0l-0.001,0.226c-0.049,18.318-0.089,33.46-0.118,44.041
									c-0.025,5.25-0.045,9.365-0.058,12.189c-0.011,1.383-0.02,2.447-0.026,3.185C213,139.96,212.983,140.317,212.983,140.317z"
									/>
							</g>
						</g>
					</g>
				</g>
				<g>
					<g>
						<g>
							<rect x="142.54" y="92.642" style="fill:#F5F5F5;" width="32.473" height="40.869"/>
						</g>
					</g>
					<g>
						<g>
							<g>
								<path style="fill:#E0E0E0;" d="M175.014,133.511c-0.005-0.005-0.009-0.074-0.014-0.206
									c-0.004-0.155-0.008-0.344-0.014-0.581c-0.007-0.538-0.017-1.283-0.029-2.235c-0.015-1.975-0.038-4.808-0.066-8.385
									c-0.03-7.194-0.073-17.373-0.123-29.461l0.246,0.247c-9.677,0.008-20.752,0.018-32.47,0.029
									c-0.065,0.058,0.518-0.517,0.272-0.268v0.011v0.022v0.044v0.089v0.177v0.354l0,0.707l0,1.409c0,0.937,0,1.87-0.001,2.798
									c-0.001,1.856-0.002,3.692-0.002,5.507c-0.003,3.629-0.006,7.171-0.009,10.605c-0.012,6.864-0.024,13.297-0.035,19.137
									l-0.229-0.229c9.743,0.049,17.827,0.09,23.511,0.118c2.82,0.025,5.043,0.045,6.597,0.059
									c0.742,0.011,1.322,0.02,1.749,0.026C174.796,133.494,175.014,133.511,175.014,133.511c0.008,0.008-0.184,0.017-0.567,0.025
									c-0.416,0.006-0.982,0.015-1.705,0.026c-1.542,0.014-3.747,0.034-6.545,0.059c-5.72,0.029-13.853,0.07-23.655,0.118
									l-0.228,0.001l-0.001-0.23c-0.01-5.84-0.022-12.273-0.034-19.137c-0.003-3.434-0.006-6.976-0.009-10.605
									c-0.001-1.815-0.002-3.651-0.002-5.507c0-0.928,0-1.861-0.001-2.798l0-1.409l0-0.707v-0.354v-0.177v-0.089v-0.044v-0.022
									V92.65c-0.245,0.243,0.333-0.344,0.279-0.283c11.718,0.01,22.793,0.02,32.47,0.029l0.248,0l-0.001,0.247
									c-0.051,12.154-0.093,22.388-0.123,29.621c-0.028,3.553-0.05,6.367-0.065,8.329c-0.012,0.932-0.022,1.66-0.029,2.186
									c-0.006,0.226-0.01,0.407-0.014,0.554C175.023,133.456,175.018,133.516,175.014,133.511z"/>
							</g>
						</g>
					</g>
				</g>
				<g>
					<g>
						<g>
							<rect x="143.784" y="83.291" style="fill:#F5F5F5;" width="62.234" height="5.889"/>
						</g>
					</g>
					<g>
						<g>
							<g>
								<path style="fill:#E0E0E0;" d="M206.018,89.179c-0.007-0.007-0.014-0.144-0.022-0.403c-0.007-0.287-0.015-0.664-0.026-1.142
									c-0.015-1.023-0.036-2.477-0.063-4.343l0.111,0.111c-10.495,0.096-34.418,0.164-62.23,0.164h-0.003
									c0.55-0.55,0.152-0.152,0.275-0.274v0.002v0.006v0.012v0.024v0.047v0.094v0.189v0.378l0,0.753c0,0.5,0,0.998,0,1.491
									c0,0.986,0,1.955-0.001,2.892l-0.274-0.274c17.404,0.046,32.913,0.087,44.113,0.117c5.583,0.034,10.09,0.062,13.24,0.082
									c1.539,0.016,2.745,0.029,3.603,0.038c0.392,0.008,0.703,0.014,0.944,0.019C205.898,89.167,206.011,89.173,206.018,89.179
									c0.006,0.006-0.094,0.013-0.296,0.019c-0.232,0.005-0.532,0.011-0.909,0.019c-0.843,0.009-2.028,0.022-3.54,0.038
									c-3.134,0.019-7.62,0.047-13.176,0.081c-11.25,0.03-26.829,0.071-44.312,0.117l-0.274,0.001l0-0.275
									c0-0.938-0.001-1.906-0.001-2.892c0-0.493,0-0.991,0-1.491l0-0.753v-0.378v-0.189v-0.094v-0.047v-0.024v-0.012v-0.006
									v-0.002c0.123-0.123-0.275,0.274,0.276-0.277h0.003c27.812,0,51.735,0.067,62.23,0.164l0.113,0.001l-0.002,0.111
									c-0.027,1.894-0.049,3.369-0.064,4.408c-0.011,0.468-0.02,0.837-0.026,1.117C206.032,89.064,206.025,89.186,206.018,89.179z
									"/>
							</g>
						</g>
					</g>
				</g>
				<g>
					<g>
						<g>
							<rect x="178.989" y="92.642" style="fill:#F5F5F5;" width="27.028" height="24.631"/>
						</g>
					</g>
					<g>
						<g>
							<g>
								<path style="fill:#E0E0E0;" d="M206.018,117.274c-0.009-0.009-0.017-0.171-0.026-0.476
									c-0.007-0.341-0.016-0.783-0.027-1.337c-0.015-1.204-0.035-2.892-0.061-5.021c-0.029-4.334-0.071-10.452-0.12-17.797
									l0.234,0.234c-7.807,0.012-17.089,0.026-27.026,0.041c-0.063,0.059,0.519-0.52,0.273-0.271v0.007v0.013v0.026v0.052v0.105
									v0.21v0.419l0,0.836c0,0.556,0,1.111,0,1.662c-0.001,1.104-0.001,2.197-0.002,3.28c-0.002,2.165-0.005,4.287-0.007,6.354
									c-0.009,4.132-0.017,8.046-0.025,11.661l-0.242-0.242c8.016,0.05,14.732,0.092,19.496,0.122
									c2.345,0.027,4.206,0.049,5.531,0.064c0.614,0.012,1.102,0.021,1.476,0.028C205.83,117.255,206.008,117.264,206.018,117.274
									c0.009,0.009-0.152,0.018-0.472,0.028c-0.362,0.007-0.835,0.016-1.429,0.028c-1.311,0.015-3.155,0.037-5.476,0.063
									c-4.802,0.03-11.572,0.072-19.651,0.122l-0.241,0.002l-0.001-0.243c-0.008-3.615-0.016-7.529-0.025-11.661
									c-0.002-2.067-0.004-4.189-0.007-6.354c-0.001-1.083-0.001-2.177-0.002-3.28c0-0.552,0-1.106,0-1.662l0-0.836V93.06v-0.21
									v-0.105v-0.052v-0.026v-0.013v-0.007c-0.246,0.244,0.335-0.34,0.278-0.28c9.937,0.015,19.219,0.029,27.026,0.041l0.236,0
									l-0.002,0.234c-0.05,7.406-0.091,13.576-0.12,17.946c-0.026,2.106-0.046,3.777-0.061,4.968
									c-0.011,0.535-0.02,0.962-0.027,1.292C206.035,117.138,206.026,117.282,206.018,117.274z"/>
							</g>
						</g>
					</g>
				</g>
				<g>
					<g>
						<g>
							<rect x="178.989" y="121.135" style="fill:#F5F5F5;" width="27.028" height="12.376"/>
						</g>
					</g>
					<g>
						<g>
							<g>
								<path style="fill:#E0E0E0;" d="M206.018,133.511c-0.014-0.014-0.028-0.323-0.043-0.897c-0.012-0.622-0.029-1.449-0.05-2.485
									c-0.026-2.184-0.063-5.241-0.108-8.994l0.2,0.2c-7.049,0.02-16.559,0.046-27.026,0.075
									c-0.247,0.246,0.333-0.336,0.273-0.274v0.003v0.006v0.013v0.025v0.051v0.102v0.204l0,0.406l0,0.81
									c0,0.538-0.001,1.074-0.001,1.606c-0.001,1.064-0.002,2.116-0.003,3.151c-0.004,2.07-0.007,4.076-0.01,5.996l-0.261-0.261
									c7.796,0.05,14.503,0.094,19.328,0.124c2.363,0.03,4.262,0.055,5.632,0.072c0.624,0.013,1.127,0.024,1.521,0.033
									C205.82,133.49,206.007,133.5,206.018,133.511c0.011,0.011-0.155,0.021-0.485,0.032c-0.38,0.009-0.865,0.019-1.467,0.033
									c-1.356,0.018-3.235,0.042-5.573,0.072c-4.869,0.031-11.637,0.074-19.504,0.125l-0.261,0.002l0-0.263
									c-0.003-1.92-0.007-3.926-0.01-5.996c-0.001-1.036-0.002-2.087-0.003-3.151c0-0.532-0.001-1.068-0.001-1.606l0-0.81l0-0.406
									v-0.204v-0.102v-0.051v-0.025v-0.013v-0.006v-0.003c-0.06,0.058,0.522-0.523,0.277-0.277
									c10.467,0.029,19.978,0.056,27.026,0.075l0.202,0.001l-0.002,0.2c-0.045,3.803-0.081,6.902-0.107,9.115
									c-0.021,1.017-0.037,1.829-0.05,2.44C206.045,133.243,206.032,133.525,206.018,133.511z"/>
							</g>
						</g>
					</g>
				</g>
				<g>
					<g>
						<g>
							<path style="fill:#FFFFFF;" d="M174.21,92.713c-10.052,13.886-21.618,26.912-31.67,40.798"/>
						</g>
					</g>
					<g>
						<g>
							<g>
								<path style="fill:#E0E0E0;" d="M142.54,133.511c-0.015-0.011,0.077-0.168,0.265-0.456c0.23-0.337,0.51-0.748,0.848-1.245
									c0.743-1.077,1.854-2.608,3.251-4.483c2.79-3.753,6.783-8.832,11.255-14.387c4.473-5.556,8.51-10.591,11.376-14.28
									c1.391-1.796,2.536-3.274,3.388-4.374c0.371-0.472,0.679-0.862,0.931-1.183c0.218-0.267,0.34-0.402,0.355-0.39
									c0.015,0.011-0.076,0.168-0.265,0.456c-0.23,0.337-0.51,0.748-0.848,1.244c-0.743,1.076-1.854,2.608-3.251,4.483
									c-2.79,3.753-6.784,8.833-11.257,14.389c-4.471,5.554-8.508,10.589-11.374,14.278c-1.391,1.796-2.536,3.274-3.388,4.374
									c-0.372,0.472-0.679,0.862-0.931,1.183C142.677,133.387,142.556,133.522,142.54,133.511z"/>
							</g>
						</g>
					</g>
				</g>
				<g>
					<g>
						<g>
							<line style="fill:#FFFFFF;" x1="142.54" y1="92.642" x2="175.014" y2="133.511"/>
						</g>
					</g>
					<g>
						<g>
							<g>
								<path style="fill:#E0E0E0;" d="M175.014,133.511c-0.119,0.095-7.486-8.978-16.452-20.262
									c-8.969-11.288-16.141-20.512-16.022-20.607c0.119-0.094,7.484,8.976,16.453,20.264
									C167.959,124.19,175.133,133.416,175.014,133.511z"/>
							</g>
						</g>
					</g>
				</g>
			</g>
			<g>
				<g>
					<path style="fill:#E0E0E0;" d="M136.593,92.729c0,2.806-2.275,5.08-5.08,5.08c-2.806,0-5.08-2.275-5.08-5.08
						c0-2.806,2.274-5.08,5.08-5.08C134.319,87.649,136.593,89.924,136.593,92.729z"/>
				</g>
			</g>
			<g>
				<g>
					<path style="fill:#E0E0E0;" d="M219.681,80.398c0,2.806-2.274,5.08-5.08,5.08c-2.806,0-5.08-2.274-5.08-5.08
						c0-2.806,2.275-5.08,5.08-5.08C217.406,75.318,219.681,77.592,219.681,80.398z"/>
				</g>
			</g>
		</g>
	</g>
	<g>
		<g>
			<g>
				<g>
					<g>
						<path style="fill:#F5F5F5;" d="M367.1,432.662c0,0.412,0,22.772,0,22.772h-3.802v2.472h3.802v15.241h71.071v-13.868h-5.265
							v-3.021h5.265v-4.531h2.34v-2.06h-2.778v-17.005H367.1z"/>
					</g>
				</g>
			</g>
			<g>
				<g>
					<g>
						<polygon style="fill:#E0E0E0;" points="419.298,432.728 419.298,472.893 438.172,472.893 438.172,459.025 432.907,459.025 
							432.907,456.258 438.172,456.352 438.172,451.821 440.557,451.824 440.511,449.482 437.733,449.414 437.733,432.662 						"/>
					</g>
				</g>
			</g>
			<g>
				<g>
					<g>
						<g>
							<path style="fill:#E0E0E0;" d="M420.643,457.579c0,0.139-12.861,0.252-28.721,0.252c-15.866,0-28.724-0.113-28.724-0.252
								c0-0.139,12.858-0.252,28.724-0.252C407.783,457.327,420.643,457.44,420.643,457.579z"/>
						</g>
					</g>
				</g>
			</g>
			<g>
				<g>
					<g>
						<g>
							<path style="fill:#E0E0E0;" d="M420.643,455.266c0,0.139-12.861,0.253-28.721,0.253c-15.866,0-28.724-0.113-28.724-0.253
								c0-0.139,12.858-0.252,28.724-0.252C407.783,455.013,420.643,455.127,420.643,455.266z"/>
						</g>
					</g>
				</g>
			</g>
			<g>
				<g>
					<g>
						<g>
							<path style="fill:#E0E0E0;" d="M424.332,449.04c0,0.139-12.861,0.252-28.721,0.252c-15.866,0-28.724-0.113-28.724-0.252
								c0-0.139,12.858-0.252,28.724-0.252C411.472,448.788,424.332,448.901,424.332,449.04z"/>
						</g>
					</g>
				</g>
			</g>
			<g>
				<g>
					<g>
						<g>
							<path style="fill:#E0E0E0;" d="M424.687,466.005c0,0.139-12.861,0.252-28.721,0.252c-15.866,0-28.724-0.113-28.724-0.252
								c0-0.139,12.858-0.252,28.724-0.252C411.826,465.753,424.687,465.866,424.687,466.005z"/>
						</g>
					</g>
				</g>
			</g>
		</g>
	</g>
	<g>
		<g>
			<g>
				<g>
					<g>
						<path style="fill:#EBEBEB;" d="M152.52,360.414h54.217c3.815,0,6.908-3.093,6.908-6.908v-16.704
							c0-6.429-5.212-11.64-11.64-11.64H152.11L152.52,360.414z"/>
					</g>
				</g>
			</g>
			<g>
				<g>
					<g>
						<g>
							<g>
								<path style="fill:#EBEBEB;" d="M205.829,370.92H99.218c-2.901,0-5.253-2.352-5.253-5.253l0,0
									c0-2.901,2.352-5.253,5.253-5.253h106.611c2.901,0,5.253,2.352,5.253,5.253l0,0
									C211.082,368.568,208.73,370.92,205.829,370.92z"/>
							</g>
						</g>
					</g>
					<g>
						<g>
							<g>
								<path style="fill:#E0E0E0;" d="M77.493,220.443l58.65-1.038l37.231,140.702l-79.408,0.797L64.036,237.556
									C61.921,228.839,68.524,220.443,77.493,220.443z"/>
							</g>
						</g>
					</g>
					<g>
						<g>
							<g>
								<polygon style="fill:#EBEBEB;" points="106.706,370.92 89.158,472.903 93.965,472.903 117.037,370.92 								"/>
							</g>
						</g>
					</g>
					<g>
						<g>
							<g>
								<polygon style="fill:#E0E0E0;" points="148.078,370.92 129.43,472.903 134.237,472.903 158.41,370.92 								"/>
							</g>
						</g>
					</g>
					<g>
						<g>
							<g>
								<polygon style="fill:#EBEBEB;" points="193.835,370.92 214.64,472.903 209.832,472.903 183.504,370.92 								"/>
							</g>
						</g>
					</g>
				</g>
			</g>
			<g>
				<g>
					<g>
						<path style="fill:#EBEBEB;" d="M129.43,219.405l29.025,140.852h22.259l-23.275-124.457
							c-1.759-9.501-10.047-16.395-19.709-16.395H129.43z"/>
					</g>
				</g>
			</g>
		</g>
	</g>
</g>
<g id="Background_Simple" style="display:none;">
	<g style="display:inline;">
		<path style="fill:#EBEBEB;" d="M430.177,173.007c-10.875-16.762-29.064-29.344-49.001-30.668
			c-16.64-1.105-32.698,5.365-48.686,10.107c-15.988,4.741-33.969,7.641-48.769-0.044c-20.802-10.803-26.73-37.142-39.387-56.871
			c-23.462-36.574-75.117-49.9-115.386-33.574C88.68,78.282,55.831,121.625,52.178,164.924
			c-3.652,43.299,6.255,87.99,35.335,120.277c32.539,41.605,69.109,59.963,119.935,70.435
			c51.732,10.658,113.448,11.236,170.517-15.64c47.785-22.503,65.971-56.963,66.88-109.774
			C445.19,210.244,441.053,189.77,430.177,173.007z"/>
	</g>
</g>
<g id="Floor">
	<g>
		<g>
			<path style="fill:#263238;" d="M456.619,473.457c0,0.144-92.514,0.26-206.609,0.26c-114.135,0-206.629-0.117-206.629-0.26
				c0-0.144,92.494-0.26,206.629-0.26C364.105,473.196,456.619,473.313,456.619,473.457z"/>
		</g>
	</g>
</g>
<g id="Briefcase">
	<g>
		<g>
			<polygon style="fill:#E8505B;" points="194.526,473.745 118.067,473.745 123.853,418.087 194.526,417.632 			"/>
		</g>
		<g style="opacity:0.4;">
			<polygon points="194.526,473.745 118.067,473.745 123.853,418.087 194.526,417.632 			"/>
		</g>
		<g>
			<rect x="129.216" y="417.632" style="fill:#E8505B;" width="76.458" height="56.113"/>
		</g>
		<g style="opacity:0.2;">
			<rect x="129.216" y="417.632" width="76.458" height="56.113"/>
		</g>
		<g>
			<g>
				<path style="fill:#263238;" d="M206.325,444.795c0,0.144-17.203,0.26-38.42,0.26c-21.224,0-38.423-0.116-38.423-0.26
					c0-0.144,17.2-0.26,38.423-0.26C189.122,444.535,206.325,444.652,206.325,444.795z"/>
			</g>
		</g>
		<g>
			<g>
				<path style="fill:#263238;" d="M142.84,450.198c-0.144,0-0.26-1.882-0.26-4.202c0-2.321,0.117-4.202,0.26-4.202
					c0.144,0,0.26,1.881,0.26,4.202C143.1,448.317,142.983,450.198,142.84,450.198z"/>
			</g>
		</g>
		<g>
			<g>
				<path style="fill:#263238;" d="M195.969,449.898c-0.144,0-0.26-1.68-0.26-3.752c0-2.073,0.117-3.752,0.26-3.752
					c0.144,0,0.26,1.68,0.26,3.752C196.23,448.218,196.113,449.898,195.969,449.898z"/>
			</g>
		</g>
		<g>
			<g>
				<path style="fill:#263238;" d="M179.162,417.918c-0.052-0.001-0.013-0.604-0.185-1.661c-0.173-1.049-0.622-2.568-1.693-4.15
					c-1.059-1.578-2.756-3.187-5.053-4.236c-2.282-1.063-5.076-1.589-7.99-1.512c-2.917,0.071-5.684,0.691-7.954,1.79
					c-2.278,1.088-4.008,2.651-5.102,4.21c-1.109,1.555-1.645,3.04-1.874,4.082c-0.236,1.046-0.247,1.648-0.297,1.646
					c-0.018,0-0.026-0.15-0.026-0.437c0.002-0.286,0.025-0.711,0.124-1.249c0.172-1.074,0.667-2.623,1.771-4.252
					c1.085-1.631,2.856-3.285,5.194-4.43c2.329-1.157,5.169-1.806,8.152-1.879c2.982-0.079,5.857,0.474,8.207,1.598
					c2.364,1.109,4.107,2.815,5.156,4.468c1.066,1.66,1.472,3.243,1.586,4.324c0.062,0.543,0.065,0.969,0.041,1.255
					C179.199,417.771,179.18,417.919,179.162,417.918z"/>
			</g>
		</g>
	</g>
</g>
<g id="Plant">
	<g>
		<g>
			<g>
				<g>
					<g>
						<path style="fill:#E8505B;" d="M150.483,201.201c3.565-1.839,7.763-2.079,11.72-1.424c2.126,0.351,4.343,0.988,5.79,2.585
							c1.447,1.597,1.721,4.408,0.06,5.78c-0.989,0.817-2.368,0.941-3.65,0.926c-3.098-0.036-6.536-0.582-9.011,1.283
							c-1.412,1.063-2.352,2.832-4.041,3.355c-1.652,0.512-3.516-0.463-4.392-1.954c-0.876-1.491-0.905-3.354-0.497-5.035
							C146.462,206.716,146.892,203.054,150.483,201.201z"/>
					</g>
				</g>
			</g>
			<g>
				<g>
					<g>
						<path style="fill:#E8505B;" d="M142.316,185.434c2.18,3.113,6.417,2.083,8.381,0.182c1.964-1.9,2.795-4.655,3.55-7.281
							c1.727-6.001,3.468-12.297,2.184-18.408c-0.384-1.827-1.067-3.649-2.351-5.005c-1.284-1.355-3.258-2.162-5.063-1.685
							c-2.136,0.564-3.464,2.657-4.423,4.647c-2.821,5.85-4.314,12.336-4.336,18.831
							C140.247,179.749,140.604,182.93,142.316,185.434"/>
					</g>
				</g>
			</g>
			<g>
				<g>
					<g>
						<path style="fill:#E8505B;" d="M136.329,189.902c2.367-2.809,2.816-6.906,1.763-10.425c-1.053-3.519-3.433-6.513-6.174-8.957
							c-3.215-2.865-6.994-5.095-11.057-6.524c-1.599-0.562-3.285-1.006-4.972-0.845c-1.687,0.161-3.386,1.024-4.173,2.525
							c-1.164,2.219-0.048,4.911,1.159,7.107c2.126,3.869,4.557,7.57,7.262,11.059c2.177,2.806,4.67,5.575,7.988,6.843
							c3.317,1.268,6.763,1.119,8.522-1.182"/>
					</g>
				</g>
			</g>
			<g>
				<g>
					<g>
						<g>
							<path style="fill:#263238;" d="M142.168,232.399c0.041,0.002,0.107-0.502,0.197-1.415c0.1-1.03,0.226-2.323,0.376-3.861
								c0.18-1.624,0.417-3.558,0.868-5.663c0.45-2.1,1.154-4.376,2.058-6.684c0.937-2.294,2.079-4.38,3.413-6.048
								c1.325-1.675,2.866-2.888,4.315-3.587c1.444-0.713,2.739-1.003,3.634-1.132c0.903-0.093,1.408-0.164,1.409-0.204
								c0-0.04-0.506-0.047-1.433-0.022c-0.919,0.061-2.267,0.294-3.789,0.986c-1.527,0.677-3.162,1.908-4.552,3.618
								c-1.401,1.703-2.585,3.834-3.538,6.169c-0.92,2.349-1.614,4.648-2.044,6.793c-0.428,2.142-0.624,4.097-0.753,5.735
								c-0.123,1.639-0.169,2.967-0.191,3.885C142.118,231.888,142.128,232.397,142.168,232.399z"/>
						</g>
					</g>
				</g>
			</g>
			<g>
				<g>
					<g>
						<g>
							<path style="fill:#263238;" d="M142.434,229.428c0.02-0.001,0.033-0.227,0.038-0.657c-0.001-0.493-0.003-1.114-0.005-1.877
								c-0.005-1.629-0.004-3.986,0.083-6.898c0.144-5.822,0.646-12.089,1.614-20.923c0.917-8.307,2.148-17.975,3.446-24.26
								c0.279-1.43,0.559-2.716,0.823-3.842c0.252-1.129,0.467-2.103,0.674-2.89c0.178-0.741,0.323-1.345,0.439-1.825
								c0.094-0.419,0.134-0.642,0.115-0.648c-0.019-0.006-0.097,0.206-0.228,0.615c-0.143,0.472-0.324,1.068-0.545,1.799
								c-0.242,0.78-0.49,1.747-0.772,2.872c-0.295,1.122-0.604,2.405-0.909,3.833c-1.285,5.695-2.646,13.655-3.623,22.511
								c-0.97,8.853-1.407,16.913-1.446,22.75c-0.035,2.918,0.027,5.281,0.102,6.911c0.047,0.762,0.084,1.383,0.115,1.876
								C142.387,229.205,142.414,229.429,142.434,229.428z"/>
						</g>
					</g>
				</g>
			</g>
			<g>
				<g>
					<g>
						<g>
							<path style="fill:#263238;" d="M142.473,213.882c0.04-0.001,0.034-0.698-0.014-1.961c-0.072-1.26-0.245-3.082-0.601-5.313
								c-0.376-2.226-0.902-4.869-1.728-7.74c-0.358-1.313-1.199-4.459-3.237-9.159c-2.685-6.369-6.332-11.576-9.506-14.801
								c-0.744-0.856-1.573-1.473-2.236-2.079c-0.343-0.29-0.646-0.579-0.955-0.809c-0.311-0.214-0.6-0.413-0.868-0.598
								c-1.044-0.714-1.629-1.091-1.651-1.057c-0.094,0.127,2.339,1.559,5.411,4.827c3.06,3.261,6.605,8.432,9.268,14.748
								c1.485,3.425,2.521,6.481,3.255,9.075c0.849,2.844,1.413,5.46,1.839,7.663c0.405,2.209,0.639,4.012,0.781,5.26
								C142.349,213.19,142.433,213.883,142.473,213.882z"/>
						</g>
					</g>
				</g>
			</g>
		</g>
		<g>
			<g>
				<g>
					<polygon style="fill:#263238;" points="127.446,241.306 129.004,262.648 156.422,262.648 157.98,241.306 					"/>
				</g>
			</g>
		</g>
		<g>
			<g>
				<g>
					<rect x="124.798" y="232.894" style="fill:#263238;" width="36.453" height="8.412"/>
				</g>
			</g>
		</g>
		<g>
			<g>
				<g>
					<polygon style="fill:#455A64;" points="124.798,261.832 124.798,264.164 126.511,264.164 160.649,264.164 160.649,261.832 
											"/>
				</g>
			</g>
		</g>
		<g>
			<g>
				<g>
					<polygon style="fill:#455A64;" points="128.19,268.267 126.511,264.164 159.343,264.164 157.384,268.267 					"/>
				</g>
			</g>
		</g>
		<g>
			<g>
				<g>
					<g>
						<path style="fill:#E0E0E0;" d="M157.471,248.281c0.006,0.005-0.037,0.072-0.128,0.196c-0.109,0.144-0.244,0.323-0.41,0.543
							c-0.389,0.498-0.924,1.183-1.597,2.044l-0.071,0.091l-0.069-0.095c-1.004-1.389-2.345-3.243-3.924-5.427h0.226
							c-1.167,1.653-2.467,3.494-3.863,5.47l-0.121,0.171l-0.136-0.161c-1.426-1.696-2.974-3.538-4.582-5.451l0.264-0.003
							c-0.08,0.1-0.166,0.208-0.252,0.317c-1.421,1.781-2.796,3.506-4.097,5.136l-0.137,0.171l-0.126-0.178
							c-1.391-1.968-2.69-3.807-3.865-5.469l0.225,0.011c-1.905,2.17-3.52,4.011-4.76,5.424l-0.085,0.096l-0.064-0.108
							c-0.628-1.054-1.128-1.895-1.491-2.504c-0.156-0.272-0.282-0.492-0.382-0.667c-0.084-0.152-0.124-0.233-0.117-0.238
							c0.007-0.004,0.062,0.068,0.16,0.211c0.111,0.169,0.251,0.38,0.423,0.642c0.381,0.598,0.906,1.423,1.565,2.458l-0.149-0.012
							c1.22-1.43,2.81-3.293,4.684-5.49l0.118-0.139l0.107,0.149c1.185,1.655,2.497,3.485,3.9,5.444l-0.262-0.007
							c1.298-1.633,2.669-3.36,4.087-5.144c0.086-0.109,0.173-0.217,0.252-0.317l0.13-0.164l0.134,0.16
							c1.603,1.916,3.147,3.762,4.569,5.462l-0.257,0.01c1.41-1.967,2.723-3.798,3.902-5.443l0.114-0.159l0.112,0.159
							c1.546,2.208,2.858,4.083,3.841,5.486l-0.139-0.004c0.7-0.839,1.256-1.506,1.661-1.992c0.18-0.209,0.327-0.378,0.445-0.515
							C157.409,248.333,157.464,248.276,157.471,248.281z"/>
					</g>
				</g>
			</g>
		</g>
		<g>
			<g>
				<g>
					<g>
						<path style="fill:#455A64;" d="M158.361,241.165c0,0.094-6.87,0.171-15.343,0.171c-8.476,0-15.344-0.076-15.344-0.171
							c0-0.094,6.869-0.171,15.344-0.171C151.491,240.995,158.361,241.071,158.361,241.165z"/>
					</g>
				</g>
			</g>
		</g>
		<g>
			<g>
				<g>
					<g>
						<path style="fill:#263238;" d="M159.746,264.393c0,0.094-7.466,0.171-16.674,0.171c-9.211,0-16.676-0.076-16.676-0.171
							c0-0.094,7.465-0.171,16.676-0.171C152.28,264.223,159.746,264.299,159.746,264.393z"/>
					</g>
				</g>
			</g>
		</g>
	</g>
</g>
<g id="Desk">
	<g>
		<g>
			<g>
				<g>
					<g>
						<g>
							
								<rect x="301.602" y="264.839" transform="matrix(-1 -1.224647e-16 1.224647e-16 -1 683.4789 533.583)" style="fill:#263238;" width="80.276" height="3.905"/>
						</g>
					</g>
				</g>
				<g>
					<g>
						<g>
							<polygon style="fill:#263238;" points="394.318,268.744 409.375,212.317 346.695,212.317 333.06,268.744 							"/>
						</g>
					</g>
				</g>
			</g>
			<g>
				<g>
					<g>
						<polygon style="fill:#455A64;" points="336.816,264.472 392.812,264.472 405.846,214.925 349.562,214.925 						"/>
						<path style="fill:#263238;" d="M393.198,264.972h-57.026l13.002-50.547h57.32L393.198,264.972z M337.461,263.972h54.966
							l12.771-48.547h-55.248L337.461,263.972z"/>
					</g>
				</g>
			</g>
		</g>
		<g>
			<g>
				<g>
					<g>
						<g>
							<rect x="136.153" y="279.699" style="fill:#455A64;" width="4.055" height="193.558"/>
						</g>
					</g>
				</g>
				<g>
					<g>
						<g>
							<rect x="140.208" y="280.254" style="fill:#263238;" width="4.054" height="193.003"/>
						</g>
					</g>
				</g>
			</g>
			<g>
				<g>
					<g>
						<g>
							<rect x="385.92" y="279.699" style="fill:#455A64;" width="4.054" height="193.558"/>
						</g>
					</g>
				</g>
				<g>
					<g>
						<g>
							<rect x="389.974" y="280.254" style="fill:#263238;" width="4.055" height="193.003"/>
						</g>
					</g>
				</g>
			</g>
			<g>
				<g>
					<g>
						<rect x="89.158" y="268.453" style="fill:#455A64;" width="361.431" height="15.875"/>
					</g>
				</g>
			</g>
			<g>
				<g>
					<g>
						<rect x="252.382" y="284.329" style="fill:#455A64;" width="135.565" height="26.277"/>
					</g>
				</g>
			</g>
			<g>
				<g>
					<g>
						<path style="fill:#263238;" d="M326.207,295.653c0,1.668-1.353,3.021-3.021,3.021c-1.668,0-3.021-1.353-3.021-3.021
							c0-1.669,1.353-3.021,3.021-3.021C324.854,292.632,326.207,293.985,326.207,295.653z"/>
					</g>
				</g>
			</g>
		</g>
		<g>
			<g>
				<path style="fill:#263238;" d="M417.483,284.329c0,0.144-46.971,0.26-104.899,0.26c-57.948,0-104.909-0.116-104.909-0.26
					c0-0.144,46.961-0.26,104.909-0.26C370.512,284.069,417.483,284.185,417.483,284.329z"/>
			</g>
		</g>
	</g>
</g>
<g id="Character">
	<g>
		<g>
			<g>
				<g>
					<path style="fill:#EB996E;" d="M292.377,97.524c0.542,0,7.854,1.219,7.854,1.219l9.885,12.457l1.49,2.361l-13.336,8.525
						l-5.892-8.719l-5.01-3.25c0,0,2.167-1.896,5.281-0.542c3.114,1.354,6.229,1.219,6.229,1.219l-1.76-5.01L291.7,104.7
						L292.377,97.524z"/>
				</g>
				<g>
					<path style="fill:#263238;" d="M293.015,88.798c0.881-0.224,1.763,0.353,1.906,1.251c0.812,5.112,3.257,20.487,4.029,25.026
						c0.126,0.743-0.331,1.454-1.058,1.655L286.068,120c-0.864,0.239-1.739-0.345-1.85-1.235l-3.179-25.531
						c-0.096-0.773,0.398-1.496,1.153-1.688L293.015,88.798z"/>
				</g>
				<g>
					<path style="fill:#EBEBEB;" d="M285.098,116.845l11.993-3.341l-3.181-21.243c-0.182-1.214-1.379-2-2.565-1.685l-9.61,2.555
						L285.098,116.845z"/>
				</g>
				<g>
					<g>
						<path style="fill:#EB996E;" d="M296.853,101.307l-5.397,4.053c0,0,0.449,1.418,1.27,1.524s5.166-1.101,5.166-1.101
							L296.853,101.307z"/>
					</g>
					<g>
						<path style="fill:#EB996E;" d="M296.2,98.084l-5.645,2.471c0,0-0.368,1.84,1.749,1.586l-1.895,1.355
							c0,0,0.47,0.821,2.834,0.919c2.364,0.098,4.651-3.176,4.651-3.176L296.2,98.084z"/>
					</g>
				</g>
			</g>
			<g>
				<g>
					<path style="fill:#D1734A;" d="M301.806,104.367c-0.008,0.077-0.687-0.061-1.44-0.755c-0.382-0.327-0.782-0.757-1.297-1.088
						c-0.515-0.344-1.14-0.503-1.788-0.229c-2.621,1.33-4.843,2.471-4.905,2.32c-0.045-0.116,1.97-1.418,4.723-2.808
						c0.375-0.147,0.813-0.213,1.213-0.135c0.4,0.073,0.739,0.256,1.023,0.453c0.57,0.403,0.947,0.874,1.284,1.22
						C301.271,104.071,301.825,104.299,301.806,104.367z"/>
				</g>
			</g>
			<g>
				<g>
					<path style="fill:#D1734A;" d="M300.701,118.449c-0.083,0.103-1.473-1.557-1.729-4.109c-0.286-2.55,0.724-4.464,0.827-4.381
						c0.154,0.048-0.583,1.933-0.309,4.326C299.724,116.681,300.841,118.369,300.701,118.449z"/>
				</g>
			</g>
			<g>
				<g>
					<path style="fill:#D1734A;" d="M299.951,100.571c-0.066,0.054-0.369-0.367-1.092-0.601c-0.717-0.257-1.795-0.197-2.863,0.329
						c-1.069,0.508-1.995,1.157-2.757,1.474c-0.755,0.336-1.277,0.381-1.29,0.316c-0.019-0.075,0.445-0.241,1.123-0.644
						c0.688-0.383,1.558-1.07,2.706-1.619c0.576-0.265,1.176-0.442,1.747-0.468c0.569-0.026,1.08,0.09,1.47,0.269
						C299.792,100,300.007,100.555,299.951,100.571z"/>
				</g>
			</g>
		</g>
		<g>
			<path style="fill:#E8505B;" d="M299.527,135.967l29.394,18.87l-7.791,22.279c0,0-20.113-6.207-19.736-6.858
				C301.771,169.607,299.527,135.967,299.527,135.967z"/>
		</g>
		<g>
			<g>
				<g>
					<g>
						<g>
							<g>
								<path style="fill:#263238;" d="M291.926,437.576l-4.622,21.29c0,0,20.089,11.849,19.617,15.867l-41.603-7.48l5.841-33.469
									L291.926,437.576z"/>
							</g>
						</g>
					</g>
				</g>
				<g>
					<g>
						<g>
							<g>
								<path style="fill:#455A64;" d="M265.317,467.253l0.721-3.351l39.619,8.425c0,0,1.707,1.139,1.263,2.406L265.317,467.253z"/>
							</g>
						</g>
					</g>
				</g>
			</g>
		</g>
		<g>
			<g>
				<g>
					<g>
						<g>
							<g>
								<path style="fill:#263238;" d="M244.609,439.918l-0.687,21.776c0,0,21.903,8.011,22.168,12.048l-42.27,0.185l-0.322-33.974
									L244.609,439.918z"/>
							</g>
						</g>
					</g>
				</g>
				<g style="opacity:0.6;">
					<g>
						<g>
							<g>
								<path style="fill:#455A64;" d="M223.821,473.927l0.101-3.426l40.49,1.104c0,0,1.885,0.811,1.678,2.137L223.821,473.927z"/>
							</g>
						</g>
					</g>
				</g>
			</g>
		</g>
		<g>
			<g>
				<g>
					<g>
						<g>
							<g>
								<g>
									<g>
										<g>
											<g>
												<g>
													<g>
														<g>
															<g>
																<path style="fill:#EB996E;" d="M250.738,82.861l4.308,49.955l25.02-1.998c0.156-2.921-0.053-14.223-0.053-14.223
																	s10.41-1.619,10.538-12.027c0.062-5.054-0.66-15.501-1.421-24.911c-0.843-10.44-9.868-18.292-20.324-17.681h0
																	C257.977,62.609,249.806,72.054,250.738,82.861z"/>
															</g>
														</g>
													</g>
												</g>
											</g>
										</g>
									</g>
								</g>
							</g>
						</g>
						<g>
							<g>
								<g>
									<g>
										<g>
											<g>
												<g>
													<g>
														<g>
															<g>
																<path style="fill:#D1734A;" d="M280.029,116.445c0,0-6.578,0.535-13.569-3.856c0,0,3.207,7.491,13.593,6.553
																	L280.029,116.445z"/>
															</g>
														</g>
													</g>
												</g>
											</g>
										</g>
									</g>
								</g>
							</g>
						</g>
					</g>
				</g>
			</g>
			<g>
				<g>
					<g>
						<g>
							<g>
								<g>
									<g>
										<g>
											<g>
												<g>
													<g>
														<g>
															<g>
																<g>
																	<g>
																		<g>
																			<path style="fill:#263238;" d="M285.097,86.95c0.028,0.785-0.614,1.456-1.433,1.5
																				c-0.818,0.044-1.504-0.555-1.532-1.34c-0.028-0.785,0.614-1.457,1.432-1.501
																				C284.382,85.565,285.069,86.166,285.097,86.95z"/>
																		</g>
																	</g>
																</g>
															</g>
														</g>
													</g>
												</g>
											</g>
										</g>
									</g>
									<g>
										<g>
											<g>
												<g>
													<g>
														<g>
															<g>
																<g>
																	<g>
																		<g>
																			<g>
																				<path style="fill:#263238;" d="M286.905,84.902c-0.184,0.194-1.31-0.64-2.91-0.635
																					c-1.598-0.019-2.771,0.804-2.945,0.608c-0.085-0.087,0.102-0.437,0.613-0.809
																					c0.503-0.371,1.361-0.731,2.358-0.727c0.996,0.006,1.835,0.372,2.316,0.748
																					C286.829,84.465,286.996,84.815,286.905,84.902z"/>
																			</g>
																		</g>
																	</g>
																</g>
															</g>
														</g>
													</g>
												</g>
											</g>
										</g>
									</g>
								</g>
								<g>
									<g>
										<g>
											<g>
												<g>
													<g>
														<g>
															<g>
																<g>
																	<g>
																		<g>
																			<path style="fill:#263238;" d="M269.74,86.951c0.028,0.785-0.614,1.455-1.433,1.5
																				c-0.818,0.044-1.504-0.555-1.532-1.34s0.614-1.456,1.432-1.501C269.025,85.565,269.712,86.166,269.74,86.951z"/>
																		</g>
																	</g>
																</g>
															</g>
														</g>
													</g>
												</g>
											</g>
										</g>
									</g>
									<g>
										<g>
											<g>
												<g>
													<g>
														<g>
															<g>
																<g>
																	<g>
																		<g>
																			<g>
																				<path style="fill:#263238;" d="M271.183,85.201c-0.185,0.194-1.312-0.639-2.91-0.635
																					c-1.598-0.019-2.772,0.804-2.945,0.608c-0.085-0.087,0.101-0.436,0.614-0.809
																					c0.503-0.371,1.361-0.731,2.357-0.727c0.996,0.006,1.834,0.372,2.316,0.748
																					C271.106,84.763,271.273,85.114,271.183,85.201z"/>
																			</g>
																		</g>
																	</g>
																</g>
															</g>
														</g>
													</g>
												</g>
											</g>
										</g>
									</g>
								</g>
								<g>
									<g>
										<g>
											<g>
												<g>
													<g>
														<g>
															<g>
																<g>
																	<g>
																		<g>
																			<path style="fill:#263238;" d="M276.988,97.062c-0.008-0.091,0.987-0.263,2.598-0.469
																				c0.408-0.042,0.795-0.123,0.864-0.402c0.096-0.295-0.075-0.735-0.273-1.211c-0.384-0.988-0.786-2.024-1.208-3.11
																				c-1.677-4.428-2.891-8.069-2.713-8.135c0.179-0.066,1.684,3.469,3.361,7.898c0.404,1.092,0.79,2.133,1.157,3.129
																				c0.154,0.464,0.42,0.991,0.212,1.603c-0.11,0.305-0.41,0.527-0.672,0.597c-0.262,0.08-0.492,0.084-0.693,0.096
																				C277.999,97.146,276.994,97.153,276.988,97.062z"/>
																		</g>
																	</g>
																</g>
															</g>
														</g>
													</g>
												</g>
											</g>
										</g>
									</g>
								</g>
								<g>
									<g>
										<g>
											<g>
												<g>
													<g>
														<g>
															<g>
																<g>
																	<g>
																		<g>
																			<path style="fill:#263238;" d="M272.281,98.169c0.26-0.015,0.263,1.721,1.749,2.953
																				c1.484,1.236,3.334,1.041,3.348,1.284c0.024,0.109-0.412,0.337-1.193,0.358c-0.766,0.026-1.885-0.22-2.794-0.974
																				c-0.906-0.756-1.296-1.764-1.355-2.476C271.968,98.589,272.162,98.159,272.281,98.169z"/>
																		</g>
																	</g>
																</g>
															</g>
														</g>
													</g>
												</g>
											</g>
										</g>
									</g>
								</g>
							</g>
						</g>
					</g>
					<g>
						<g>
							<g>
								<g>
									<g>
										<g>
											<g>
												<g>
													<g>
														<g>
															<path style="fill:#263238;" d="M271.596,78.933c-0.158,0.435-1.755,0.229-3.631,0.455
																c-1.881,0.188-3.395,0.738-3.643,0.348c-0.111-0.187,0.153-0.596,0.765-1.017c0.606-0.42,1.574-0.82,2.7-0.945
																c1.126-0.123,2.158,0.056,2.841,0.334C271.317,78.384,271.664,78.726,271.596,78.933z"/>
														</g>
													</g>
												</g>
											</g>
										</g>
									</g>
								</g>
							</g>
						</g>
					</g>
					<g>
						<g>
							<g>
								<g>
									<g>
										<g>
											<g>
												<g>
													<g>
														<g>
															<path style="fill:#263238;" d="M286.317,80.273c-0.281,0.363-1.383-0.014-2.708-0.032
																c-1.324-0.064-2.447,0.244-2.705-0.136c-0.113-0.184,0.063-0.548,0.554-0.892c0.483-0.343,1.291-0.623,2.201-0.595
																c0.91,0.029,1.699,0.358,2.16,0.73C286.287,79.722,286.441,80.096,286.317,80.273z"/>
														</g>
													</g>
												</g>
											</g>
										</g>
									</g>
								</g>
							</g>
						</g>
					</g>
				</g>
			</g>
			<g>
				<g>
					<g>
						<g>
							<path style="fill:#263238;" d="M262.038,71.448c-0.019,0.015-0.038,0.03-0.057,0.045c-1.657,1.309-2.753,3.203-3.043,5.294
								c-0.01,0.074-0.02,0.144-0.029,0.21c-0.407,2.969-0.333,5.989-0.769,8.953c-0.436,2.965-1.463,5.981-3.655,8.023
								c-0.902,0.84-2.496,1.419-3.238,0.434c-0.287-0.381-0.334-0.885-0.371-1.36c-0.555-7.168-2.513-13.528-2.499-21.023
								c0.004-2.04,0.964-3.955,2.622-5.143c1.569-1.125,3.486-2.291,5.229-1.466c1.749,0.828,4.004,4.091,5.356,5.475"/>
						</g>
					</g>
				</g>
			</g>
			<g>
				<g>
					<g>
						<g>
							<g>
								<g>
									<g>
										<g>
											<g>
												<g>
													<g>
														<path style="fill:#EB996E;" d="M254.247,87.57c-0.177-0.077-7.151-2.115-6.924,5.001
															c0.227,7.116,7.324,5.42,7.33,5.215C254.659,97.581,254.247,87.57,254.247,87.57z"/>
													</g>
												</g>
											</g>
										</g>
									</g>
								</g>
							</g>
						</g>
					</g>
				</g>
				<g>
					<g>
						<g>
							<g>
								<g>
									<g>
										<g>
											<g>
												<g>
													<g>
														<g>
															<path style="fill:#D1734A;" d="M252.393,95.159c-0.032-0.022-0.121,0.091-0.328,0.193
																c-0.201,0.1-0.55,0.176-0.926,0.049c-0.76-0.252-1.432-1.425-1.507-2.707c-0.039-0.647,0.077-1.268,0.29-1.786
																c0.201-0.528,0.526-0.902,0.902-0.981c0.374-0.099,0.649,0.119,0.743,0.316c0.102,0.196,0.061,0.339,0.099,0.35
																c0.021,0.017,0.149-0.124,0.082-0.416c-0.034-0.14-0.123-0.305-0.294-0.437c-0.175-0.133-0.429-0.196-0.691-0.159
																c-0.548,0.056-1.025,0.576-1.26,1.145c-0.264,0.572-0.41,1.27-0.366,1.997c0.091,1.432,0.868,2.751,1.906,3.015
																c0.505,0.115,0.917-0.05,1.128-0.224C252.386,95.332,252.418,95.172,252.393,95.159z"/>
														</g>
													</g>
												</g>
											</g>
										</g>
									</g>
								</g>
							</g>
						</g>
					</g>
				</g>
			</g>
			<g>
				<g>
					<g>
						<g>
							<path style="fill:#263238;" d="M255.988,66.517c-1.752-2.847,3.048-6.934,6.56-8.042c3.512-1.107,8.138,0.605,11.633,1.764
								c2.205,0.731,4.403,1.752,6.724,1.656c1.557-0.064,3.042-0.63,4.511-1.15c1.469-0.519,2.998-1.005,4.552-0.899
								c1.554,0.106,3.155,0.933,3.745,2.375c0.59,1.442-0.255,3.418-1.798,3.632c1.969-1.082,4.818,0.34,5.138,2.564
								c0.32,2.224-2.011,4.391-4.206,3.912c1.012-0.767,2.563,0.5,2.438,1.763c-0.125,1.263-1.271,2.183-2.433,2.693
								c-2.967,1.303-6.427,0.887-9.499-0.146c-3.072-1.034-5.92-2.644-8.965-3.754c-3.045-1.11-8.145-3.102-11.201-2.024
								c-2.25,0.794-3.816,3.504-5.087,2.906c-1.228-0.578-2.007-1.865-2.252-3.2C255.603,69.233,255.795,67.86,255.988,66.517"/>
						</g>
					</g>
				</g>
			</g>
			<g>
				<g>
					<g>
						<g>
							<g>
								<path style="fill:#455A64;" d="M292.774,65.658c-0.059-0.035-0.367,0.526-1.131,1.357c-0.765,0.816-2.056,1.889-3.954,2.545
									c-1.864,0.651-4.398,0.861-6.786-0.274c-2.421-1.083-4.491-3.253-6.875-5.298c-2.378-2.062-5.186-3.588-7.998-3.842
									c-2.796-0.266-5.379,0.759-6.805,2.356c-1.435,1.613-1.721,3.452-1.614,4.6c0.052,0.587,0.2,1.022,0.306,1.308
									c0.128,0.28,0.209,0.417,0.23,0.408c0.066-0.022-0.231-0.608-0.264-1.73c-0.022-1.094,0.335-2.802,1.704-4.246
									c1.354-1.426,3.766-2.333,6.378-2.051c2.624,0.272,5.285,1.72,7.607,3.734c2.339,1.998,4.474,4.226,7.064,5.352
									c2.579,1.183,5.294,0.896,7.221,0.15c1.972-0.751,3.265-1.935,3.99-2.832c0.359-0.457,0.609-0.833,0.742-1.109
									C292.732,65.816,292.795,65.669,292.774,65.658z"/>
							</g>
						</g>
					</g>
				</g>
			</g>
			<g>
				<g>
					<g>
						<g>
							<g>
								<path style="fill:#455A64;" d="M252.435,87.26c0.026,0.024,0.307-0.196,0.576-0.76c0.271-0.556,0.484-1.472,0.355-2.579
									c-0.158-2.292-2.185-4.753-2.443-7.92c-0.157-1.564,0.117-3.09,0.788-4.247c0.665-1.155,1.707-1.906,2.645-2.284
									c0.948-0.394,1.807-0.397,2.376-0.323c0.572,0.091,0.879,0.224,0.905,0.168c0.017-0.029-0.252-0.251-0.849-0.435
									c-0.59-0.166-1.54-0.246-2.605,0.125c-1.053,0.355-2.239,1.129-3.03,2.421c-0.785,1.28-1.099,2.964-0.929,4.643
									c0.145,1.688,0.76,3.215,1.372,4.485c0.609,1.276,1.118,2.418,1.278,3.438C253.248,86.074,252.33,87.226,252.435,87.26z"/>
							</g>
						</g>
					</g>
				</g>
			</g>
		</g>
		<g>
			<path style="fill:#263238;" d="M294.204,455.837c0,0,21.668-106.293,21.685-108.421l-38.706-20.464l-14.989,124.743
				L294.204,455.837z"/>
		</g>
		<g>
			<path style="fill:#263238;" d="M245.462,459.398l29.931-184.229v-39.736l-43.348,3.096
				c-0.516,1.548-11.445,221.112-11.445,221.112l4.22-0.244H245.462"/>
		</g>
		<g>
			<polygon style="fill:#263238;" points="298.921,232.624 315.889,347.416 277.955,338.216 262.492,236.355 			"/>
		</g>
		<g>
			<line style="fill:#E8505B;" x1="307.39" y1="278.426" x2="305.464" y2="262.8"/>
		</g>
		<g>
			<path style="fill:#E8505B;" d="M305.464,282.068c0,0,6.591-5.663,7.249-9.939c0.658-4.276-7.915-73.019-7.915-73.019
				l-4.368-56.823c0,1.003,0.116-7.16-1.203-7.651c-4.039-1.506-12.221-4.247-12.221-4.247l-4.695-4.218
				c0,0,8.436,36.077,10.08,45.943L305.464,282.068z"/>
		</g>
		<g>
			<path style="fill:#E8505B;" d="M251.271,122.273l-7.098,4.724l-26.63,10.477l11.823,44.608l-1.581,25.869l-1.518,16.448
				c0,0-7.924,40.727-14.925,65.477c0,0,7.807,14.802,14.229,16.866l2.67,1.586l9.518-69.71l8.174-11.029
				c0.784-1.058,1.518-2.145,2.207-3.267c2.006-3.27,6.582-10.702,10.23-16.434c4.816-7.569,11.009-24.771,9.174-32.11
				C265.708,168.438,251.271,122.273,251.271,122.273z"/>
		</g>
		<g>
			<path style="fill:#263238;" d="M233.179,276.057c6.22-5.024,11.432-11.291,15.238-18.322"/>
		</g>
		<g>
			<path style="fill:#EBEBEB;" d="M251.271,122.273l6.41,41.125c-0.079,4.174-0.879,9.961-2.595,15.506l-11.44,36.97
				c0,0-8.989,20.17-5.887,22.745c3.102,2.575,27.303,0,27.303,0l32.739-4.751c1.518-0.22,2.596-1.594,2.448-3.121l-4.863-50.222
				c-1.635-3.469-2.31-10.563-2.994-13.089l-10.08-41.265l-2.061-0.268l-4.482,3.077l-2.356,0.188l-19.817-9.584L251.271,122.273z"
				/>
		</g>
		<g>
			<path style="fill:#E0E0E0;" d="M245.301,210.525c5.29-16.487,12.139-43.295,12.139-43.295
				c2.131,14.022-0.202,28.354-5.414,41.545c-4.254,10.769-9.405,18.909-12.951,29.931l-0.106,0.457c0,0-1.999,0.103-1.862-2.845
				c0.138-2.947,2.972-11.724,4.912-16.591S245.301,210.525,245.301,210.525z"/>
		</g>
		<g>
			<polygon style="fill:#E8505B;" points="276.908,132.489 272.463,132.489 271.127,138.576 275.02,143.29 278.94,142.899 
				280.217,138.53 279.167,136.09 			"/>
		</g>
		<g>
			<path style="fill:#E8505B;" d="M302.857,168.052c1.406,0.281,16.866,10.682,22.488,9.557c5.622-1.124,10.167-6.418,10.765-7.129
				c3.188-3.784,1.19-11.627,0.273-14.588c-0.225-0.727-0.534-1.416-0.916-2.074L311.6,112.797l-14.069,8.55l14.602,26.649
				L302.857,168.052z"/>
		</g>
		<g>
			<path style="fill:#E8505B;" d="M187.727,217.621c-1.945-4.862-1.496-10.357,0.867-15.03c3.241-6.41,8.373-16.766,9.453-20.161
				c1.606-5.046,16.559-43.799,19.496-44.955l13.035,43.881l-15.099,31.808l17.7,33.345l-14.786,15.895
				c0,0-27.914-38.919-30.208-43.735C188.021,218.324,187.868,217.974,187.727,217.621z"/>
		</g>
		<g>
			<path style="fill:#EB996E;" d="M233.839,272.523c3.229-3.039,5.635-6.063,7.389-8.724c-0.041-0.107-0.048-0.198-0.01-0.267
				c0.055-0.099,0.167-0.151,0.302-0.183c0.972-1.514,1.738-2.891,2.321-4.069c-2.473-1.608-5.702-4.04-2.189-4.54
				c4.323-0.615,7.414-2.717,7.855-3.867c0.44-1.15-1-2.183-2.139-1.448c-0.921,0.594-2.762,1.107-4.161,1.436
				c-1.154,0.271-2.346,0.354-3.525,0.223c-1.373-0.152-7.002-2.594-7.984-2.775l-10.528,11.084
				C221.17,259.394,229.249,267.961,233.839,272.523z"/>
		</g>
		<g>
			<g>
				<path style="fill:#263238;" d="M302.757,169.272c-0.035,0.008-0.164-0.432-0.367-1.235c-0.206-0.802-0.467-1.971-0.757-3.423
					c-0.582-2.902-1.226-6.948-1.63-11.451c-0.4-4.504-0.482-8.601-0.423-11.56c0.028-1.48,0.078-2.677,0.139-3.503
					c0.058-0.826,0.106-1.281,0.142-1.28c0.036,0.002,0.056,0.46,0.06,1.286c0.007,0.931,0.016,2.102,0.027,3.497
					c0.036,2.952,0.176,7.028,0.574,11.513c0.403,4.483,0.987,8.52,1.474,11.431c0.236,1.375,0.435,2.53,0.593,3.447
					C302.73,168.809,302.792,169.264,302.757,169.272z"/>
			</g>
		</g>
		<g>
			<g>
				<path style="fill:#263238;" d="M315.036,171.645c-0.006,0.017-0.121-0.012-0.335-0.083c-0.213-0.073-0.519-0.207-0.893-0.422
					c-0.738-0.435-1.723-1.262-2.54-2.578c-0.856-1.304-1.354-3.1-1.816-5.041c-0.46-1.956-0.907-4.116-1.196-6.427
					c-0.42-4.624-0.771-8.774-0.999-11.798c-0.097-1.43-0.179-2.629-0.243-3.577c-0.046-0.846-0.054-1.315-0.018-1.318
					c0.036-0.003,0.112,0.46,0.22,1.3c0.108,0.945,0.245,2.139,0.408,3.564c0.321,3.007,0.734,7.188,1.149,11.769
					c0.285,2.274,0.715,4.433,1.147,6.379c0.438,1.949,0.882,3.686,1.664,4.959c0.747,1.29,1.653,2.124,2.335,2.597
					C314.609,171.438,315.054,171.6,315.036,171.645z"/>
			</g>
		</g>
		<g style="opacity:0.3;">
			<g>
				<path d="M306.94,140.481c-1.218,4.605-2.063,9.309-2.524,14.051c-0.276,2.839-0.406,5.764,0.448,8.485
					c0.853,2.721,2.869,5.231,5.627,5.959c-1.256-9.276-2.367-18.571-3.332-27.882"/>
			</g>
		</g>
		<g style="opacity:0.3;">
			<g>
				<path d="M225.058,230.388c0,0,4.684,9.592,7.273,14.613c5.4-22.31-1.451-45.79,0.783-68.636l-3.904,7.869l-1.104,18.211
					l-0.839,10.681C227.267,213.128,226.472,224.617,225.058,230.388z"/>
			</g>
		</g>
		<g>
			<g>
				<path style="fill:#263238;" d="M228.835,137.877c0.031-0.018,0.312,0.426,0.794,1.246c0.246,0.408,0.534,0.914,0.831,1.521
					c0.302,0.605,0.67,1.283,0.999,2.069c0.714,1.547,1.435,3.447,2.107,5.599c0.643,2.16,1.219,4.576,1.608,7.15
					c0.368,2.578,0.511,5.058,0.517,7.312c-0.024,2.254-0.169,4.282-0.407,5.969c-0.089,0.847-0.247,1.603-0.362,2.269
					c-0.11,0.667-0.24,1.235-0.358,1.696c-0.226,0.924-0.367,1.43-0.402,1.422c-0.035-0.008,0.039-0.53,0.203-1.462
					c0.087-0.465,0.188-1.035,0.27-1.703c0.087-0.667,0.219-1.42,0.283-2.264c0.19-1.68,0.295-3.692,0.293-5.924
					c-0.032-2.232-0.189-4.685-0.553-7.237c-0.385-2.548-0.941-4.941-1.553-7.088c-0.641-2.138-1.32-4.035-1.985-5.589
					c-0.304-0.789-0.648-1.474-0.923-2.087c-0.27-0.616-0.531-1.133-0.748-1.554C229.025,138.373,228.804,137.895,228.835,137.877z"
					/>
			</g>
		</g>
		<g>
			<g>
				<path style="fill:#263238;" d="M215.299,213.424c-0.074,0.045-0.735-1.058-2.038-2.653c-1.302-1.575-3.288-3.686-5.913-5.355
					c-1.315-0.811-2.773-1.205-4.077-0.981c-1.304,0.2-2.388,0.809-3.233,1.372c-1.685,1.165-2.614,2.074-2.677,1.999
					c-0.023-0.025,0.185-0.272,0.596-0.683c0.415-0.407,1.022-0.996,1.87-1.618c0.84-0.615,1.952-1.297,3.369-1.545
					c1.42-0.275,3.051,0.157,4.419,1.008c2.726,1.735,4.68,3.913,5.935,5.575c0.625,0.836,1.073,1.553,1.36,2.06
					C215.199,213.111,215.328,213.408,215.299,213.424z"/>
			</g>
		</g>
		<g>
			<g>
				<path style="fill:#263238;" d="M212.03,202.913c0.113-0.069,1.411,2.001,2.33,4.853c0.932,2.848,1.098,5.286,0.966,5.296
					c-0.154,0.022-0.546-2.343-1.461-5.136C212.965,205.13,211.893,202.985,212.03,202.913z"/>
			</g>
		</g>
		<g>
			<g>
				<path style="fill:#263238;" d="M224.748,229.773c0.031-0.016,0.297,0.439,0.753,1.279c0.489,0.925,1.127,2.132,1.899,3.59
					c1.589,3.05,3.764,7.301,6.172,12.07l0.083,0.164l-0.127,0.133c-0.316,0.33-0.655,0.683-0.996,1.039
					c-3.928,4.092-7.505,7.777-10.113,10.426c-1.263,1.267-2.309,2.317-3.107,3.118c-0.742,0.728-1.165,1.119-1.191,1.094
					c-0.026-0.025,0.347-0.463,1.044-1.234c0.768-0.83,1.774-1.919,2.988-3.233c2.54-2.714,6.074-6.439,10.003-10.531
					c0.341-0.355,0.68-0.708,0.997-1.038l-0.045,0.297c-2.399-4.773-4.52-9.051-6.025-12.143c-0.713-1.489-1.303-2.72-1.755-3.663
					C224.925,230.273,224.718,229.789,224.748,229.773z"/>
			</g>
		</g>
		<g>
			<g>
				<path style="fill:#263238;" d="M244.226,209.646c-0.018-0.001-0.026-0.298-0.025-0.863c0.007-0.611,0.017-1.435,0.03-2.472
					c0.05-2.196,0.12-5.288,0.206-9.087c0.111-3.837,0.196-8.402,0.406-13.478c0.243-5.063,0.654-10.689,2.24-16.374
					c0.785-2.812,1.835-5.487,3.157-7.909l0.188,0.375c-1.277-0.19-2.394-0.908-3.194-1.813c-0.811-0.904-1.36-1.997-1.669-3.106
					c-0.619-2.238-0.5-4.445-0.522-6.476c0.003-4.078,0.005-7.71,0.007-10.758c0.018-2.994,0.033-5.408,0.043-7.127
					c0.015-0.799,0.026-1.435,0.035-1.915c0.013-0.436,0.027-0.664,0.043-0.664c0.016,0,0.032,0.228,0.049,0.664
					c0.013,0.48,0.031,1.116,0.052,1.915c0.026,1.719,0.063,4.133,0.109,7.126c0.03,3.048,0.066,6.68,0.107,10.757
					c0.035,2.039-0.06,4.218,0.543,6.344c0.3,1.056,0.816,2.066,1.574,2.906c0.746,0.838,1.763,1.476,2.895,1.642l0.363,0.053
					l-0.175,0.322c-1.296,2.388-2.328,5.025-3.104,7.805c-1.568,5.618-1.994,11.207-2.262,16.257
					c-0.236,5.062-0.359,9.633-0.517,13.466c-0.155,3.797-0.282,6.887-0.372,9.082c-0.053,1.035-0.096,1.858-0.127,2.469
					C244.271,209.351,244.244,209.647,244.226,209.646z"/>
			</g>
		</g>
		<g>
			<g>
				<path style="fill:#263238;" d="M287.084,131.024c0.016-0.005,0.095,0.183,0.232,0.549c0.149,0.414,0.341,0.948,0.579,1.61
					c0.504,1.465,1.202,3.495,2.063,6c0.865,2.571,1.892,5.62,3.04,9.03c0.549,1.727,1.23,3.484,1.743,5.439
					c0.228,0.979,0.358,2.049,0.127,3.112c-0.221,1.043-0.785,2.11-1.782,2.722l0.08-0.364c0.846,1.252,1.734,2.576,2.566,3.972
					c1.228,2.074,2.259,4.237,2.8,6.475c0.547,2.243,0.546,4.477,0.453,6.555c-0.244,4.16-0.52,7.887-0.734,11.027
					c-0.229,3.091-0.415,5.614-0.55,7.427c-0.073,0.834-0.131,1.504-0.176,2.018c-0.046,0.461-0.079,0.702-0.097,0.701
					c-0.018-0.001-0.02-0.245-0.008-0.708c0.02-0.515,0.046-1.187,0.078-2.024c0.094-1.816,0.224-4.342,0.384-7.438
					c0.178-3.156,0.389-6.888,0.622-11.024c0.08-2.064,0.067-4.248-0.469-6.414c-0.531-2.168-1.539-4.282-2.753-6.33
					c-0.821-1.379-1.703-2.697-2.546-3.949l-0.151-0.225l0.231-0.14c0.839-0.509,1.351-1.439,1.555-2.388
					c0.213-0.957,0.102-1.951-0.113-2.894c-0.483-1.883-1.164-3.689-1.696-5.408c-1.107-3.424-2.098-6.485-2.932-9.066
					c-0.799-2.525-1.447-4.572-1.914-6.049c-0.203-0.674-0.366-1.217-0.493-1.639C287.117,131.228,287.068,131.029,287.084,131.024z
					"/>
			</g>
		</g>
		<g>
			<g>
				<path style="fill:#455A64;" d="M248.16,255.263c0.029,0.021-0.135,0.311-0.456,0.818c-0.321,0.507-0.804,1.228-1.416,2.109
					c-1.223,1.762-2.973,4.155-4.997,6.728c-2.025,2.573-3.938,4.839-5.362,6.443c-0.712,0.802-1.299,1.442-1.716,1.873
					c-0.417,0.432-0.66,0.66-0.687,0.636c-0.056-0.049,0.772-1.085,2.122-2.747c1.35-1.663,3.214-3.959,5.234-6.526
					c2.018-2.567,3.811-4.919,5.108-6.623C247.287,256.269,248.099,255.22,248.16,255.263z"/>
			</g>
		</g>
		<g>
			<g>
				<path style="fill:#455A64;" d="M263.829,242.356c0,0-0.005,0.192-0.042,0.563c-0.041,0.391-0.099,0.937-0.174,1.647
					c-0.167,1.467-0.41,3.595-0.721,6.326c-0.648,5.492-1.624,13.433-2.9,23.238c-2.531,19.612-6.374,46.656-10.501,76.539
					c-2.057,14.948-3.946,29.195-5.558,42.168c-0.416,3.244-0.747,6.411-1.206,9.481c-0.469,3.06-0.925,6.032-1.366,8.905
					c-0.871,5.746-1.682,11.099-2.423,15.988c-1.468,9.776-2.629,17.691-3.389,23.167c-0.38,2.738-0.66,4.865-0.828,6.31
					c-0.084,0.722-0.139,1.274-0.163,1.645c-0.011,0.185-0.016,0.327-0.005,0.417c0.012,0.119,0.067-0.008,0.064,0.016
					c0,0-0.003,0.012-0.015,0.034c-0.013,0.043-0.08,0.01-0.076-0.045c-0.021-0.096-0.024-0.238-0.022-0.425
					c0.007-0.374,0.045-0.929,0.112-1.654c0.134-1.45,0.382-3.583,0.731-6.326c0.699-5.485,1.804-13.41,3.226-23.194
					c0.722-4.892,1.512-10.249,2.36-15.999c0.433-2.875,0.88-5.847,1.34-8.909c0.449-3.056,0.773-6.232,1.183-9.472
					c1.586-12.977,3.461-27.23,5.518-42.179c4.127-29.885,8.027-56.919,10.652-76.516c1.292-9.786,2.338-17.712,3.064-23.214
					c0.353-2.726,0.628-4.85,0.818-6.314c0.097-0.707,0.172-1.251,0.226-1.641C263.788,242.543,263.829,242.356,263.829,242.356z"/>
			</g>
		</g>
		<g>
			<g>
				<path style="fill:#455A64;" d="M286.645,454.851c0,0,0.015-0.186,0.071-0.546c0.061-0.379,0.148-0.908,0.259-1.592
					c0.242-1.419,0.594-3.476,1.045-6.114c0.934-5.327,2.279-12.999,3.939-22.471c3.379-18.983,8.041-45.175,13.19-74.104
					c0.376-1.782,0.507-3.587,0.319-5.369c-0.227-1.775-0.524-3.572-0.785-5.336c-0.547-3.536-1.086-7.021-1.616-10.445
					c-1.078-6.845-2.141-13.444-3.19-19.724c-2.088-12.562-4.104-23.851-5.906-33.311c-1.805-9.459-3.387-17.09-4.592-22.338
					c-0.569-2.632-1.085-4.658-1.404-6.039c-0.156-0.675-0.277-1.198-0.364-1.571c-0.079-0.355-0.107-0.54-0.107-0.54
					s0.062,0.176,0.158,0.527c0.098,0.371,0.236,0.889,0.414,1.559c0.352,1.373,0.9,3.393,1.499,6.019
					c1.266,5.237,2.904,12.86,4.756,22.314c1.848,9.454,3.903,20.741,6.017,33.301c1.062,6.28,2.136,12.879,3.221,19.724
					c0.533,3.424,1.074,6.91,1.624,10.447c0.264,1.776,0.557,3.537,0.79,5.361c0.195,1.832,0.057,3.713-0.326,5.525
					c-5.207,28.914-9.921,55.092-13.338,74.066c-1.729,9.459-3.129,17.121-4.102,22.44c-0.492,2.631-0.876,4.682-1.141,6.097
					c-0.133,0.68-0.236,1.207-0.31,1.583C286.696,454.671,286.645,454.851,286.645,454.851z"/>
			</g>
		</g>
		<g>
			<g>
				<path style="fill:#455A64;" d="M275.393,273.87c0.142,0.022-1.626,11.924-3.949,26.58c-2.323,14.661-4.322,26.524-4.464,26.502
					c-0.142-0.023,1.626-11.922,3.949-26.583C273.253,285.713,275.251,273.847,275.393,273.87z"/>
			</g>
		</g>
		<g>
			<g>
				<path style="fill:#455A64;" d="M245.821,459.068c0.003,0.036-0.346,0.095-0.98,0.17c-0.634,0.077-1.553,0.163-2.69,0.252
					c-2.274,0.178-5.423,0.345-8.904,0.404c-3.482,0.057-6.635-0.007-8.914-0.109c-1.139-0.051-2.061-0.107-2.697-0.163
					c-0.636-0.055-0.987-0.102-0.985-0.138c0.003-0.075,1.413-0.075,3.691-0.067c2.277,0.009,5.422,0.013,8.896-0.043
					c3.472-0.058,6.615-0.167,8.891-0.251C244.406,459.039,245.815,458.993,245.821,459.068z"/>
			</g>
		</g>
		<g>
			<g>
				<path style="fill:#455A64;" d="M294.204,455.837c-0.005,0.036-0.457,0.011-1.271-0.064c-0.918-0.098-2.07-0.22-3.44-0.365
					c-2.902-0.331-6.906-0.823-11.325-1.398c-4.42-0.575-8.417-1.122-11.308-1.542c-1.362-0.207-2.508-0.382-3.42-0.521
					c-0.806-0.133-1.25-0.222-1.246-0.252c0.003-0.041,0.457-0.02,1.271,0.051c0.814,0.071,1.99,0.193,3.441,0.357
					c2.903,0.326,6.908,0.816,11.328,1.391c4.419,0.574,8.415,1.125,11.305,1.549c1.362,0.211,2.507,0.388,3.419,0.53
					C293.765,455.709,294.208,455.801,294.204,455.837z"/>
			</g>
		</g>
		<g>
			<g>
				<path style="fill:#263238;" d="M251.986,128.918c0.022-0.029,0.415,0.227,1.107,0.713c0.78,0.541,1.765,1.224,2.941,2.039
					c2.492,1.706,5.984,3.993,9.983,6.278c1.5,0.86,2.962,1.66,4.319,2.377l-0.356,0.161c0.838-3.314,1.579-6.163,2.123-8.18
					c0.261-0.934,0.48-1.717,0.658-2.356c0.163-0.547,0.264-0.839,0.292-0.832c0.028,0.007-0.019,0.313-0.13,0.873
					c-0.141,0.649-0.313,1.443-0.518,2.391c-0.461,2.038-1.137,4.903-1.943,8.225l-0.074,0.306l-0.282-0.145
					c-1.369-0.707-2.842-1.503-4.348-2.366c-4.016-2.295-7.492-4.641-9.936-6.429c-1.225-0.891-2.19-1.647-2.85-2.178
					C252.316,129.257,251.964,128.947,251.986,128.918z"/>
			</g>
		</g>
		<g>
			<g>
				<path style="fill:#263238;" d="M285.032,136.281c0.058,0.095-1.776,1.327-4.418,2.985l-0.222,0.139l-0.122-0.237
					c-0.425-0.826-0.879-1.708-1.352-2.628c-1.035-2.041-1.946-3.901-2.582-5.259c-0.636-1.358-0.997-2.214-0.933-2.247
					s0.542,0.765,1.262,2.081c0.72,1.315,1.683,3.149,2.717,5.189c0.463,0.926,0.906,1.812,1.322,2.644l-0.343-0.097
					C283.041,137.256,284.974,136.186,285.032,136.281z"/>
			</g>
		</g>
		<g>
			<g>
				<path style="fill:#263238;" d="M278.482,135.305c0.017,0.023-0.319,0.285-0.877,0.69c-0.558,0.405-1.337,0.952-2.205,1.547
					c-0.868,0.594-1.661,1.123-2.24,1.496c-0.579,0.374-0.945,0.592-0.96,0.568c-0.016-0.024,0.322-0.287,0.88-0.691
					c0.558-0.405,1.336-0.951,2.203-1.545c0.866-0.593,1.658-1.121,2.237-1.494C278.098,135.501,278.465,135.281,278.482,135.305z"
					/>
			</g>
		</g>
		<g>
			<g>
				<path style="fill:#263238;" d="M275.478,137.372c-0.039,0.042-0.91-0.781-1.944-1.84c-1.035-1.059-1.839-1.948-1.796-1.986
					s0.914,0.786,1.945,1.84C274.713,136.44,275.517,137.33,275.478,137.372z"/>
			</g>
		</g>
		<g>
			<g>
				<path style="fill:#263238;" d="M256.641,226.083c0.173-0.029,0.119,3.49,2.067,7.207c1.891,3.747,4.785,5.75,4.661,5.874
					c-0.031,0.047-0.79-0.375-1.829-1.31c-1.038-0.929-2.311-2.422-3.294-4.326c-0.976-1.906-1.45-3.81-1.602-5.195
					C256.487,226.944,256.585,226.081,256.641,226.083z"/>
			</g>
		</g>
		<g>
			<g>
				<path style="fill:#263238;" d="M262.455,239.257c-0.01,0.13-2.266-0.096-4.762-1.278c-2.505-1.166-4.118-2.758-4.025-2.848
					c0.1-0.123,1.817,1.248,4.246,2.377C260.334,238.656,262.486,239.102,262.455,239.257z"/>
			</g>
		</g>
		<g>
			<g>
				<path style="fill:#263238;" d="M282.003,207.25c0.035-0.009,0.164,0.373,0.369,1.073c0.207,0.699,0.475,1.718,0.782,2.984
					c0.614,2.531,1.343,6.06,1.928,9.993c0.582,3.935,0.908,7.524,1.055,10.125c0.074,1.3,0.113,2.354,0.118,3.082
					c0.007,0.729-0.006,1.132-0.042,1.133c-0.036,0.002-0.091-0.398-0.161-1.122c-0.077-0.835-0.172-1.859-0.283-3.065
					c-0.241-2.587-0.624-6.155-1.203-10.076c-0.583-3.919-1.252-7.444-1.772-9.99c-0.244-1.187-0.45-2.194-0.619-3.016
					C282.031,207.658,281.968,207.259,282.003,207.25z"/>
			</g>
		</g>
		<g>
			<path style="fill:#E0E0E0;" d="M275.341,144.313c-1.299,10.388-2.263,33.024-2.621,43.487c-0.3,8.763-0.268,17.533-0.237,26.301
				c0.01,2.825,0.04,5.747,1.203,8.321c2.09,4.627,7.203,6.95,11.897,8.882L275.341,144.313z"/>
		</g>
		<g>
			<g>
				<path style="fill:#E8505B;" d="M287.023,229.803l5.37-13.165l-13.453-73.739l-3.92,0.392c0,0,0.547,76.639,0.374,77.332
					L287.023,229.803z"/>
			</g>
			<g>
				<g>
					<path style="fill:#263238;" d="M278.795,142.904c0.009,0.055-0.822,0.229-1.862,0.304c-1.041,0.077-1.888,0.026-1.887-0.03
						c0-0.059,0.84-0.101,1.872-0.178C277.949,142.926,278.786,142.846,278.795,142.904z"/>
				</g>
			</g>
		</g>
	</g>
</g>
</svg>
